<?xml version="1.0" encoding="utf-8"?><svg version="1.0" id="Layer_1" width="1280" height="720" xmlns="http://www.w3.org/2000/svg" xml:space="preserve"><polyline points="25 786 25 787 26 785 26 786 26 787 26 788 27 784 27 785 27 788 27 789 28 783 28 784 28 789 28 790 29 782 29 783 29 790 29 791 30 781 30 782 30 791 30 792 31 780 31 781 31 792 31 793 32 779 32 780 32 793 32 794 33 778 33 779 33 794 33 795 34 777 34 778 34 795 34 796 35 776 35 777 35 796 35 797 36 775 36 776 36 797 36 798 37 774 37 775 37 798 37 799 38 773 38 774 38 799 38 800 39 772 39 773 39 800 39 801 40 771 40 772 40 801 40 802 41 770 41 771 41 802 41 803 42 769 42 770 42 803 42 804 43 768 43 769 43 804 43 805 44 767 44 768 44 805 44 806 45 766 45 767 45 806 45 807 46 765 46 766 46 807 46 808 47 764 47 765 47 808 47 809 48 763 48 764 48 809 48 810 49 762 49 763 49 810 49 811 50 761 50 762 50 811 50 812 51 760 51 761 51 812 51 813 52 759 52 760 52 813 52 814 53 758 53 759 53 814 53 815 54 756 54 757 54 758 54 815 54 816 54 817 56 756 56 757 56 758 56 759 56 760 56 761 56 762 56 763 56 764 56 765 56 766 56 767 56 768 56 769 56 770 56 803 56 804 56 805 56 806 56 807 56 808 56 809 56 810 56 811 56 812 56 813 56 814 56 815 56 816 56 817 57 770 57 802 57 803 58 771 58 802 59 771 59 802 60 771 60 802 61 771 61 802 62 771 62 802 63 771 63 802 64 746 64 747 64 748 64 771 64 802 64 825 64 826 64 827 65 746 65 748 65 771 65 802 65 825 65 827 66 745 66 746 66 748 66 771 66 802 66 825 66 827 66 828 67 744 67 745 67 748 67 771 67 802 67 825 67 828 67 829 68 743 68 744 68 748 68 771 68 802 68 825 68 829 68 830 69 742 69 743 69 748 69 771 69 802 69 825 69 830 69 831 70 741 70 742 70 748 70 771 70 802 70 825 70 831 70 832 71 214 71 215 71 216 71 217 71 218 71 219 71 220 71 221 71 222 71 223 71 224 71 225 71 226 71 227 71 228 71 229 71 230 71 231 71 232 71 233 71 234 71 235 71 236 71 237 71 238 71 239 71 240 71 241 71 242 71 740 71 741 71 748 71 771 71 802 71 825 71 832 71 833 72 208 72 209 72 210 72 211 72 212 72 213 72 243 72 244 72 245 72 246 72 247 72 248 72 739 72 740 72 748 72 771 72 802 72 825 72 833 72 834 73 202 73 203 73 204 73 205 73 206 73 207 73 249 73 250 73 251 73 252 73 253 73 254 73 738 73 739 73 748 73 771 73 802 73 825 73 834 73 835 74 198 74 199 74 200 74 201 74 255 74 256 74 257 74 258 74 737 74 738 74 748 74 771 74 802 74 825 74 835 74 836 75 194 75 195 75 196 75 197 75 259 75 260 75 261 75 262 75 736 75 737 75 748 75 771 75 802 75 825 75 836 75 837 76 191 76 192 76 193 76 263 76 264 76 265 76 266 76 735 76 736 76 748 76 771 76 802 76 825 76 837 76 838 77 188 77 189 77 190 77 267 77 268 77 734 77 735 77 748 77 771 77 802 77 825 77 838 77 839 78 185 78 186 78 187 78 269 78 270 78 271 78 733 78 734 78 748 78 749 78 770 78 803 78 824 78 825 78 839 78 840 79 182 79 183 79 184 79 272 79 273 79 274 79 732 79 733 79 750 79 751 79 752 79 753 79 754 79 755 79 756 79 757 79 758 79 759 79 760 79 761 79 762 79 763 79 764 79 765 79 766 79 767 79 768 79 769 79 804 79 805 79 806 79 807 79 808 79 809 79 810 79 811 79 812 79 813 79 814 79 815 79 816 79 817 79 818 79 819 79 820 79 821 79 822 79 823 79 840 79 841 80 180 80 181 80 275 80 276 80 731 80 732 80 841 80 842 81 177 81 178 81 179 81 277 81 278 81 279 81 730 81 731 81 842 81 843 82 175 82 176 82 177 82 279 82 280 82 281 82 729 82 730 82 843 82 844 83 173 83 174 83 175 83 281 83 282 83 283 83 728 83 729 83 844 83 845 84 171 84 172 84 284 84 285 84 727 84 728 84 845 84 846 85 169 85 170 85 171 85 285 85 286 85 287 85 726 85 727 85 846 85 847 86 167 86 168 86 169 86 287 86 288 86 289 86 725 86 726 86 847 86 848 87 165 87 166 87 167 87 289 87 290 87 291 87 724 87 725 87 848 87 849 88 164 88 165 88 291 88 292 88 723 88 724 88 849 88 850 89 162 89 163 89 164 89 292 89 293 89 294 89 722 89 723 89 850 89 851 90 160 90 161 90 162 90 294 90 295 90 296 90 721 90 722 90 851 90 852 91 159 91 160 91 296 91 297 91 720 91 721 91 852 91 853 92 157 92 158 92 159 92 297 92 298 92 299 92 719 92 720 92 853 92 854 93 156 93 157 93 299 93 300 93 718 93 719 93 854 93 855 94 155 94 156 94 300 94 301 94 717 94 718 94 855 94 856 95 153 95 154 95 155 95 302 95 303 95 717 95 856 96 152 96 153 96 303 96 304 96 717 96 718 96 855 96 856 97 151 97 152 97 304 97 305 97 718 97 719 97 854 97 855 98 149 98 150 98 151 98 305 98 306 98 307 98 719 98 720 98 853 98 854 99 148 99 149 99 307 99 308 99 720 99 721 99 852 99 853 100 147 100 148 100 308 100 309 100 721 100 722 100 851 100 852 101 146 101 147 101 309 101 310 101 722 101 723 101 850 101 851 102 145 102 146 102 310 102 311 102 723 102 724 102 849 102 850 103 144 103 145 103 311 103 312 103 313 103 724 103 725 103 848 103 849 104 143 104 144 104 313 104 314 104 725 104 726 104 847 104 848 105 141 105 142 105 314 105 315 105 726 105 727 105 846 105 847 106 140 106 141 106 315 106 316 106 727 106 728 106 845 106 846 107 139 107 140 107 316 107 317 107 728 107 729 107 844 107 845 108 138 108 139 108 317 108 318 108 729 108 730 108 843 108 844 109 137 109 138 109 318 109 319 109 730 109 731 109 842 109 843 110 136 110 137 110 319 110 320 110 731 110 732 110 750 110 751 110 752 110 753 110 754 110 755 110 756 110 757 110 758 110 759 110 760 110 761 110 762 110 763 110 764 110 765 110 766 110 767 110 768 110 769 110 804 110 805 110 806 110 807 110 808 110 809 110 810 110 811 110 812 110 813 110 814 110 815 110 816 110 817 110 818 110 819 110 820 110 821 110 822 110 823 110 841 110 842 111 136 111 320 111 321 111 732 111 733 111 748 111 749 111 770 111 803 111 824 111 825 111 840 111 841 112 135 112 136 112 321 112 733 112 734 112 748 112 771 112 802 112 825 112 839 112 840 113 134 113 135 113 321 113 322 113 734 113 735 113 748 113 771 113 802 113 825 113 838 113 839 114 133 114 134 114 322 114 323 114 735 114 736 114 748 114 771 114 802 114 825 114 837 114 838 115 132 115 133 115 323 115 324 115 736 115 737 115 748 115 771 115 802 115 825 115 836 115 837 116 131 116 132 116 324 116 325 116 737 116 738 116 748 116 771 116 802 116 825 116 835 116 836 117 130 117 131 117 325 117 326 117 738 117 739 117 748 117 771 117 802 117 825 117 834 117 835 118 130 118 326 118 739 118 740 118 748 118 771 118 802 118 825 118 833 118 834 119 129 119 130 119 327 119 740 119 741 119 748 119 771 119 802 119 825 119 832 119 833 120 128 120 129 120 327 120 328 120 741 120 742 120 748 120 771 120 802 120 825 120 831 120 832 121 127 121 128 121 328 121 329 121 742 121 743 121 748 121 771 121 802 121 825 121 830 121 831 122 127 122 329 122 330 122 743 122 744 122 748 122 771 122 802 122 825 122 829 122 830 123 126 123 127 123 330 123 744 123 745 123 748 123 771 123 802 123 825 123 828 123 829 124 125 124 126 124 330 124 331 124 745 124 746 124 748 124 771 124 802 124 825 124 827 124 828 125 124 125 125 125 331 125 332 125 746 125 747 125 748 125 771 125 802 125 825 125 826 125 827 126 124 126 332 126 771 126 802 127 123 127 124 127 332 127 333 127 771 127 802 128 122 128 123 128 333 128 334 128 771 128 802 129 122 129 334 129 771 129 802 130 121 130 122 130 334 130 335 130 771 130 802 131 121 131 335 131 771 131 802 132 120 132 121 132 336 132 770 132 802 132 803 133 119 133 120 133 336 133 337 133 756 133 757 133 758 133 759 133 760 133 761 133 762 133 763 133 764 133 765 133 766 133 767 133 768 133 769 133 770 133 803 133 804 133 805 133 806 133 807 133 808 133 809 133 810 133 811 133 812 133 813 133 814 133 815 133 816 133 817 134 119 134 337 134 756 134 817 135 118 135 119 135 337 135 338 135 756 135 757 135 816 135 817 136 118 136 338 136 339 136 757 136 758 136 815 136 816 137 117 137 118 137 339 137 758 137 759 137 814 137 815 138 117 138 339 138 759 138 760 138 813 138 814 139 116 139 339 139 340 139 760 139 761 139 812 139 813 140 116 140 340 140 761 140 762 140 811 140 812 141 115 141 116 141 340 141 341 141 762 141 763 141 810 141 811 142 115 142 341 142 763 142 764 142 809 142 810 143 114 143 115 143 341 143 342 143 764 143 765 143 808 143 809 144 114 144 342 144 765 144 766 144 807 144 808 145 114 145 343 145 766 145 767 145 806 145 807 146 113 146 343 146 767 146 768 146 805 146 806 147 113 147 344 147 768 147 769 147 804 147 805 148 112 148 344 148 769 148 770 148 803 148 804 148 983 148 984 148 985 148 986 149 112 149 344 149 770 149 771 149 802 149 803 149 982 149 983 149 986 149 987 150 111 150 345 150 771 150 772 150 801 150 802 150 982 150 987 151 111 151 345 151 772 151 773 151 800 151 801 151 981 151 984 151 985 151 988 152 111 152 345 152 773 152 774 152 799 152 800 152 980 152 983 152 986 152 989 153 110 153 346 153 774 153 775 153 798 153 799 153 980 153 982 153 983 153 987 153 989 153 990 154 110 154 346 154 775 154 776 154 797 154 798 154 979 154 982 154 987 154 990 155 110 155 347 155 776 155 777 155 796 155 797 155 978 155 981 155 988 155 991 156 109 156 347 156 777 156 778 156 795 156 796 156 977 156 978 156 980 156 981 156 989 156 992 157 109 157 347 157 778 157 779 157 794 157 795 157 977 157 980 157 989 157 992 158 108 158 348 158 779 158 780 158 793 158 794 158 976 158 979 158 990 158 993 159 108 159 348 159 780 159 781 159 792 159 793 159 975 159 976 159 978 159 991 159 994 160 108 160 348 160 781 160 782 160 791 160 792 160 937 160 938 160 939 160 975 160 978 160 991 160 992 160 994 160 1031 161 108 161 348 161 782 161 783 161 790 161 791 161 937 161 940 161 941 161 974 161 977 161 992 161 995 161 1028 161 1029 161 1031 162 107 162 349 162 783 162 784 162 789 162 790 162 936 162 942 162 943 162 973 162 976 162 993 162 996 162 1026 162 1027 162 1031 162 1033 163 107 163 349 163 784 163 785 163 788 163 789 163 936 163 938 163 939 163 940 163 944 163 945 163 946 163 973 163 975 163 976 163 994 163 996 163 997 163 1024 163 1025 163 1029 163 1030 163 1031 163 1033 164 107 164 349 164 785 164 786 164 787 164 788 164 936 164 938 164 941 164 942 164 943 164 946 164 947 164 948 164 972 164 975 164 994 164 997 164 1021 164 1022 164 1023 164 1026 164 1027 164 1028 164 1031 164 1033 165 107 165 349 165 936 165 938 165 943 165 944 165 945 165 948 165 949 165 950 165 971 165 974 165 995 165 998 165 1019 165 1020 165 1021 165 1024 165 1025 165 1026 165 1031 165 1033 166 106 166 350 166 936 166 938 166 945 166 946 166 947 166 951 166 952 166 970 166 971 166 973 166 996 166 999 166 1017 166 1018 166 1019 166 1022 166 1023 166 1024 166 1031 166 1033 167 106 167 350 167 518 167 519 167 520 167 521 167 522 167 523 167 524 167 525 167 526 167 527 167 528 167 529 167 530 167 531 167 532 167 533 167 534 167 535 167 536 167 537 167 538 167 539 167 540 167 541 167 542 167 543 167 544 167 545 167 546 167 547 167 548 167 549 167 550 167 551 167 552 167 553 167 554 167 555 167 556 167 557 167 558 167 559 167 560 167 561 167 562 167 563 167 564 167 565 167 566 167 567 167 568 167 569 167 570 167 571 167 572 167 573 167 574 167 575 167 576 167 577 167 578 167 579 167 580 167 581 167 582 167 583 167 584 167 585 167 586 167 587 167 588 167 589 167 590 167 591 167 592 167 593 167 594 167 595 167 596 167 597 167 598 167 599 167 600 167 601 167 602 167 603 167 604 167 605 167 606 167 607 167 608 167 609 167 610 167 611 167 612 167 613 167 614 167 615 167 616 167 617 167 618 167 619 167 620 167 621 167 622 167 623 167 624 167 625 167 626 167 627 167 628 167 629 167 630 167 631 167 632 167 633 167 634 167 635 167 636 167 637 167 638 167 639 167 640 167 641 167 642 167 643 167 644 167 645 167 646 167 647 167 648 167 649 167 650 167 651 167 652 167 653 167 654 167 655 167 656 167 657 167 658 167 659 167 660 167 661 167 662 167 663 167 664 167 665 167 666 167 667 167 668 167 669 167 670 167 671 167 672 167 673 167 674 167 675 167 676 167 677 167 678 167 679 167 680 167 681 167 682 167 683 167 684 167 685 167 686 167 687 167 688 167 689 167 690 167 691 167 692 167 693 167 936 167 938 167 948 167 949 167 953 167 954 167 970 167 973 167 996 167 997 167 999 167 1015 167 1016 167 1020 167 1021 167 1022 167 1031 167 1033 168 106 168 350 168 517 168 694 168 936 168 938 168 950 168 951 168 955 168 956 168 969 168 972 168 997 168 1000 168 1013 168 1014 168 1018 168 1019 168 1031 168 1033 169 106 169 351 169 516 169 694 169 936 169 938 169 952 169 953 169 954 169 957 169 958 169 959 169 968 169 971 169 998 169 1001 169 1011 169 1012 169 1016 169 1017 169 1032 169 1034 170 105 170 351 170 516 170 694 170 935 170 937 170 954 170 955 170 956 170 959 170 960 170 961 170 968 170 970 170 971 170 999 170 1001 170 1002 170 1008 170 1009 170 1010 170 1013 170 1014 170 1015 170 1032 170 1034 171 105 171 351 171 516 171 694 171 935 171 937 171 956 171 957 171 958 171 961 171 962 171 963 171 967 171 970 171 999 171 1002 171 1006 171 1007 171 1008 171 1011 171 1012 171 1013 171 1032 171 1034 172 105 172 351 172 516 172 695 172 935 172 937 172 958 172 959 172 960 172 963 172 964 172 965 172 966 172 969 172 1000 172 1003 172 1004 172 1005 172 1006 172 1009 172 1010 172 1011 172 1032 172 1034 173 105 173 351 173 516 173 695 173 935 173 937 173 961 173 962 173 966 173 968 173 969 173 1001 173 1007 173 1008 173 1009 173 1032 173 1034 174 105 174 351 174 516 174 694 174 935 174 937 174 963 174 964 174 965 174 967 174 968 174 1001 174 1002 174 1004 174 1005 174 1006 174 1032 174 1034 175 104 175 352 175 516 175 694 175 935 175 937 175 965 175 966 175 967 175 1003 175 1032 175 1034 176 104 176 352 176 516 176 694 176 935 176 937 176 1032 176 1034 177 104 177 352 177 516 177 694 177 935 177 937 177 1032 177 1034 178 104 178 352 178 516 178 694 178 935 178 937 178 1032 178 1034 179 104 179 352 179 516 179 694 179 935 179 937 179 1032 179 1034 180 104 180 352 180 516 180 694 180 935 180 937 180 1033 180 1035 181 104 181 353 181 516 181 694 181 935 181 937 181 1033 181 1035 182 103 182 353 182 516 182 694 182 934 182 936 182 1033 182 1035 183 103 183 353 183 516 183 694 183 934 183 936 183 1033 183 1035 184 103 184 353 184 516 184 694 184 934 184 936 184 1033 184 1035 185 103 185 353 185 516 185 694 185 934 185 936 185 1033 185 1035 186 103 186 353 186 516 186 694 186 934 186 936 186 1033 186 1035 187 103 187 353 187 516 187 694 187 934 187 936 187 1033 187 1035 188 103 188 353 188 516 188 694 188 934 188 936 188 1033 188 1035 189 103 189 353 189 516 189 694 189 934 189 936 189 1033 189 1035 190 103 190 353 190 516 190 694 190 934 190 936 190 1033 190 1035 191 103 191 353 191 516 191 694 191 933 191 936 191 1034 191 1036 192 103 192 353 192 516 192 694 192 922 192 923 192 924 192 925 192 926 192 927 192 928 192 929 192 930 192 931 192 932 192 935 192 1034 192 1037 192 1038 192 1039 192 1040 192 1041 192 1042 192 1043 192 1044 192 1045 192 1046 192 1047 192 1048 193 103 193 353 193 516 193 694 193 910 193 911 193 912 193 913 193 914 193 915 193 916 193 917 193 918 193 919 193 920 193 921 193 933 193 934 193 935 193 1034 193 1035 193 1036 193 1049 193 1050 193 1051 193 1052 193 1053 193 1054 193 1055 193 1056 193 1057 193 1058 193 1059 194 103 194 353 194 516 194 694 194 903 194 904 194 905 194 906 194 907 194 908 194 909 194 922 194 923 194 924 194 925 194 926 194 927 194 928 194 929 194 930 194 931 194 932 194 1037 194 1038 194 1039 194 1040 194 1041 194 1042 194 1043 194 1044 194 1045 194 1046 194 1047 194 1048 194 1060 194 1061 194 1062 194 1063 194 1064 194 1065 194 1066 195 103 195 353 195 516 195 694 195 910 195 911 195 912 195 913 195 914 195 915 195 916 195 917 195 918 195 919 195 920 195 921 195 1049 195 1050 195 1051 195 1052 195 1053 195 1054 195 1055 195 1056 195 1057 195 1058 195 1059 195 1067 196 103 196 353 196 516 196 694 196 902 196 903 196 904 196 905 196 906 196 907 196 908 196 909 196 1060 196 1061 196 1062 196 1063 196 1064 196 1065 196 1067 197 103 197 353 197 516 197 694 197 903 197 905 197 1067 198 103 198 353 198 516 198 694 198 903 198 905 198 1064 198 1066 199 103 199 353 199 516 199 694 199 903 199 906 199 1063 199 1064 199 1066 200 103 200 353 200 516 200 694 200 904 200 906 200 1063 200 1065 201 103 201 353 201 516 201 694 201 904 201 906 201 907 201 1062 201 1063 201 1065 202 103 202 353 202 516 202 694 202 905 202 907 202 1062 202 1064 202 1065 203 103 203 353 203 516 203 695 203 905 203 908 203 1062 203 1064 204 103 204 353 204 516 204 695 204 906 204 908 204 1061 204 1063 204 1064 205 103 205 353 205 516 205 694 205 906 205 908 205 909 205 1061 205 1063 206 103 206 353 206 516 206 694 206 907 206 909 206 1060 206 1062 206 1063 207 103 207 353 207 516 207 694 207 907 207 909 207 910 207 1060 207 1062 208 103 208 353 208 516 208 694 208 907 208 908 208 910 208 1059 208 1061 208 1062 209 103 209 353 209 516 209 694 209 908 209 910 209 1059 209 1061 210 103 210 353 210 516 210 694 210 908 210 909 210 911 210 1058 210 1059 210 1061 211 104 211 353 211 516 211 694 211 909 211 911 211 1058 211 1060 212 104 212 352 212 516 212 694 212 909 212 912 212 1057 212 1058 212 1060 213 104 213 352 213 516 213 694 213 910 213 912 213 1057 213 1059 214 104 214 352 214 516 214 694 214 910 214 911 214 913 214 1056 214 1059 215 104 215 352 215 516 215 694 215 911 215 913 215 1056 215 1058 216 104 216 352 216 516 216 694 216 911 216 914 216 1055 216 1056 216 1058 217 104 217 352 217 516 217 694 217 912 217 914 217 1055 217 1057 217 1058 218 105 218 352 218 516 218 694 218 912 218 914 218 915 218 1055 218 1057 219 105 219 351 219 516 219 694 219 913 219 915 219 1054 219 1056 219 1057 220 105 220 351 220 516 220 694 220 913 220 915 220 916 220 1054 220 1056 221 105 221 351 221 516 221 694 221 913 221 914 221 916 221 1053 221 1056 222 105 222 351 222 516 222 694 222 914 222 916 222 1053 222 1055 223 105 223 351 223 516 223 694 223 915 223 917 223 1053 223 1055 224 106 224 350 224 516 224 694 224 914 224 917 224 1053 224 1055 224 1056 225 106 225 350 225 516 225 694 225 912 225 913 225 916 225 1053 225 1056 225 1057 226 106 226 350 226 516 226 694 226 911 226 915 226 916 226 1054 226 1058 227 107 227 350 227 516 227 694 227 909 227 910 227 913 227 914 227 1055 227 1056 227 1059 227 1060 228 107 228 349 228 516 228 694 228 908 228 909 228 912 228 913 228 1057 228 1061 229 107 229 349 229 516 229 694 229 906 229 907 229 911 229 1058 229 1059 229 1062 229 1063 230 107 230 349 230 516 230 694 230 905 230 906 230 909 230 910 230 1059 230 1060 230 1063 230 1064 231 108 231 349 231 516 231 694 231 904 231 908 231 1061 231 1065 231 1066 232 108 232 348 232 516 232 694 232 902 232 903 232 906 232 907 232 1062 232 1063 232 1066 232 1067 233 108 233 348 233 516 233 694 233 901 233 905 233 906 233 1064 233 1068 234 108 234 348 234 516 234 695 234 899 234 900 234 903 234 904 234 1065 234 1066 234 1069 234 1070 235 109 235 347 235 516 235 695 235 898 235 899 235 902 235 903 235 1067 235 1071 236 109 236 347 236 516 236 694 236 896 236 897 236 901 236 1068 236 1069 236 1072 236 1073 237 109 237 347 237 516 237 694 237 895 237 896 237 899 237 900 237 1069 237 1070 237 1073 237 1074 238 110 238 346 238 516 238 694 238 894 238 898 238 1071 238 1075 238 1076 239 110 239 346 239 516 239 694 239 892 239 893 239 896 239 897 239 1072 239 1073 239 1076 239 1077 240 111 240 346 240 516 240 694 240 891 240 895 240 1074 240 1078 241 111 241 345 241 516 241 590 241 591 241 592 241 593 241 594 241 595 241 596 241 597 241 598 241 599 241 600 241 601 241 602 241 603 241 604 241 605 241 606 241 607 241 608 241 609 241 610 241 611 241 612 241 613 241 614 241 615 241 616 241 617 241 618 241 619 241 620 241 621 241 622 241 623 241 624 241 625 241 626 241 627 241 628 241 629 241 630 241 631 241 632 241 633 241 634 241 635 241 636 241 637 241 638 241 639 241 640 241 641 241 642 241 643 241 644 241 645 241 646 241 647 241 648 241 649 241 650 241 651 241 652 241 653 241 654 241 655 241 656 241 657 241 658 241 659 241 660 241 661 241 662 241 663 241 664 241 665 241 666 241 667 241 668 241 669 241 670 241 671 241 672 241 673 241 694 241 890 241 893 241 894 241 1075 241 1076 241 1079 242 111 242 345 242 516 242 587 242 588 242 589 242 674 242 675 242 676 242 694 242 890 242 892 242 1077 242 1079 243 112 243 344 243 516 243 586 243 587 243 676 243 677 243 694 243 890 243 893 243 894 243 1075 243 1076 243 1079 244 112 244 344 244 516 244 585 244 586 244 677 244 678 244 694 244 891 244 894 244 895 244 1074 244 1075 244 1078 244 1079 245 112 245 344 245 516 245 584 245 585 245 678 245 679 245 694 245 892 245 896 245 897 245 1073 245 1077 246 113 246 343 246 516 246 583 246 584 246 679 246 680 246 694 246 893 246 894 246 897 246 898 246 1071 246 1072 246 1075 246 1076 247 113 247 342 247 343 247 516 247 583 247 680 247 694 247 895 247 899 247 1070 247 1074 248 114 248 342 248 516 248 583 248 680 248 694 248 896 248 897 248 900 248 901 248 1068 248 1069 248 1072 248 1073 249 114 249 115 249 342 249 516 249 582 249 680 249 694 249 898 249 902 249 1067 249 1068 249 1071 249 1072 250 115 250 341 250 342 250 516 250 582 250 680 250 694 250 899 250 900 250 903 250 904 250 1065 250 1066 250 1070 251 115 251 116 251 341 251 516 251 582 251 680 251 694 251 900 251 901 251 904 251 905 251 1064 251 1065 251 1068 251 1069 252 116 252 340 252 341 252 516 252 582 252 680 252 694 252 902 252 906 252 907 252 1063 252 1067 253 116 253 117 253 340 253 516 253 582 253 680 253 694 253 903 253 904 253 907 253 908 253 1061 253 1062 253 1065 253 1066 254 117 254 339 254 516 254 582 254 680 254 694 254 905 254 909 254 1060 254 1064 255 117 255 339 255 516 255 582 255 680 255 694 255 906 255 907 255 910 255 911 255 1058 255 1059 255 1062 255 1063 256 117 256 118 256 338 256 339 256 516 256 582 256 680 256 694 256 908 256 912 256 1057 256 1058 256 1061 256 1062 257 118 257 119 257 338 257 516 257 582 257 680 257 694 257 909 257 910 257 913 257 914 257 1056 257 1060 258 119 258 337 258 516 258 582 258 680 258 694 258 910 258 911 258 914 258 915 258 1054 258 1055 258 1058 258 1059 259 119 259 120 259 336 259 337 259 516 259 582 259 680 259 694 259 912 259 916 259 1053 259 1057 260 120 260 336 260 516 260 582 260 680 260 694 260 913 260 914 260 916 260 1053 260 1055 260 1056 261 120 261 121 261 335 261 336 261 516 261 582 261 680 261 694 261 915 261 917 261 1053 262 121 262 122 262 334 262 335 262 516 262 582 262 680 262 694 262 914 262 916 262 917 262 1053 262 1055 263 122 263 334 263 516 263 582 263 680 263 694 263 914 263 916 263 1053 263 1055 263 1056 264 122 264 123 264 333 264 334 264 516 264 582 264 680 264 694 264 913 264 916 264 1053 264 1054 264 1056 265 123 265 124 265 333 265 516 265 582 265 680 265 695 265 913 265 915 265 1054 265 1056 266 124 266 332 266 333 266 516 266 582 266 680 266 695 266 912 266 915 266 1054 266 1057 267 124 267 125 267 331 267 332 267 516 267 582 267 680 267 694 267 912 267 914 267 1055 267 1057 268 125 268 126 268 331 268 516 268 582 268 680 268 694 268 911 268 914 268 1055 268 1056 268 1058 269 126 269 330 269 516 269 582 269 680 269 694 269 911 269 913 269 1056 269 1058 270 126 270 127 270 329 270 330 270 516 270 582 270 680 270 694 270 910 270 911 270 913 270 1056 270 1059 271 127 271 128 271 328 271 329 271 516 271 582 271 680 271 694 271 910 271 912 271 1057 271 1059 272 128 272 129 272 327 272 328 272 516 272 583 272 584 272 585 272 586 272 587 272 588 272 589 272 590 272 591 272 592 272 593 272 594 272 595 272 596 272 597 272 598 272 599 272 600 272 601 272 602 272 603 272 604 272 605 272 606 272 607 272 608 272 609 272 610 272 611 272 612 272 613 272 614 272 615 272 616 272 617 272 618 272 619 272 620 272 621 272 622 272 623 272 624 272 625 272 626 272 627 272 628 272 629 272 630 272 631 272 632 272 633 272 634 272 635 272 636 272 637 272 638 272 639 272 640 272 641 272 642 272 643 272 644 272 645 272 646 272 647 272 648 272 649 272 650 272 651 272 652 272 653 272 654 272 655 272 656 272 657 272 658 272 659 272 660 272 661 272 662 272 663 272 664 272 665 272 666 272 667 272 668 272 669 272 670 272 671 272 672 272 673 272 674 272 675 272 676 272 677 272 678 272 679 272 680 272 694 272 909 272 910 272 912 272 1057 272 1059 272 1060 273 129 273 327 273 516 273 694 273 909 273 911 273 912 273 1058 273 1060 274 129 274 130 274 326 274 327 274 516 274 694 274 909 274 911 274 1058 274 1061 275 130 275 131 275 325 275 326 275 516 275 694 275 908 275 911 275 1059 275 1061 276 131 276 132 276 324 276 325 276 516 276 694 276 908 276 910 276 1059 276 1061 276 1062 277 132 277 133 277 323 277 324 277 516 277 694 277 907 277 909 277 910 277 1060 277 1062 278 133 278 134 278 323 278 516 278 694 278 907 278 909 278 1060 278 1062 278 1063 279 134 279 322 279 323 279 516 279 694 279 906 279 909 279 1060 279 1061 279 1063 280 134 280 135 280 321 280 322 280 516 280 694 280 906 280 908 280 1061 280 1063 281 135 281 136 281 320 281 321 281 516 281 694 281 905 281 906 281 908 281 1061 281 1062 281 1064 282 136 282 137 282 319 282 320 282 516 282 694 282 905 282 907 282 1062 282 1064 283 137 283 138 283 318 283 319 283 516 283 694 283 904 283 907 283 1062 283 1065 284 138 284 139 284 317 284 318 284 516 284 694 284 904 284 906 284 1063 284 1065 285 139 285 140 285 316 285 317 285 516 285 694 285 903 285 904 285 906 285 1063 285 1064 285 1066 286 140 286 141 286 315 286 316 286 516 286 694 286 903 286 905 286 1064 286 1066 287 141 287 142 287 314 287 315 287 516 287 694 287 903 287 905 287 1064 287 1067 288 142 288 143 288 313 288 314 288 516 288 694 288 903 288 905 288 906 288 1063 288 1064 288 1065 288 1067 289 143 289 144 289 312 289 313 289 516 289 694 289 902 289 907 289 908 289 909 289 910 289 911 289 912 289 913 289 914 289 915 289 916 289 917 289 1052 289 1053 289 1054 289 1055 289 1056 289 1057 289 1058 289 1059 289 1060 289 1061 289 1062 289 1067 290 144 290 145 290 146 290 311 290 312 290 516 290 694 290 903 290 904 290 905 290 906 290 918 290 919 290 920 290 921 290 922 290 923 290 924 290 925 290 926 290 927 290 928 290 929 290 1041 290 1042 290 1043 290 1044 290 1045 290 1046 290 1047 290 1048 290 1049 290 1050 290 1051 290 1063 290 1064 290 1065 290 1066 290 1067 291 146 291 147 291 309 291 310 291 311 291 516 291 694 291 907 291 908 291 909 291 910 291 911 291 912 291 913 291 914 291 915 291 916 291 917 291 930 291 931 291 932 291 933 291 934 291 935 291 1034 291 1035 291 1036 291 1037 291 1038 291 1039 291 1040 291 1052 291 1053 291 1054 291 1055 291 1056 291 1057 291 1058 291 1059 291 1060 291 1061 291 1062 292 147 292 148 292 308 292 309 292 516 292 694 292 918 292 919 292 920 292 921 292 922 292 923 292 924 292 925 292 926 292 927 292 928 292 935 292 1034 292 1041 292 1042 292 1043 292 1044 292 1045 292 1046 292 1047 292 1048 292 1049 292 1050 292 1051 293 148 293 149 293 307 293 308 293 516 293 694 293 930 293 931 293 932 293 933 293 936 293 1034 293 1036 293 1037 293 1038 293 1039 293 1040 294 149 294 150 294 306 294 307 294 516 294 694 294 934 294 936 294 1033 295 150 295 151 295 152 295 304 295 305 295 306 295 516 295 694 295 934 295 936 295 1033 295 1035 296 152 296 153 296 303 296 304 296 516 296 695 296 934 296 936 296 1033 296 1035 297 153 297 154 297 302 297 303 297 516 297 695 297 934 297 936 297 1033 297 1035 298 154 298 155 298 156 298 301 298 302 298 516 298 694 298 934 298 936 298 1033 298 1035 299 156 299 157 299 299 299 300 299 516 299 694 299 934 299 936 299 1033 299 1035 300 157 300 158 300 298 300 299 300 516 300 694 300 934 300 936 300 1033 300 1035 301 158 301 159 301 160 301 296 301 297 301 298 301 516 301 694 301 934 301 936 301 1033 301 1035 302 160 302 161 302 162 302 294 302 295 302 296 302 516 302 694 302 934 302 936 302 1033 302 1035 303 162 303 163 303 293 303 294 303 516 303 694 303 934 303 936 303 1033 303 1035 304 163 304 164 304 165 304 291 304 292 304 293 304 516 304 694 304 935 304 937 304 1033 304 1035 305 165 305 166 305 167 305 290 305 291 305 516 305 694 305 935 305 937 305 1032 306 167 306 168 306 288 306 289 306 290 306 516 306 694 306 935 306 937 306 1032 306 1034 307 168 307 169 307 170 307 286 307 287 307 288 307 516 307 694 307 935 307 937 307 1032 307 1034 308 171 308 172 308 284 308 285 308 516 308 694 308 935 308 937 308 1032 308 1034 309 172 309 173 309 174 309 282 309 283 309 284 309 516 309 694 309 935 309 937 309 1032 309 1034 310 175 310 176 310 177 310 280 310 281 310 282 310 516 310 694 310 935 310 937 310 963 310 964 310 965 310 966 310 967 310 968 310 1002 310 1003 310 1004 310 1005 310 1006 310 1032 310 1034 311 177 311 178 311 278 311 279 311 516 311 694 311 935 311 937 311 961 311 962 311 963 311 968 311 1001 311 1006 311 1007 311 1008 311 1032 311 1034 312 179 312 180 312 181 312 275 312 276 312 277 312 516 312 694 312 935 312 937 312 959 312 960 312 961 312 964 312 965 312 966 312 969 312 1000 312 1003 312 1004 312 1005 312 1009 312 1010 312 1032 312 1034 313 182 313 183 313 273 313 274 313 516 313 694 313 935 313 937 313 957 313 958 313 962 313 963 313 964 313 967 313 970 313 999 313 1000 313 1002 313 1006 313 1007 313 1011 313 1012 313 1032 313 1034 314 184 314 185 314 186 314 270 314 271 314 272 314 516 314 694 314 935 314 937 314 955 314 956 314 960 314 961 314 967 314 968 314 970 314 999 314 1002 314 1008 314 1009 314 1013 314 1014 314 1032 314 1034 315 187 315 188 315 189 315 267 315 268 315 269 315 516 315 694 315 936 315 938 315 953 315 954 315 958 315 959 315 968 315 971 315 998 315 1001 315 1010 315 1011 315 1015 315 1016 315 1017 315 1032 315 1034 316 190 316 191 316 192 316 264 316 265 316 266 316 516 316 694 316 936 316 938 316 950 316 951 316 952 316 956 316 957 316 969 316 972 316 997 316 1000 316 1012 316 1013 316 1014 316 1017 316 1018 316 1019 316 1031 317 193 317 194 317 195 317 196 317 260 317 261 317 262 317 263 317 516 317 694 317 936 317 938 317 948 317 949 317 950 317 953 317 954 317 955 317 970 317 972 317 973 317 997 317 1000 317 1014 317 1015 317 1016 317 1019 317 1020 317 1021 317 1031 317 1033 318 197 318 198 318 199 318 200 318 256 318 257 318 258 318 259 318 516 318 694 318 936 318 938 318 946 318 947 318 948 318 951 318 952 318 953 318 970 318 973 318 996 318 999 318 1016 318 1017 318 1018 318 1022 318 1023 318 1031 318 1033 319 201 319 202 319 203 319 204 319 205 319 251 319 252 319 253 319 254 319 255 319 516 319 694 319 936 319 938 319 944 319 945 319 949 319 950 319 951 319 971 319 974 319 995 319 998 319 1019 319 1020 319 1024 319 1025 319 1031 319 1033 320 206 320 207 320 208 320 209 320 210 320 211 320 212 320 245 320 246 320 247 320 248 320 249 320 250 320 516 320 694 320 936 320 938 320 942 320 943 320 947 320 948 320 972 320 975 320 995 320 997 320 998 320 1021 320 1022 320 1026 320 1027 320 1031 320 1033 321 213 321 214 321 215 321 216 321 217 321 218 321 219 321 220 321 221 321 222 321 223 321 224 321 225 321 226 321 227 321 228 321 229 321 230 321 231 321 232 321 233 321 234 321 235 321 236 321 237 321 238 321 239 321 240 321 241 321 242 321 243 321 244 321 516 321 694 321 936 321 938 321 940 321 941 321 945 321 946 321 972 321 975 321 994 321 997 321 1023 321 1024 321 1028 321 1029 321 1031 321 1033 322 516 322 694 322 936 322 938 322 939 322 943 322 944 322 973 322 976 322 993 322 996 322 1025 322 1026 322 1027 322 1030 322 1031 322 1033 323 516 323 694 323 940 323 941 323 942 323 974 323 977 323 992 323 993 323 995 323 1027 323 1028 323 1029 323 1033 324 516 324 694 324 937 324 938 324 939 324 940 324 974 324 975 324 977 324 992 324 995 324 1029 324 1030 324 1031 324 1032 325 516 325 694 325 975 325 978 325 991 325 994 326 516 326 694 326 976 326 979 326 990 326 993 327 516 327 694 327 977 327 979 327 980 327 990 327 992 327 993 328 516 328 694 328 977 328 980 328 989 328 992 329 516 329 695 329 978 329 981 329 988 329 991 330 516 330 695 330 979 330 982 330 987 330 988 330 990 331 516 331 694 331 979 331 980 331 982 331 987 331 990 332 516 332 694 332 980 332 983 332 986 332 989 333 516 333 694 333 981 333 984 333 985 333 988 334 516 334 694 334 982 334 984 334 985 334 987 334 988 335 516 335 694 335 982 335 987 336 516 336 694 336 983 336 984 336 985 336 986 337 516 337 694 338 516 338 694 339 516 339 694 340 516 340 694 341 516 341 694 342 516 342 694 343 516 343 694 344 516 344 694 345 517 345 518 345 519 345 520 345 521 345 522 345 523 345 524 345 525 345 526 345 527 345 528 345 529 345 530 345 531 345 532 345 533 345 534 345 535 345 536 345 537 345 538 345 539 345 540 345 541 345 542 345 543 345 544 345 545 345 546 345 547 345 548 345 549 345 550 345 551 345 552 345 553 345 554 345 555 345 556 345 557 345 558 345 559 345 560 345 561 345 562 345 563 345 564 345 565 345 566 345 567 345 568 345 569 345 570 345 571 345 572 345 573 345 574 345 575 345 576 345 577 345 578 345 579 345 580 345 581 345 582 345 583 345 584 345 585 345 586 345 587 345 588 345 589 345 590 345 591 345 592 345 593 345 594 345 595 345 596 345 597 345 598 345 599 345 600 345 601 345 602 345 603 345 604 345 605 345 606 345 607 345 608 345 609 345 610 345 611 345 612 345 613 345 614 345 615 345 616 345 617 345 618 345 619 345 620 345 621 345 622 345 623 345 624 345 625 345 626 345 627 345 628 345 629 345 630 345 631 345 632 345 633 345 634 345 635 345 636 345 637 345 638 345 639 345 640 345 641 345 642 345 643 345 644 345 645 345 646 345 647 345 648 345 649 345 650 345 651 345 652 345 653 345 654 345 655 345 656 345 657 345 658 345 659 345 660 345 661 345 662 345 663 345 664 345 665 345 666 345 667 345 668 345 669 345 670 345 671 345 672 345 673 345 674 345 675 345 676 345 677 345 678 345 679 345 680 345 681 345 682 345 683 345 684 345 685 345 686 345 687 345 688 345 689 345 690 345 691 345 692 345 693 345 694 383 896 383 897 383 898 383 899 383 900 383 901 383 902 383 903 383 904 383 905 383 906 383 907 383 908 383 909 383 910 383 911 383 912 383 913 383 914 383 915 383 916 383 917 383 918 383 919 383 920 383 921 383 922 383 923 384 890 384 891 384 892 384 893 384 894 384 895 384 924 384 925 384 926 384 927 384 928 384 929 384 930 385 884 385 885 385 886 385 887 385 888 385 889 385 931 385 932 385 933 385 934 385 935 386 881 386 882 386 883 386 936 386 937 386 938 386 939 387 877 387 878 387 879 387 880 387 940 387 941 387 942 387 943 388 873 388 874 388 875 388 876 388 944 388 945 388 946 389 871 389 872 389 947 389 948 389 949 390 868 390 869 390 870 390 950 390 951 391 865 391 866 391 867 391 952 391 953 391 954 392 863 392 864 392 955 392 956 393 860 393 861 393 862 393 957 393 958 393 959 394 858 394 859 394 860 394 959 394 960 394 961 395 857 395 858 395 961 395 962 395 963 396 854 396 855 396 856 396 964 396 965 397 852 397 853 397 854 397 965 397 966 397 967 398 851 398 852 398 967 398 968 398 969 399 849 399 850 399 851 399 969 399 970 400 847 400 848 400 849 400 970 400 971 400 972 401 846 401 847 401 972 401 973 401 974 402 844 402 845 402 846 402 974 402 975 403 843 403 844 403 975 403 976 403 977 404 841 404 842 404 843 404 977 404 978 405 840 405 841 405 978 405 979 406 838 406 839 406 840 406 979 406 980 406 981 407 217 407 218 407 219 407 220 407 221 407 222 407 223 407 224 407 225 407 226 407 227 407 228 407 229 407 230 407 231 407 232 407 233 407 234 407 235 407 236 407 237 407 238 407 239 407 240 407 241 407 242 407 243 407 244 407 245 407 246 407 247 407 248 407 249 407 250 407 251 407 252 407 253 407 254 407 255 407 256 407 257 407 258 407 259 407 260 407 261 407 262 407 837 407 838 407 981 407 982 408 216 408 263 408 836 408 837 408 982 408 983 409 215 409 263 409 834 409 835 409 836 409 983 409 984 409 985 410 215 410 263 410 833 410 834 410 985 410 986 411 215 411 263 411 832 411 833 411 986 411 987 412 215 412 263 412 831 412 832 412 987 412 988 413 215 413 263 413 830 413 831 413 988 413 989 414 215 414 264 414 829 414 830 414 989 414 990 415 215 415 264 415 828 415 829 415 990 415 991 416 215 416 263 416 827 416 828 416 991 416 992 417 215 417 263 417 826 417 827 417 992 417 993 418 215 418 263 418 825 418 826 418 993 418 994 419 215 419 263 419 824 419 825 419 994 419 995 420 215 420 263 420 823 420 824 420 995 420 996 421 215 421 263 421 822 421 823 421 996 421 997 422 215 422 264 422 821 422 822 422 997 422 998 423 215 423 264 423 820 423 821 423 998 423 999 424 215 424 263 424 819 424 820 424 999 424 1000 425 215 425 263 425 818 425 819 425 1000 425 1001 426 215 426 263 426 818 426 1001 427 215 427 263 427 817 427 818 427 900 427 901 427 902 427 903 427 904 427 905 427 906 427 907 427 908 427 909 427 910 427 911 427 912 427 913 427 914 427 915 427 916 427 917 427 918 427 919 427 920 427 1002 428 215 428 263 428 816 428 817 428 894 428 895 428 896 428 897 428 898 428 899 428 921 428 922 428 923 428 924 428 925 428 1002 428 1003 429 215 429 263 429 815 429 816 429 890 429 891 429 892 429 893 429 926 429 927 429 928 429 929 429 1003 429 1004 430 215 430 263 430 815 430 887 430 888 430 889 430 930 430 931 430 932 430 1004 431 215 431 264 431 814 431 815 431 884 431 885 431 886 431 933 431 934 431 935 431 1005 432 215 432 264 432 813 432 814 432 882 432 883 432 936 432 937 432 938 432 1005 432 1006 433 215 433 263 433 812 433 813 433 879 433 880 433 881 433 939 433 940 433 1006 433 1007 434 215 434 263 434 812 434 877 434 878 434 940 434 941 434 942 434 1007 435 215 435 263 435 811 435 812 435 875 435 876 435 943 435 944 435 945 435 1007 435 1008 436 215 436 263 436 810 436 811 436 875 436 945 436 946 436 1008 436 1009 437 215 437 263 437 810 437 875 437 876 437 946 437 947 437 948 437 1009 438 215 438 263 438 809 438 810 438 877 438 948 438 949 438 950 438 1009 438 1010 439 215 439 264 439 809 439 878 439 950 439 951 439 1010 440 215 440 264 440 808 440 809 440 879 440 951 440 952 440 953 440 1011 441 215 441 263 441 807 441 808 441 880 441 953 441 954 441 1011 441 1012 442 215 442 263 442 807 442 880 442 881 442 954 442 955 442 1012 443 215 443 263 443 806 443 807 443 881 443 882 443 955 443 956 443 957 443 1012 443 1013 444 215 444 263 444 806 444 882 444 883 444 957 444 958 444 1013 445 215 445 263 445 805 445 806 445 883 445 884 445 958 445 959 445 1013 445 1014 446 215 446 263 446 805 446 884 446 885 446 886 446 959 446 960 446 1014 447 215 447 263 447 804 447 805 447 886 447 887 447 960 447 961 447 1014 447 1015 448 215 448 264 448 804 448 887 448 888 448 961 448 962 448 1015 449 215 449 264 449 803 449 804 449 888 449 889 449 962 449 963 449 1015 449 1016 450 215 450 263 450 803 450 889 450 890 450 963 450 964 450 1016 451 215 451 263 451 802 451 803 451 890 451 891 451 964 451 965 451 1016 451 1017 452 215 452 263 452 802 452 891 452 892 452 965 452 966 452 1017 453 215 453 263 453 801 453 802 453 892 453 893 453 966 453 967 453 1017 453 1018 454 215 454 263 454 801 454 893 454 894 454 967 454 1018 455 215 455 264 455 265 455 266 455 267 455 268 455 269 455 270 455 271 455 272 455 273 455 274 455 275 455 276 455 277 455 278 455 279 455 280 455 281 455 282 455 283 455 284 455 285 455 286 455 287 455 288 455 289 455 290 455 291 455 292 455 293 455 294 455 295 455 296 455 297 455 298 455 299 455 300 455 301 455 302 455 303 455 304 455 305 455 306 455 307 455 308 455 309 455 310 455 311 455 312 455 313 455 314 455 315 455 316 455 317 455 318 455 319 455 320 455 321 455 322 455 323 455 324 455 325 455 326 455 327 455 328 455 329 455 330 455 331 455 332 455 333 455 334 455 335 455 336 455 337 455 338 455 339 455 340 455 341 455 342 455 343 455 344 455 345 455 346 455 347 455 348 455 349 455 350 455 351 455 352 455 353 455 354 455 355 455 356 455 357 455 358 455 359 455 360 455 361 455 362 455 363 455 364 455 365 455 366 455 367 455 368 455 369 455 370 455 371 455 372 455 373 455 374 455 375 455 376 455 377 455 378 455 379 455 380 455 381 455 382 455 383 455 384 455 385 455 386 455 387 455 388 455 389 455 390 455 391 455 392 455 393 455 394 455 395 455 396 455 397 455 398 455 399 455 400 455 401 455 402 455 403 455 404 455 405 455 406 455 407 455 408 455 409 455 410 455 411 455 412 455 413 455 414 455 415 455 416 455 417 455 418 455 419 455 420 455 421 455 422 455 423 455 424 455 425 455 426 455 427 455 428 455 429 455 430 455 431 455 432 455 433 455 434 455 435 455 436 455 437 455 438 455 439 455 440 455 441 455 442 455 443 455 444 455 445 455 446 455 447 455 448 455 449 455 450 455 451 455 452 455 453 455 454 455 455 455 456 455 457 455 458 455 459 455 460 455 461 455 462 455 463 455 464 455 465 455 466 455 467 455 468 455 469 455 470 455 471 455 472 455 473 455 474 455 475 455 476 455 477 455 478 455 479 455 480 455 481 455 482 455 483 455 484 455 485 455 486 455 487 455 488 455 489 455 490 455 491 455 492 455 493 455 494 455 495 455 496 455 497 455 498 455 499 455 500 455 501 455 502 455 503 455 504 455 505 455 506 455 507 455 508 455 509 455 510 455 511 455 512 455 513 455 514 455 515 455 516 455 517 455 518 455 519 455 520 455 521 455 522 455 523 455 524 455 525 455 526 455 527 455 528 455 529 455 530 455 531 455 532 455 533 455 534 455 535 455 536 455 537 455 538 455 539 455 540 455 541 455 542 455 543 455 544 455 545 455 546 455 547 455 548 455 549 455 550 455 551 455 552 455 553 455 554 455 555 455 556 455 557 455 558 455 559 455 560 455 561 455 562 455 563 455 564 455 565 455 566 455 567 455 568 455 569 455 570 455 571 455 572 455 573 455 574 455 575 455 576 455 577 455 578 455 579 455 580 455 581 455 801 455 894 455 895 455 968 455 1019 456 215 456 582 456 800 456 895 456 896 456 968 456 969 456 1019 457 215 457 583 457 800 457 896 457 897 457 969 457 970 457 1019 458 215 458 582 458 799 458 897 458 898 458 970 458 1020 459 215 459 582 459 799 459 898 459 899 459 970 459 971 459 1020 460 215 460 582 460 799 460 899 460 900 460 971 460 972 460 1020 461 215 461 582 461 798 461 900 461 901 461 972 461 1021 462 215 462 582 462 798 462 901 462 902 462 972 462 973 462 1021 463 215 463 582 463 798 463 902 463 903 463 973 463 974 463 1021 464 215 464 583 464 797 464 903 464 904 464 974 464 1022 465 215 465 583 465 797 465 904 465 905 465 974 465 975 465 1022 466 215 466 582 466 797 466 844 466 845 466 846 466 905 466 906 466 975 466 1022 467 215 467 582 467 796 467 844 467 846 467 847 467 906 467 907 467 975 467 976 467 1023 468 215 468 582 468 796 468 843 468 847 468 848 468 907 468 908 468 976 468 1023 469 215 469 582 469 796 469 843 469 848 469 849 469 908 469 909 469 976 469 1023 470 215 470 583 470 796 470 842 470 843 470 849 470 850 470 909 470 910 470 977 470 1024 471 215 471 583 471 795 471 842 471 850 471 851 471 910 471 911 471 977 471 978 471 1024 472 215 472 582 472 795 472 841 472 851 472 852 472 911 472 912 472 978 472 1024 473 215 473 582 473 795 473 841 473 852 473 853 473 912 473 913 473 978 473 1024 474 215 474 582 474 795 474 841 474 853 474 854 474 913 474 914 474 979 474 1025 475 215 475 582 475 794 475 840 475 854 475 855 475 914 475 915 475 979 475 1025 476 215 476 582 476 794 476 840 476 855 476 856 476 915 476 916 476 979 476 1025 477 215 477 582 477 794 477 840 477 856 477 857 477 916 477 917 477 980 477 1025 478 215 478 582 478 794 478 839 478 857 478 858 478 917 478 918 478 980 478 1025 479 215 479 583 479 794 479 839 479 858 479 859 479 918 479 919 479 980 479 1026 480 215 480 583 480 793 480 839 480 859 480 860 480 919 480 920 480 981 480 1026 481 215 481 582 481 793 481 838 481 860 481 861 481 920 481 921 481 981 481 1026 482 215 482 582 482 793 482 838 482 861 482 862 482 921 482 922 482 981 482 1026 483 215 483 582 483 793 483 838 483 862 483 863 483 922 483 923 483 981 483 1026 484 215 484 582 484 793 484 838 484 863 484 864 484 923 484 924 484 982 484 1026 485 215 485 582 485 793 485 837 485 864 485 865 485 924 485 925 485 982 485 1026 486 215 486 582 486 792 486 837 486 865 486 866 486 925 486 926 486 982 486 1027 487 215 487 583 487 792 487 837 487 866 487 867 487 926 487 927 487 982 487 1027 488 215 488 583 488 792 488 837 488 867 488 868 488 927 488 928 488 982 488 1027 489 215 489 582 489 792 489 837 489 868 489 869 489 928 489 929 489 983 489 1027 490 215 490 582 490 792 490 836 490 869 490 870 490 929 490 930 490 983 490 1027 491 215 491 582 491 792 491 836 491 870 491 871 491 930 491 931 491 983 491 1027 492 215 492 582 492 792 492 836 492 871 492 872 492 931 492 932 492 983 492 1027 493 215 493 582 493 792 493 836 493 872 493 873 493 932 493 933 493 983 493 1027 494 215 494 582 494 792 494 836 494 873 494 874 494 933 494 934 494 983 494 1027 495 215 495 583 495 792 495 836 495 874 495 875 495 934 495 935 495 983 495 1027 496 215 496 583 496 792 496 836 496 875 496 876 496 935 496 936 496 983 496 1027 497 215 497 582 497 792 497 836 497 876 497 877 497 936 497 937 497 983 497 1027 498 215 498 582 498 792 498 836 498 877 498 878 498 937 498 938 498 983 498 1027 499 215 499 582 499 792 499 836 499 878 499 879 499 938 499 939 499 983 499 1027 500 215 500 582 500 792 500 836 500 879 500 880 500 939 500 940 500 983 500 1027 501 215 501 582 501 792 501 836 501 880 501 881 501 940 501 941 501 983 501 1027 502 215 502 582 502 792 502 836 502 881 502 882 502 941 502 942 502 983 502 1027 503 216 503 582 503 792 503 836 503 882 503 883 503 942 503 943 503 983 503 1027 504 217 504 218 504 219 504 220 504 221 504 222 504 223 504 224 504 225 504 226 504 227 504 228 504 229 504 230 504 231 504 232 504 233 504 234 504 235 504 236 504 237 504 238 504 239 504 240 504 241 504 242 504 243 504 244 504 245 504 246 504 247 504 248 504 249 504 250 504 251 504 252 504 253 504 254 504 255 504 256 504 257 504 258 504 259 504 260 504 261 504 262 504 263 504 264 504 265 504 266 504 267 504 268 504 269 504 270 504 271 504 272 504 273 504 274 504 275 504 276 504 277 504 278 504 279 504 280 504 281 504 282 504 283 504 284 504 285 504 286 504 287 504 288 504 289 504 290 504 291 504 292 504 293 504 294 504 295 504 296 504 297 504 298 504 299 504 300 504 301 504 302 504 303 504 304 504 305 504 306 504 307 504 308 504 309 504 310 504 311 504 312 504 313 504 314 504 315 504 316 504 317 504 318 504 319 504 320 504 321 504 322 504 323 504 324 504 325 504 326 504 327 504 328 504 329 504 330 504 331 504 332 504 333 504 334 504 335 504 336 504 337 504 338 504 339 504 340 504 341 504 342 504 343 504 344 504 345 504 346 504 347 504 348 504 349 504 350 504 351 504 352 504 353 504 354 504 355 504 356 504 357 504 358 504 359 504 360 504 361 504 362 504 363 504 364 504 365 504 366 504 367 504 368 504 369 504 370 504 371 504 372 504 373 504 374 504 375 504 376 504 377 504 378 504 379 504 380 504 381 504 382 504 383 504 384 504 385 504 386 504 387 504 388 504 389 504 390 504 391 504 392 504 393 504 394 504 395 504 396 504 397 504 398 504 399 504 400 504 401 504 402 504 403 504 404 504 405 504 406 504 407 504 408 504 409 504 410 504 411 504 412 504 413 504 414 504 415 504 416 504 417 504 418 504 419 504 420 504 421 504 422 504 423 504 424 504 425 504 426 504 427 504 428 504 429 504 430 504 431 504 432 504 433 504 434 504 435 504 436 504 437 504 438 504 439 504 440 504 441 504 442 504 443 504 444 504 445 504 446 504 447 504 448 504 449 504 450 504 451 504 452 504 453 504 454 504 455 504 456 504 457 504 458 504 459 504 460 504 461 504 462 504 463 504 464 504 465 504 466 504 467 504 468 504 469 504 470 504 471 504 472 504 473 504 474 504 475 504 476 504 477 504 478 504 479 504 480 504 481 504 482 504 483 504 484 504 485 504 486 504 487 504 488 504 489 504 490 504 491 504 492 504 493 504 494 504 495 504 496 504 497 504 498 504 499 504 500 504 501 504 502 504 503 504 504 504 505 504 506 504 507 504 508 504 509 504 510 504 511 504 512 504 513 504 514 504 515 504 516 504 517 504 518 504 519 504 520 504 521 504 522 504 523 504 524 504 525 504 526 504 527 504 528 504 529 504 530 504 531 504 532 504 533 504 534 504 535 504 536 504 537 504 538 504 539 504 540 504 541 504 542 504 543 504 544 504 545 504 546 504 547 504 548 504 549 504 550 504 551 504 552 504 553 504 554 504 555 504 556 504 557 504 558 504 559 504 560 504 561 504 562 504 563 504 564 504 565 504 566 504 567 504 568 504 569 504 570 504 571 504 572 504 573 504 574 504 575 504 576 504 577 504 578 504 579 504 580 504 581 504 792 504 836 504 883 504 884 504 943 504 944 504 983 504 1027 505 792 505 836 505 884 505 885 505 944 505 945 505 983 505 1027 506 792 506 836 506 885 506 886 506 945 506 946 506 983 506 1027 507 792 507 836 507 886 507 887 507 946 507 947 507 983 507 1027 508 792 508 836 508 887 508 888 508 947 508 948 508 983 508 1027 509 792 509 836 509 888 509 889 509 948 509 949 509 983 509 1027 510 792 510 836 510 889 510 890 510 949 510 950 510 983 510 1027 511 792 511 837 511 890 511 891 511 950 511 951 511 983 511 1027 512 792 512 837 512 891 512 892 512 951 512 952 512 982 512 1027 513 792 513 837 513 892 513 893 513 952 513 953 513 982 513 1027 514 792 514 837 514 893 514 894 514 953 514 954 514 982 514 1027 515 793 515 837 515 894 515 895 515 954 515 955 515 982 515 1027 516 793 516 837 516 895 516 896 516 955 516 956 516 982 516 1026 517 793 517 838 517 896 517 897 517 956 517 957 517 981 517 1026 518 793 518 838 518 897 518 898 518 957 518 958 518 981 518 1026 519 793 519 838 519 898 519 899 519 958 519 959 519 981 519 1026 520 793 520 838 520 899 520 900 520 959 520 960 520 981 520 1026 521 794 521 839 521 900 521 901 521 960 521 961 521 980 521 1026 522 794 522 839 522 901 522 902 522 961 522 962 522 980 522 1025 523 794 523 839 523 902 523 903 523 962 523 963 523 980 523 1025 524 794 524 840 524 903 524 904 524 963 524 964 524 979 524 1025 525 794 525 840 525 904 525 905 525 964 525 965 525 979 525 1025 526 794 526 840 526 905 526 906 526 965 526 966 526 979 526 1025 527 795 527 841 527 906 527 907 527 966 527 967 527 978 527 1024 528 795 528 841 528 907 528 908 528 967 528 968 528 978 528 1024 529 795 529 842 529 908 529 909 529 968 529 969 529 978 529 1024 530 796 530 842 530 909 530 910 530 969 530 970 530 977 530 1024 531 796 531 842 531 843 531 910 531 911 531 970 531 971 531 976 531 977 531 1023 532 796 532 843 532 911 532 912 532 971 532 972 532 976 532 1023 533 796 533 843 533 912 533 913 533 972 533 973 533 975 533 976 533 1023 534 797 534 844 534 913 534 914 534 973 534 974 534 975 534 1023 535 797 535 844 535 845 535 914 535 915 535 1022 536 797 536 845 536 915 536 916 536 1022 537 798 537 845 537 846 537 916 537 917 537 1022 538 798 538 846 538 847 538 917 538 918 538 1021 539 798 539 847 539 918 539 919 539 1021 540 799 540 847 540 848 540 919 540 920 540 1020 541 799 541 848 541 849 541 920 541 921 541 1020 542 799 542 849 542 921 542 922 542 1020 543 800 543 849 543 850 543 922 543 923 543 1019 544 800 544 850 544 851 544 923 544 924 544 1019 545 800 545 851 545 924 545 925 545 1019 546 801 546 851 546 852 546 925 546 926 546 1018 547 801 547 802 547 852 547 853 547 926 547 927 547 1018 548 802 548 853 548 854 548 927 548 928 548 1017 548 1018 549 802 549 803 549 854 549 855 549 928 549 929 549 1017 550 803 550 855 550 856 550 929 550 930 550 1016 550 1017 551 803 551 804 551 856 551 857 551 930 551 931 551 1016 552 804 552 857 552 858 552 931 552 932 552 1015 552 1016 553 804 553 805 553 858 553 859 553 932 553 933 553 1015 554 805 554 859 554 860 554 933 554 934 554 1014 554 1015 555 805 555 806 555 860 555 861 555 934 555 935 555 1014 556 806 556 861 556 862 556 935 556 936 556 1013 556 1014 557 806 557 807 557 862 557 863 557 936 557 937 557 1012 557 1013 558 807 558 863 558 864 558 865 558 937 558 938 558 1012 559 807 559 808 559 865 559 866 559 938 559 939 559 1011 559 1012 560 808 560 866 560 867 560 939 560 940 560 1011 561 809 561 867 561 868 561 869 561 940 561 941 561 1010 561 1011 562 809 562 810 562 869 562 870 562 871 562 941 562 942 562 1009 562 1010 563 810 563 871 563 872 563 942 563 943 563 1009 564 810 564 811 564 872 564 873 564 874 564 943 564 944 564 1008 564 1009 565 811 565 812 565 874 565 875 565 876 565 943 565 944 565 1008 566 812 566 877 566 878 566 942 566 943 566 1007 566 1008 567 812 567 813 567 878 567 879 567 880 567 939 567 940 567 941 567 1006 567 1007 568 813 568 814 568 881 568 882 568 937 568 938 568 1005 568 1006 569 814 569 883 569 884 569 885 569 934 569 935 569 936 569 1005 570 815 570 886 570 887 570 888 570 931 570 932 570 933 570 1004 570 1005 571 815 571 816 571 889 571 890 571 891 571 892 571 928 571 929 571 930 571 1003 571 1004 572 816 572 817 572 893 572 894 572 895 572 896 572 897 572 922 572 923 572 924 572 925 572 926 572 927 572 1002 572 1003 573 817 573 898 573 899 573 900 573 901 573 902 573 903 573 904 573 905 573 906 573 907 573 908 573 909 573 910 573 911 573 912 573 913 573 914 573 915 573 916 573 917 573 918 573 919 573 920 573 921 573 1002 574 818 574 1001 574 1002 575 818 575 819 575 1000 575 1001 576 819 576 820 576 999 576 1000 577 820 577 821 577 998 577 999 578 821 578 822 578 997 578 998 579 822 579 823 579 996 579 997 580 823 580 824 580 996 581 824 581 825 581 995 582 825 582 994 582 995 583 825 583 826 583 993 583 994 584 826 584 827 584 828 584 992 584 993 585 828 585 829 585 991 585 992 586 829 586 830 586 989 586 990 586 991 587 830 587 831 587 988 587 989 588 831 588 832 588 987 588 988 589 832 589 833 589 986 589 987 590 833 590 834 590 985 590 986 591 834 591 835 591 984 591 985 592 835 592 836 592 837 592 982 592 983 592 984 593 837 593 838 593 981 593 982 594 838 594 839 594 980 594 981 595 840 595 841 595 978 595 979 595 980 596 841 596 842 596 977 596 978 597 842 597 843 597 844 597 976 597 977 598 844 598 845 598 974 598 975 598 976 599 845 599 846 599 847 599 972 599 973 599 974 600 847 600 848 600 971 600 972 601 848 601 849 601 850 601 969 601 970 601 971 602 850 602 851 602 852 602 967 602 968 602 969 603 852 603 853 603 966 603 967 604 854 604 855 604 964 604 965 604 966 605 856 605 857 605 858 605 962 605 963 606 858 606 859 606 860 606 959 606 960 606 961 607 860 607 861 607 862 607 958 607 959 608 862 608 863 608 864 608 956 608 957 609 865 609 866 609 953 609 954 609 955 610 867 610 868 610 869 610 950 610 951 610 952 611 870 611 871 611 872 611 948 611 949 612 873 612 874 612 875 612 945 612 946 612 947 613 876 613 877 613 878 613 941 613 942 613 943 613 944 614 879 614 880 614 881 614 882 614 937 614 938 614 939 614 940 615 883 615 884 615 885 615 886 615 887 615 932 615 933 615 934 615 935 615 936 616 888 616 889 616 890 616 891 616 892 616 893 616 894 616 925 616 926 616 927 616 928 616 929 616 930 616 931 617 895 617 896 617 897 617 898 617 899 617 900 617 901 617 902 617 903 617 904 617 905 617 906 617 907 617 908 617 909 617 910 617 911 617 912 617 913 617 914 617 915 617 916 617 917 617 918 617 919 617 920 617 921 617 922 617 923 617 924 " style="fill:none;stroke:black;stroke-width:3"/></svg>