<?xml version="1.0" encoding="utf-8"?><svg version="1.0" id="Layer_1" width="1280" height="720" xmlns="http://www.w3.org/2000/svg" xml:space="preserve"><path fill="#3C2415" d="M218 404 217 405 216 405 213 408 213 409 212 410 212 501 213 502 213 503 216 506 582 506 584 504 584 498 585 497 585 494 584 493 584 490 585 489 585 486 584 485 584 482 585 481 585 478 584 477 584 473 585 472 585 469 584 468 584 467 585 466 585 463 584 462 584 459 585 458 585 456 582 453 581 453 580 452 266 452 265 451 266 450 266 447 265 446 265 442 266 441 266 438 265 437 265 434 266 433 266 430 265 429 265 425 266 424 266 421 265 420 265 417 266 416 266 413 265 412 265 407 263 405 262 405 261 404 M218 404 261 404 265 408 265 412 266 413 266 416 265 417 265 420 266 421 266 424 265 425 265 429 266 430 266 433 265 434 265 437 266 438 266 441 265 442 265 446 266 447 266 450 265 451 266 452 580 452 585 457 585 458 584 459 584 462 585 463 585 466 584 467 584 468 585 469 585 472 584 473 584 477 585 478 585 481 584 482 584 485 585 486 585 489 584 490 584 493 585 494 585 497 584 498 584 503 581 506 217 506 212 501 212 410 M219 409 217 411 217 500 218 501 579 501 579 498 580 497 580 494 579 493 579 490 580 489 580 486 579 485 579 482 580 481 580 478 579 477 579 473 580 472 580 469 579 468 579 467 580 466 580 463 579 462 579 458 578 457 264 457 260 453 260 451 261 450 261 447 260 446 260 442 261 441 261 438 260 437 260 434 261 433 261 430 260 429 260 425 261 424 261 421 260 420 260 417 261 416 261 413 260 412 260 410 259 409 M219 409 259 409 260 410 260 412 261 413 261 416 260 417 260 420 261 421 261 424 260 425 260 429 261 430 261 433 260 434 260 437 261 438 261 441 260 442 260 446 261 447 261 450 260 451 260 453 261 454 261 455 263 457 578 457 579 458 579 462 580 463 580 466 579 467 579 468 580 469 580 472 579 473 579 477 580 478 580 481 579 482 579 485 580 486 580 489 579 490 579 493 580 494 580 497 579 498 579 500 578 501 218 501 217 500 217 411 M897 380 896 381 891 381 890 382 885 382 884 383 882 383 881 384 878 384 877 385 874 385 873 386 872 386 871 387 869 387 868 388 866 388 865 389 864 389 863 390 861 390 860 391 859 391 858 392 857 392 856 393 855 393 854 394 853 394 852 395 851 395 849 397 848 397 847 398 846 398 844 400 843 400 841 402 840 402 838 404 837 404 834 407 833 407 816 424 816 425 813 428 813 429 810 432 810 433 808 435 808 436 807 437 807 438 805 440 805 441 804 442 804 443 803 444 803 445 802 446 802 447 801 448 801 449 800 450 800 451 799 452 799 453 798 454 798 456 797 457 797 458 796 459 796 461 795 462 795 464 794 465 794 467 793 468 793 471 792 472 792 475 791 476 791 480 790 481 790 486 789 487 789 513 790 514 790 519 791 520 791 525 792 526 792 528 793 529 793 532 794 533 794 535 795 536 795 538 796 539 796 541 797 542 797 544 798 545 798 546 799 547 799 548 800 549 800 550 801 551 801 552 802 553 802 554 803 555 803 556 804 557 804 558 805 559 805 560 807 562 807 563 808 564 808 565 810 567 810 568 813 571 813 572 816 575 816 576 823 583 823 584 825 586 826 586 834 594 835 594 837 596 838 596 841 599 842 599 844 601 845 601 847 603 848 603 849 604 850 604 851 605 852 605 853 606 854 606 855 607 856 607 857 608 858 608 859 609 860 609 861 610 863 610 864 611 865 611 866 612 868 612 869 613 871 613 872 614 874 614 875 615 877 615 878 616 881 616 882 617 886 617 887 618 893 618 894 619 925 619 926 618 932 618 933 617 937 617 938 616 941 616 942 615 945 615 946 614 948 614 949 613 950 613 951 612 953 612 954 611 956 611 957 610 958 610 959 609 960 609 961 608 962 608 963 607 964 607 965 606 967 606 969 604 970 604 971 603 972 603 974 601 975 601 976 600 977 600 980 597 981 597 984 594 985 594 991 588 992 588 997 583 997 582 1004 575 1004 574 1007 571 1007 570 1010 567 1010 566 1011 565 1011 564 1013 562 1013 561 1014 560 1014 559 1016 557 1016 556 1017 555 1017 554 1018 553 1018 552 1019 551 1019 550 1020 549 1020 547 1021 546 1021 544 1022 543 1022 541 1023 540 1023 539 1024 538 1024 536 1025 535 1025 532 1026 531 1026 528 1027 527 1027 523 1028 522 1028 517 1029 516 1029 485 1028 484 1028 478 1027 477 1027 473 1026 472 1026 469 1025 468 1025 466 1024 465 1024 463 1023 462 1023 460 1022 459 1022 457 1021 456 1021 454 1020 453 1020 452 1019 451 1019 450 1018 449 1018 448 1017 447 1017 446 1016 445 1016 444 1015 443 1015 442 1014 441 1014 440 1012 438 1012 437 1011 436 1011 435 1009 433 1009 432 1006 429 1006 428 1003 425 1003 424 986 407 985 407 982 404 981 404 978 401 977 401 975 399 974 399 973 398 972 398 970 396 969 396 968 395 967 395 966 394 965 394 964 393 963 393 962 392 961 392 960 391 959 391 958 390 956 390 955 389 954 389 953 388 951 388 950 387 949 387 948 386 946 386 945 385 943 385 942 384 939 384 938 383 935 383 934 382 930 382 929 381 923 381 922 380 M896 381 897 380 922 380 923 381 929 381 930 382 934 382 935 383 938 383 939 384 942 384 943 385 945 385 946 386 948 386 949 387 950 387 951 388 953 388 954 389 955 389 956 390 958 390 959 391 960 391 961 392 962 392 963 393 964 393 965 394 966 394 967 395 968 395 970 397 971 397 972 398 973 398 975 400 976 400 979 403 980 403 983 406 984 406 1004 426 1004 427 1007 430 1007 431 1010 434 1010 435 1012 437 1012 438 1013 439 1013 440 1015 442 1015 443 1016 444 1016 445 1017 446 1017 447 1018 448 1018 449 1019 450 1019 451 1020 452 1020 453 1021 454 1021 456 1022 457 1022 459 1023 460 1023 462 1024 463 1024 465 1025 466 1025 468 1026 469 1026 472 1027 473 1027 477 1028 478 1028 484 1029 485 1029 516 1028 517 1028 522 1027 523 1027 527 1026 528 1026 531 1025 532 1025 535 1024 536 1024 538 1023 539 1023 540 1022 541 1022 543 1021 544 1021 546 1020 547 1020 549 1019 550 1019 551 1018 552 1018 553 1017 554 1017 555 1015 557 1015 558 1014 559 1014 560 1012 562 1012 563 1011 564 1011 565 1008 568 1008 569 1005 572 1005 573 998 580 998 581 990 589 989 589 983 595 982 595 979 598 978 598 975 601 974 601 973 602 972 602 970 604 969 604 968 605 967 605 966 606 965 606 964 607 963 607 962 608 961 608 960 609 959 609 958 610 957 610 956 611 954 611 953 612 951 612 950 613 949 613 948 614 946 614 945 615 942 615 941 616 938 616 937 617 933 617 932 618 926 618 925 619 894 619 893 618 887 618 886 617 882 617 881 616 878 616 877 615 875 615 874 614 872 614 871 613 869 613 868 612 866 612 865 611 864 611 863 610 861 610 860 609 859 609 858 608 857 608 856 607 855 607 854 606 853 606 852 605 851 605 850 604 849 604 847 602 846 602 844 600 843 600 840 597 839 597 837 595 836 595 828 587 827 587 822 582 822 581 815 574 815 573 812 570 812 569 809 566 809 565 807 563 807 562 806 561 806 560 804 558 804 557 803 556 803 555 802 554 802 553 801 552 801 551 800 550 800 549 799 548 799 547 798 546 798 545 797 544 797 542 796 541 796 539 795 538 795 536 794 535 794 533 793 532 793 529 792 528 792 526 791 525 791 520 790 519 790 514 789 513 789 487 790 486 790 481 791 480 791 476 792 475 792 472 793 471 793 468 794 467 794 465 795 464 795 462 796 461 796 459 797 458 797 457 798 456 798 454 799 453 799 452 800 451 800 450 801 449 801 448 802 447 802 446 803 445 803 444 804 443 804 442 806 440 806 439 807 438 807 437 809 435 809 434 812 431 812 430 815 427 815 426 835 406 836 406 839 403 840 403 842 401 843 401 845 399 846 399 848 397 849 397 850 396 851 396 853 394 854 394 855 393 857 393 859 391 860 391 861 390 863 390 864 389 865 389 866 388 868 388 869 387 871 387 872 386 873 386 874 385 877 385 878 384 881 384 882 383 884 383 885 382 890 382 891 381 M897 385 896 386 891 386 890 387 885 387 884 388 882 388 881 389 878 389 877 390 874 390 873 391 872 391 871 392 869 392 868 393 866 393 865 394 864 394 863 395 862 395 861 396 860 396 859 397 858 397 857 398 856 398 855 399 854 399 853 400 852 400 850 402 849 402 848 403 847 403 845 405 844 405 842 407 841 407 839 409 838 409 835 412 834 412 821 425 821 426 818 429 818 430 815 433 815 434 813 436 813 437 812 438 812 439 810 441 810 442 809 443 809 444 808 445 808 446 807 447 807 448 806 449 806 450 805 451 805 452 804 453 804 454 803 455 803 456 802 457 802 458 801 459 801 461 800 462 800 464 799 465 799 467 798 468 798 471 797 472 797 475 796 476 796 480 795 481 795 486 794 487 794 513 795 514 795 519 796 520 796 525 797 526 797 528 798 529 798 532 799 533 799 535 800 536 800 538 801 539 801 541 802 542 802 544 803 545 803 546 805 548 805 549 806 550 806 551 807 552 807 553 808 554 808 555 809 556 809 557 810 558 810 559 811 560 811 561 813 563 813 564 815 566 815 567 817 569 817 570 820 573 820 574 835 589 836 589 839 592 840 592 842 594 843 594 845 596 846 596 848 598 849 598 850 599 851 599 853 601 854 601 855 602 857 602 858 603 859 603 860 604 861 604 862 605 863 605 864 606 865 606 866 607 868 607 869 608 871 608 872 609 874 609 875 610 877 610 878 611 881 611 882 612 886 612 887 613 893 613 894 614 925 614 926 613 932 613 933 612 937 612 938 611 941 611 942 610 945 610 946 609 948 609 949 608 950 608 951 607 953 607 954 606 956 606 957 605 958 605 960 603 962 603 963 602 964 602 965 601 966 601 968 599 969 599 970 598 971 598 973 596 974 596 975 595 976 595 979 592 980 592 983 589 984 589 990 583 991 583 993 581 993 580 999 574 999 573 1002 570 1002 569 1005 566 1005 565 1006 564 1006 563 1008 561 1008 560 1009 559 1009 558 1011 556 1011 555 1012 554 1012 553 1013 552 1013 551 1014 550 1014 549 1015 548 1015 547 1016 546 1016 544 1017 543 1017 541 1018 540 1018 539 1019 538 1019 536 1020 535 1020 532 1021 531 1021 528 1022 527 1022 523 1023 522 1023 517 1024 516 1024 485 1023 484 1023 478 1022 477 1022 473 1021 472 1021 469 1020 468 1020 466 1019 465 1019 463 1018 462 1018 460 1017 459 1017 457 1016 456 1016 454 1014 452 1014 451 1013 450 1013 449 1012 448 1012 447 1011 446 1011 445 1010 444 1010 443 1009 442 1009 441 1008 440 1008 439 1006 437 1006 436 1004 434 1004 433 1002 431 1002 430 999 427 999 426 985 412 984 412 981 409 980 409 977 406 976 406 974 404 973 404 972 403 971 403 969 401 968 401 967 400 966 400 964 398 963 398 962 397 960 397 959 396 958 396 957 395 956 395 955 394 954 394 953 393 951 393 950 392 949 392 948 391 946 391 945 390 943 390 942 389 939 389 938 388 935 388 934 387 930 387 929 386 923 386 922 385 M896 386 897 385 922 385 923 386 929 386 930 387 934 387 935 388 938 388 939 389 942 389 943 390 945 390 946 391 948 391 949 392 950 392 951 393 953 393 954 394 955 394 956 395 957 395 958 396 959 396 960 397 962 397 964 399 965 399 966 400 967 400 969 402 970 402 971 403 972 403 974 405 975 405 978 408 979 408 982 411 983 411 1000 428 1000 429 1003 432 1003 433 1005 435 1005 436 1007 438 1007 439 1009 441 1009 442 1010 443 1010 444 1011 445 1011 446 1012 447 1012 448 1013 449 1013 450 1014 451 1014 452 1015 453 1015 454 1016 455 1016 456 1017 457 1017 459 1018 460 1018 462 1019 463 1019 465 1020 466 1020 468 1021 469 1021 472 1022 473 1022 477 1023 478 1023 484 1024 485 1024 516 1023 517 1023 522 1022 523 1022 527 1021 528 1021 531 1020 532 1020 535 1019 536 1019 538 1018 539 1018 540 1017 541 1017 543 1016 544 1016 546 1015 547 1015 548 1014 549 1014 550 1013 551 1013 552 1012 553 1012 554 1010 556 1010 557 1009 558 1009 559 1007 561 1007 562 1006 563 1006 564 1003 567 1003 568 1000 571 1000 572 994 578 994 579 989 584 988 584 982 590 981 590 978 593 977 593 974 596 973 596 972 597 971 597 969 599 968 599 967 600 966 600 964 602 963 602 962 603 960 603 959 604 958 604 956 606 954 606 953 607 951 607 950 608 949 608 948 609 946 609 945 610 942 610 941 611 938 611 937 612 933 612 932 613 926 613 925 614 894 614 893 613 887 613 886 612 882 612 881 611 878 611 877 610 875 610 874 609 872 609 871 608 869 608 868 607 866 607 865 606 864 606 863 605 862 605 861 604 860 604 859 603 858 603 857 602 855 602 853 600 852 600 851 599 850 599 848 597 847 597 845 595 844 595 842 593 841 593 838 590 837 590 819 572 819 571 816 568 816 567 814 565 814 564 812 562 812 561 810 559 810 558 809 557 809 556 808 555 808 554 807 553 807 552 806 551 806 550 805 549 805 548 804 547 804 546 802 544 802 542 801 541 801 539 800 538 800 536 799 535 799 533 798 532 798 529 797 528 797 526 796 525 796 520 795 519 795 514 794 513 794 487 795 486 795 481 796 480 796 476 797 475 797 472 798 471 798 468 799 467 799 465 800 464 800 462 801 461 801 459 802 458 802 457 803 456 803 455 804 454 804 453 805 452 805 451 806 450 806 449 807 448 807 447 808 446 808 445 809 444 809 443 811 441 811 440 812 439 812 438 814 436 814 435 817 432 817 431 820 428 820 427 836 411 837 411 840 408 841 408 843 406 844 406 846 404 847 404 849 402 850 402 851 401 852 401 854 399 855 399 856 398 857 398 858 397 859 397 860 396 861 396 862 395 863 395 864 394 865 394 866 393 868 393 869 392 871 392 872 391 873 391 874 390 877 390 878 389 881 389 882 388 884 388 885 387 890 387 891 386 M845 463 844 464 843 464 842 465 842 466 841 467 841 468 840 469 840 470 839 471 839 472 838 473 838 475 837 476 837 478 836 479 836 481 835 482 835 485 834 486 834 490 833 491 833 509 834 510 834 515 835 516 835 519 836 520 836 522 837 523 837 525 838 526 838 527 839 528 839 530 840 531 840 532 841 533 841 534 842 535 842 536 843 537 843 538 845 540 845 541 847 543 847 544 849 546 849 547 862 560 863 560 866 563 867 563 868 564 869 564 871 566 872 566 873 567 875 567 877 569 879 569 880 570 881 570 882 571 884 571 885 572 887 572 888 573 891 573 892 574 896 574 897 575 922 575 923 574 928 574 929 573 931 573 932 572 934 572 935 571 937 571 938 570 939 570 940 569 942 569 943 568 944 568 946 566 946 563 847 464 846 464 M845 463 946 564 946 565 942 569 940 569 939 570 938 570 937 571 935 571 934 572 932 572 931 573 929 573 928 574 923 574 922 575 897 575 896 574 892 574 891 573 888 573 887 572 885 572 884 571 882 571 881 570 880 570 879 569 878 569 877 568 876 568 875 567 873 567 871 565 870 565 869 564 868 564 865 561 864 561 848 545 848 544 846 542 846 541 844 539 844 538 842 536 842 535 841 534 841 533 840 532 840 531 839 530 839 528 838 527 838 526 837 525 837 523 836 522 836 520 835 519 835 516 834 515 834 510 833 509 833 491 834 490 834 486 835 485 835 482 836 481 836 479 837 478 837 476 838 475 838 473 839 472 839 471 840 470 840 469 841 468 841 467 M845 470 844 471 844 472 843 473 843 475 842 476 842 478 841 479 841 481 840 482 840 485 839 486 839 490 838 491 838 509 839 510 839 515 840 516 840 519 841 520 841 522 842 523 842 525 843 526 843 527 844 528 844 529 845 530 845 532 846 533 846 534 848 536 848 537 850 539 850 540 852 542 852 543 854 545 854 546 863 555 864 555 867 558 868 558 869 559 870 559 872 561 873 561 874 562 875 562 876 563 877 563 878 564 879 564 880 565 881 565 882 566 884 566 885 567 887 567 888 568 891 568 892 569 896 569 897 570 922 570 923 569 928 569 929 568 931 568 932 567 934 567 935 566 937 566 938 565 939 565 938 565 937 566 935 566 934 567 932 567 931 568 929 568 928 569 923 569 922 570 897 570 896 569 892 569 891 568 888 568 887 567 885 567 884 566 882 566 881 565 880 565 879 564 878 564 877 563 876 563 875 562 874 562 872 560 871 560 870 559 869 559 866 556 865 556 853 544 853 543 851 541 851 540 849 538 849 537 847 535 847 534 845 532 845 530 844 529 844 528 843 527 843 526 842 525 842 523 841 522 841 520 840 519 840 516 839 515 839 510 838 509 838 491 839 490 839 486 840 485 840 482 841 481 841 479 842 478 842 476 843 475 843 473 846 470 939 563 940 563 847 470 M901 424 900 425 895 425 894 426 891 426 890 427 888 427 887 428 885 428 884 429 883 429 882 430 880 430 879 431 878 431 877 432 876 432 875 433 874 433 873 434 873 435 872 436 873 437 873 438 874 439 875 439 878 442 878 443 883 448 884 448 972 536 976 536 978 534 978 533 979 532 979 531 980 530 980 528 981 527 981 525 982 524 982 522 983 521 983 518 984 517 984 513 985 512 985 488 984 487 984 483 983 482 983 479 982 478 982 476 981 475 981 473 980 472 980 470 978 468 978 466 977 465 977 464 976 463 976 462 974 460 974 459 972 457 972 456 969 453 969 452 958 441 957 441 954 438 953 438 951 436 950 436 949 435 948 435 946 433 945 433 944 432 942 432 941 431 940 431 939 430 938 430 937 429 935 429 934 428 932 428 931 427 929 427 928 426 925 426 924 425 920 425 919 424 M900 425 901 424 919 424 920 425 924 425 925 426 928 426 929 427 931 427 932 428 934 428 935 429 937 429 938 430 939 430 940 431 941 431 942 432 944 432 946 434 947 434 948 435 949 435 951 437 952 437 955 440 956 440 970 454 970 455 973 458 973 459 975 461 975 462 977 464 977 465 978 466 978 468 979 469 979 470 980 471 980 472 981 473 981 475 982 476 982 478 983 479 983 482 984 483 984 487 985 488 985 512 984 513 984 517 983 518 983 521 982 522 982 524 981 525 981 527 980 528 980 530 979 531 979 532 975 536 973 536 886 449 885 449 877 441 877 440 876 440 872 436 876 432 877 432 878 431 879 431 880 430 882 430 883 429 884 429 885 428 887 428 888 427 890 427 891 426 894 426 895 425 M901 429 900 430 895 430 894 431 891 431 890 432 888 432 887 433 885 433 884 434 883 434 882 435 880 435 879 436 879 438 884 443 885 443 972 530 975 530 975 528 976 527 976 525 977 524 977 522 978 521 978 518 979 517 979 513 980 512 980 488 979 487 979 483 978 482 978 479 977 478 977 476 976 475 976 473 975 472 975 471 974 470 974 469 973 468 973 467 972 466 972 465 971 464 971 463 969 461 969 460 967 458 967 457 965 455 965 454 957 446 956 446 953 443 952 443 950 441 949 441 948 440 947 440 945 438 944 438 943 437 942 437 941 436 940 436 939 435 938 435 937 434 935 434 934 433 932 433 931 432 929 432 928 431 925 431 924 430 920 430 919 429 M900 430 901 429 919 429 920 430 924 430 925 431 928 431 929 432 931 432 932 433 934 433 935 434 937 434 939 436 941 436 942 437 943 437 945 439 946 439 947 440 948 440 950 442 951 442 954 445 955 445 966 456 966 457 968 459 968 460 970 462 970 463 972 465 972 466 973 467 973 468 974 469 974 470 975 471 975 472 976 473 976 475 977 476 977 478 978 479 978 482 979 483 979 487 980 488 980 512 979 513 979 517 978 518 978 521 977 522 977 524 976 525 976 527 975 528 975 529 974 530 973 530 887 444 886 444 879 437 879 436 880 435 882 435 883 434 884 434 885 433 887 433 888 432 890 432 891 431 894 431 895 430 M519 164 518 165 517 165 514 168 514 169 513 170 513 343 514 344 514 345 516 347 695 347 696 346 696 332 697 331 697 328 696 327 696 299 697 298 697 295 696 294 696 268 697 267 697 264 696 263 696 237 697 236 697 233 696 232 696 206 697 205 697 202 696 201 696 175 697 174 697 171 696 170 696 167 694 165 693 165 692 164 M519 164 692 164 696 168 696 170 697 171 697 174 696 175 696 201 697 202 697 205 696 206 696 232 697 233 697 236 696 237 696 263 697 264 697 267 696 268 696 294 697 295 697 298 696 299 696 327 697 328 697 331 696 332 696 345 694 347 517 347 513 343 513 170 M520 169 518 171 518 341 519 342 691 342 691 332 692 331 692 328 691 327 691 299 692 298 692 295 691 294 691 268 692 267 692 264 691 263 691 237 692 236 692 233 691 232 691 206 692 205 692 202 691 201 691 175 692 174 692 171 690 169 M520 169 690 169 692 171 692 174 691 175 691 201 692 202 692 205 691 206 691 232 692 233 692 236 691 237 691 263 692 264 692 267 691 268 691 294 692 295 692 298 691 299 691 327 692 328 692 331 691 332 691 341 690 342 519 342 518 341 518 171 M591 238 590 239 588 239 587 240 586 240 581 245 581 246 580 247 580 249 579 250 579 270 580 271 580 272 582 274 681 274 682 273 682 245 677 240 676 240 675 239 673 239 672 238 M590 239 591 238 672 238 673 239 675 239 682 246 682 272 680 274 583 274 579 270 579 250 580 249 580 247 588 239 M591 243 590 244 589 244 588 245 587 245 586 246 586 247 585 248 585 249 584 250 584 268 585 269 677 269 677 246 676 245 675 245 674 244 673 244 672 243 M590 244 591 243 672 243 673 244 674 244 677 247 677 268 676 269 585 269 584 268 584 250 585 249 585 248 589 244 M984 145 983 146 982 146 980 148 980 149 978 151 978 152 975 155 975 156 973 158 973 159 971 161 971 162 968 165 968 166 965 169 963 169 962 168 961 168 960 167 959 167 958 166 956 166 955 165 954 165 953 164 952 164 951 163 950 163 949 162 948 162 947 161 946 161 945 160 943 160 942 159 941 159 940 158 939 158 938 157 937 158 936 158 935 159 935 160 934 161 934 162 933 163 933 170 932 171 932 182 931 183 931 188 930 189 923 189 922 190 911 190 910 191 904 191 903 192 902 192 901 193 901 194 900 195 900 198 901 199 901 200 902 201 902 202 903 203 903 204 904 205 904 207 905 208 905 209 906 210 906 211 907 212 907 213 908 214 908 215 909 216 909 217 910 218 910 220 911 221 911 223 909 225 908 225 906 227 905 227 902 230 901 230 899 232 898 232 896 234 895 234 892 237 891 237 888 240 888 241 887 242 888 243 888 244 892 248 893 248 895 250 896 250 899 253 900 253 902 255 903 255 905 257 906 257 909 260 910 260 911 261 911 264 910 265 910 266 909 267 909 268 908 269 908 270 907 271 907 272 906 273 906 275 905 276 905 277 904 278 904 279 903 280 903 281 902 282 902 283 901 284 901 285 900 286 900 290 902 292 905 292 906 293 916 293 917 294 928 294 929 295 930 295 931 296 931 302 932 303 932 313 933 314 933 321 934 322 934 323 935 324 935 325 936 326 941 326 942 325 943 325 944 324 945 324 946 323 947 323 948 322 949 322 950 321 952 321 953 320 954 320 955 319 956 319 957 318 958 318 959 317 960 317 961 316 962 316 963 315 965 315 968 318 968 319 970 321 970 322 972 324 972 325 975 328 975 329 977 331 977 332 980 335 980 336 982 338 987 338 990 335 990 334 992 332 992 331 995 328 995 327 997 325 997 324 1000 321 1000 320 1002 318 1002 317 1004 315 1006 315 1007 316 1008 316 1009 317 1010 317 1011 318 1012 318 1013 319 1014 319 1015 320 1017 320 1018 321 1019 321 1020 322 1021 322 1022 323 1023 323 1024 324 1025 324 1026 325 1027 325 1028 326 1033 326 1035 324 1035 317 1036 316 1036 306 1037 305 1037 297 1039 295 1041 295 1042 294 1052 294 1053 293 1063 293 1064 292 1068 292 1069 291 1069 286 1068 285 1068 284 1067 283 1067 282 1066 281 1066 280 1065 279 1065 277 1064 276 1064 275 1063 274 1063 273 1062 272 1062 271 1061 270 1061 269 1060 268 1060 267 1059 266 1059 265 1058 264 1058 261 1059 260 1060 260 1062 258 1063 258 1066 255 1067 255 1069 253 1070 253 1072 251 1073 251 1076 248 1077 248 1079 246 1080 246 1081 245 1081 240 1077 236 1076 236 1074 234 1073 234 1071 232 1070 232 1067 229 1066 229 1064 227 1063 227 1061 225 1060 225 1058 223 1058 221 1059 220 1059 219 1060 218 1060 216 1061 215 1061 214 1062 213 1062 212 1063 211 1063 210 1064 209 1064 208 1065 207 1065 206 1066 205 1066 204 1067 203 1067 201 1068 200 1068 199 1069 198 1069 194 1067 192 1066 192 1065 191 1059 191 1058 190 1048 190 1047 189 1038 189 1037 188 1037 179 1036 178 1036 168 1035 167 1035 161 1032 158 1029 158 1028 159 1027 159 1026 160 1025 160 1024 161 1022 161 1021 162 1020 162 1019 163 1018 163 1017 164 1016 164 1015 165 1014 165 1013 166 1012 166 1011 167 1009 167 1008 168 1007 168 1006 169 1004 169 1001 166 1001 165 999 163 999 162 996 159 996 158 994 156 994 155 992 153 992 152 989 149 989 148 987 146 986 146 985 145 M984 145 985 145 990 150 990 151 993 154 993 155 995 157 995 158 997 160 997 161 1000 164 1000 165 1002 167 1002 168 1003 169 1006 169 1007 168 1008 168 1009 167 1011 167 1012 166 1013 166 1014 165 1015 165 1016 164 1017 164 1018 163 1019 163 1020 162 1021 162 1022 161 1024 161 1025 160 1026 160 1027 159 1028 159 1029 158 1031 158 1035 162 1035 167 1036 168 1036 178 1037 179 1037 188 1038 189 1047 189 1048 190 1058 190 1059 191 1065 191 1069 195 1069 198 1068 199 1068 200 1067 201 1067 203 1066 204 1066 205 1065 206 1065 207 1064 208 1064 209 1063 210 1063 211 1062 212 1062 213 1061 214 1061 215 1060 216 1060 218 1059 219 1059 220 1058 221 1058 224 1059 224 1061 226 1062 226 1064 228 1065 228 1068 231 1069 231 1071 233 1072 233 1074 235 1075 235 1081 241 1081 244 1078 247 1077 247 1075 249 1074 249 1071 252 1070 252 1068 254 1067 254 1065 256 1064 256 1061 259 1060 259 1058 261 1058 264 1059 265 1059 266 1060 267 1060 268 1061 269 1061 270 1062 271 1062 272 1063 273 1063 274 1064 275 1064 276 1065 277 1065 279 1066 280 1066 281 1067 282 1067 283 1068 284 1068 285 1069 286 1069 290 1067 292 1064 292 1063 293 1053 293 1052 294 1042 294 1041 295 1039 295 1037 297 1037 305 1036 306 1036 316 1035 317 1035 323 1032 326 1028 326 1027 325 1026 325 1025 324 1024 324 1023 323 1022 323 1021 322 1020 322 1019 321 1018 321 1017 320 1015 320 1014 319 1013 319 1012 318 1011 318 1010 317 1009 317 1008 316 1007 316 1006 315 1003 315 1003 316 1001 318 1001 319 998 322 998 323 996 325 996 326 993 329 993 330 991 332 991 333 986 338 983 338 979 334 979 333 976 330 976 329 974 327 974 326 971 323 971 322 969 320 969 319 967 317 967 316 966 315 963 315 962 316 961 316 960 317 959 317 958 318 957 318 956 319 955 319 954 320 953 320 952 321 950 321 949 322 948 322 947 323 946 323 945 324 944 324 943 325 942 325 941 326 937 326 934 323 934 322 933 321 933 314 932 313 932 303 931 302 931 296 930 295 929 295 928 294 917 294 916 293 906 293 905 292 903 292 900 289 900 286 901 285 901 284 902 283 902 282 903 281 903 280 904 279 904 278 905 277 905 276 906 275 906 273 907 272 907 271 908 270 908 269 909 268 909 267 910 266 910 265 911 264 911 261 908 258 907 258 905 256 904 256 902 254 901 254 898 251 897 251 895 249 894 249 887 242 893 236 894 236 897 233 898 233 900 231 901 231 903 229 904 229 907 226 908 226 910 224 911 224 911 221 910 220 910 218 909 217 909 216 908 215 908 214 907 213 907 212 906 211 906 210 905 209 905 208 904 207 904 205 903 204 903 203 902 202 902 201 901 200 901 199 900 198 900 195 904 191 910 191 911 190 922 190 923 189 931 189 931 183 932 182 932 171 933 170 933 163 934 162 934 161 938 157 939 158 940 158 941 159 942 159 943 160 945 160 946 161 947 161 948 162 949 162 950 163 951 163 952 164 953 164 954 165 955 165 956 166 958 166 959 167 960 167 961 168 962 168 963 169 966 169 967 168 967 167 970 164 970 163 972 161 972 160 974 158 974 157 977 154 977 153 979 151 979 150 M964 307 963 308 962 308 961 309 960 309 959 310 958 310 957 311 956 311 955 312 954 312 953 313 951 313 950 314 949 314 948 315 947 315 946 316 945 316 944 317 943 317 942 318 943 317 944 317 945 316 946 316 947 315 948 315 949 314 950 314 951 313 953 313 954 312 955 312 956 311 957 311 958 310 959 310 960 309 961 309 962 308 963 308 964 307 967 307 971 311 971 312 973 314 973 315 976 318 976 319 978 321 978 322 980 324 980 325 983 328 983 329 986 329 987 328 987 327 989 325 989 324 992 321 992 320 994 318 994 317 996 315 996 314 1003 307 1005 307 1006 308 1007 308 1008 309 1009 309 1010 310 1011 310 1012 311 1013 311 1014 312 1016 312 1017 313 1018 313 1019 314 1020 314 1021 315 1022 315 1023 316 1024 316 1025 317 1026 317 1027 318 1026 317 1025 317 1024 316 1023 316 1022 315 1021 315 1020 314 1019 314 1018 313 1017 313 1016 312 1014 312 1013 311 1012 311 1011 310 1010 310 1009 309 1008 309 1007 308 1006 308 1005 307 1003 307 1002 308 1001 308 997 312 997 313 995 315 995 316 993 318 993 319 990 322 990 323 988 325 988 326 985 329 984 329 982 327 982 326 979 323 979 322 977 320 977 319 975 317 975 316 972 313 972 312 970 310 970 309 969 308 968 308 967 307 M1053 286 1052 287 1042 287 1041 288 1035 288 1034 289 1033 289 1032 290 1032 291 1031 292 1031 294 1030 295 1030 305 1029 306 1029 316 1029 306 1030 305 1030 295 1031 294 1031 292 1035 288 1041 288 1042 287 1052 287 1053 286 1059 286 M910 286 916 286 917 287 928 287 929 288 934 288 938 292 938 302 939 303 939 313 940 314 940 318 940 314 939 313 939 303 938 302 938 292 937 291 937 290 936 289 935 289 934 288 929 288 928 287 917 287 916 286 M1072 243 1071 244 1070 244 1068 246 1067 246 1065 248 1064 248 1061 251 1060 251 1058 253 1057 253 1054 256 1053 256 1051 258 1051 259 1050 260 1050 263 1051 264 1051 265 1052 266 1052 267 1053 268 1053 269 1054 270 1054 271 1055 272 1055 273 1056 274 1056 275 1057 276 1057 278 1058 279 1058 280 1059 281 1059 282 1060 283 1060 284 1061 285 1060 284 1060 283 1059 282 1059 281 1058 280 1058 279 1057 278 1057 276 1056 275 1056 274 1055 273 1055 272 1054 271 1054 270 1053 269 1053 268 1052 267 1052 266 1051 265 1051 264 1050 263 1050 260 1055 255 1056 255 1059 252 1060 252 1062 250 1063 250 1066 247 1067 247 1069 245 1070 245 1072 243 1073 243 M984 155 981 158 981 159 979 161 979 162 976 165 976 166 974 168 974 169 972 171 972 172 967 177 964 177 963 176 962 176 961 175 960 175 959 174 957 174 956 173 955 173 954 172 953 172 952 171 951 171 950 170 949 170 948 169 947 169 946 168 944 168 943 167 941 167 940 168 940 170 939 171 939 182 938 183 938 192 935 195 934 195 933 196 923 196 922 197 911 197 910 198 909 198 909 201 910 202 910 203 911 204 911 205 912 206 912 208 913 209 913 210 914 211 914 212 915 213 915 214 916 215 916 216 917 217 917 218 918 219 918 221 919 222 919 225 915 229 914 229 912 231 911 231 909 233 908 233 905 236 904 236 902 238 901 238 899 240 898 240 897 241 896 241 895 242 896 243 897 243 899 245 900 245 902 247 903 247 905 249 906 249 909 252 910 252 912 254 913 254 919 260 919 263 918 264 918 265 917 266 917 267 916 268 916 269 915 270 915 271 914 272 914 274 913 275 913 276 912 277 912 278 911 279 911 280 910 281 910 282 909 283 909 284 908 285 908 286 908 285 909 284 909 283 910 282 910 281 911 280 911 279 912 278 912 277 913 276 913 275 914 274 914 272 915 271 915 270 916 269 916 268 917 267 917 266 918 265 918 264 919 263 919 260 918 259 918 258 915 255 914 255 912 253 911 253 908 250 907 250 905 248 904 248 902 246 901 246 898 243 896 243 895 242 896 241 898 241 900 239 901 239 903 237 904 237 906 235 907 235 910 232 911 232 913 230 914 230 916 228 917 228 918 227 918 226 919 225 919 222 918 221 918 219 917 218 917 217 916 216 916 215 915 214 915 213 914 212 914 211 913 210 913 209 912 208 912 206 911 205 911 204 910 203 910 202 909 201 909 199 911 197 922 197 923 196 933 196 934 195 936 195 937 194 937 193 938 192 938 183 939 182 939 171 940 170 940 168 941 167 943 167 944 168 946 168 947 169 948 169 949 170 950 170 951 171 952 171 953 172 954 172 955 173 956 173 957 174 959 174 960 175 961 175 962 176 963 176 964 177 968 177 971 174 971 173 973 171 973 170 975 168 975 167 978 164 978 163 980 161 980 160 983 157 983 156 984 155 985 155 987 157 987 158 989 160 989 161 992 164 992 165 994 167 994 168 997 171 997 172 999 174 999 175 1000 176 1001 176 1002 177 1004 177 1005 176 1007 176 1008 175 1010 175 1011 174 1012 174 1013 173 1014 173 1015 172 1016 172 1017 171 1018 171 1019 170 1020 170 1021 169 1023 169 1024 168 1025 168 1026 167 1028 167 1029 168 1029 178 1030 179 1030 189 1031 190 1031 192 1032 193 1032 194 1033 195 1035 195 1036 196 1047 196 1048 197 1058 197 1060 199 1060 201 1059 202 1059 204 1058 205 1058 206 1057 207 1057 208 1056 209 1056 210 1055 211 1055 212 1054 213 1054 214 1053 215 1053 216 1052 217 1052 219 1051 220 1051 221 1050 222 1050 224 1051 225 1051 226 1054 229 1055 229 1058 232 1059 232 1061 234 1062 234 1064 236 1065 236 1068 239 1069 239 1071 241 1073 241 1072 241 1071 240 1070 240 1067 237 1066 237 1064 235 1063 235 1061 233 1060 233 1057 230 1056 230 1050 224 1050 222 1051 221 1051 220 1052 219 1052 217 1053 216 1053 215 1054 214 1054 213 1055 212 1055 211 1056 210 1056 209 1057 208 1057 207 1058 206 1058 205 1059 204 1059 202 1060 201 1060 198 1059 198 1058 197 1048 197 1047 196 1036 196 1035 195 1034 195 1031 192 1031 190 1030 189 1030 179 1029 178 1029 168 1028 167 1026 167 1025 168 1024 168 1023 169 1021 169 1020 170 1019 170 1018 171 1017 171 1016 172 1015 172 1014 173 1013 173 1012 174 1011 174 1010 175 1008 175 1007 176 1005 176 1004 177 1002 177 998 173 998 172 996 170 996 169 993 166 993 165 991 163 991 162 988 159 988 158 986 156 986 155 M215 68 214 69 209 69 208 70 203 70 202 71 199 71 198 72 195 72 194 73 192 73 191 74 189 74 188 75 186 75 185 76 183 76 182 77 181 77 180 78 178 78 177 79 176 79 175 80 174 80 173 81 172 81 171 82 170 82 169 83 168 83 167 84 166 84 165 85 164 85 162 87 161 87 160 88 159 88 157 90 156 90 153 93 152 93 149 96 148 96 141 103 140 103 134 109 134 110 128 116 128 117 125 120 125 121 122 124 122 125 120 127 120 128 119 129 119 130 117 132 117 133 116 134 116 135 115 136 115 137 114 138 114 139 113 140 113 141 112 142 112 143 111 144 111 146 110 147 110 148 109 149 109 150 108 151 108 153 107 154 107 156 106 157 106 158 105 159 105 162 104 163 104 166 103 167 103 170 102 171 102 175 101 176 101 182 100 183 100 209 101 210 101 216 102 217 102 222 103 223 103 225 104 226 104 229 105 230 105 233 106 234 106 236 107 237 107 238 108 239 108 241 109 242 109 244 110 245 110 246 111 247 111 248 112 249 112 250 113 251 113 252 114 253 114 255 115 256 115 257 117 259 117 260 118 261 118 262 120 264 120 265 122 267 122 268 124 270 124 271 127 274 127 275 132 280 132 281 143 292 144 292 149 297 150 297 153 300 154 300 157 303 158 303 159 304 160 304 162 306 163 306 164 307 165 307 167 309 169 309 171 311 173 311 174 312 175 312 176 313 177 313 178 314 180 314 181 315 182 315 183 316 185 316 186 317 188 317 189 318 191 318 192 319 195 319 196 320 199 320 200 321 204 321 205 322 211 322 212 323 245 323 246 322 251 322 252 321 256 321 257 320 260 320 261 319 264 319 265 318 267 318 268 317 270 317 271 316 273 316 274 315 275 315 276 314 278 314 279 313 280 313 281 312 283 312 284 311 285 311 287 309 289 309 290 308 291 308 293 306 294 306 296 304 297 304 298 303 299 303 302 300 303 300 306 297 307 297 311 293 312 293 325 280 325 279 329 275 329 274 332 271 332 270 335 267 335 266 336 265 336 264 338 262 338 261 339 260 339 259 341 257 341 255 343 253 343 252 344 251 344 249 345 248 345 247 346 246 346 244 347 243 347 242 348 241 348 239 349 238 349 236 350 235 350 233 351 232 351 229 352 228 352 225 353 224 353 220 354 219 354 213 355 212 355 180 354 179 354 174 353 173 353 168 352 167 352 165 351 164 351 161 350 160 350 157 349 156 349 154 348 153 348 152 347 151 347 149 346 148 346 146 345 145 345 144 344 143 344 142 343 141 343 140 342 139 342 138 341 137 341 135 339 133 339 132 337 130 337 129 336 128 336 127 334 125 334 124 332 122 332 121 328 117 328 116 323 111 323 110 314 101 313 101 308 96 307 96 304 93 303 93 300 90 299 90 297 88 296 88 295 87 294 87 292 85 291 85 290 84 289 84 288 83 287 83 286 82 285 82 284 81 283 81 282 80 281 80 280 79 279 79 278 78 276 78 275 77 274 77 273 76 271 76 270 75 268 75 267 74 266 74 265 73 262 73 261 72 258 72 257 71 254 71 253 70 248 70 247 69 242 69 241 68 M214 69 215 68 241 68 242 69 247 69 248 70 253 70 254 71 257 71 258 72 261 72 262 73 265 73 266 74 267 74 268 75 270 75 271 76 273 76 274 77 275 77 276 78 278 78 279 79 280 79 281 80 282 80 283 81 284 81 285 82 286 82 287 83 288 83 289 84 290 84 292 86 293 86 294 87 295 87 297 89 298 89 301 92 302 92 305 95 306 95 311 100 312 100 324 112 324 113 329 118 329 119 333 123 333 124 335 126 335 127 337 129 337 130 338 131 338 132 340 134 340 135 341 136 341 137 342 138 342 139 343 140 343 141 344 142 344 143 345 144 345 145 346 146 346 148 347 149 347 151 348 152 348 153 349 154 349 156 350 157 350 160 351 161 351 164 352 165 352 167 353 168 353 173 354 174 354 179 355 180 355 212 354 213 354 219 353 220 353 224 352 225 352 228 351 229 351 232 350 233 350 235 349 236 349 238 348 239 348 241 347 242 347 243 346 244 346 246 345 247 345 248 344 249 344 251 342 253 342 254 341 255 341 256 340 257 340 258 339 259 339 260 337 262 337 263 336 264 336 265 333 268 333 269 330 272 330 273 326 277 326 278 310 294 309 294 305 298 304 298 301 301 300 301 297 304 296 304 295 305 294 305 292 307 291 307 289 309 287 309 286 310 285 310 283 312 281 312 280 313 279 313 278 314 276 314 275 315 274 315 273 316 271 316 270 317 268 317 267 318 265 318 264 319 261 319 260 320 257 320 256 321 252 321 251 322 246 322 245 323 212 323 211 322 205 322 204 321 200 321 199 320 196 320 195 319 192 319 191 318 189 318 188 317 186 317 185 316 183 316 182 315 181 315 180 314 178 314 177 313 176 313 175 312 174 312 173 311 172 311 171 310 170 310 169 309 168 309 167 308 166 308 165 307 164 307 162 305 161 305 160 304 159 304 156 301 155 301 152 298 151 298 146 293 145 293 131 279 131 278 126 273 126 272 123 269 123 268 121 266 121 265 119 263 119 262 117 260 117 259 116 258 116 257 114 255 114 253 113 252 113 251 112 250 112 249 111 248 111 247 110 246 110 245 109 244 109 242 108 241 108 239 107 238 107 237 106 236 106 234 105 233 105 230 104 229 104 226 103 225 103 223 102 222 102 217 101 216 101 210 100 209 100 183 101 182 101 176 102 175 102 171 103 170 103 167 104 166 104 163 105 162 105 159 106 158 106 157 107 156 107 154 108 153 108 151 109 150 109 149 110 148 110 147 111 146 111 144 112 143 112 142 113 141 113 140 114 139 114 138 115 137 115 136 116 135 116 134 118 132 118 131 119 130 119 129 121 127 121 126 124 123 124 122 127 119 127 118 133 112 133 111 142 102 143 102 150 95 151 95 154 92 155 92 158 89 159 89 161 87 162 87 163 86 164 86 166 84 167 84 168 83 169 83 170 82 171 82 172 81 173 81 174 80 175 80 176 79 177 79 178 78 180 78 181 77 182 77 183 76 185 76 186 75 188 75 189 74 191 74 192 73 194 73 195 72 198 72 199 71 202 71 203 70 208 70 209 69 M215 73 214 74 209 74 208 75 203 75 202 76 199 76 198 77 195 77 194 78 192 78 191 79 189 79 188 80 186 80 185 81 183 81 182 82 181 82 180 83 179 83 178 84 177 84 176 85 174 85 173 86 172 86 170 88 169 88 168 89 167 89 166 90 165 90 163 92 162 92 161 93 160 93 158 95 157 95 154 98 153 98 150 101 149 101 143 107 142 107 139 110 139 111 133 117 133 118 130 121 130 122 127 125 127 126 125 128 125 129 124 130 124 131 122 133 122 134 121 135 121 136 119 138 119 139 118 140 118 142 117 143 117 144 116 145 116 146 115 147 115 148 114 149 114 150 113 151 113 153 112 154 112 156 111 157 111 158 110 159 110 162 109 163 109 166 108 167 108 170 107 171 107 175 106 176 106 182 105 183 105 209 106 210 106 216 107 217 107 222 108 223 108 225 109 226 109 229 110 230 110 233 111 234 111 236 112 237 112 238 113 239 113 241 114 242 114 244 115 245 115 246 116 247 116 248 118 250 118 251 119 252 119 254 120 255 120 256 122 258 122 259 123 260 123 261 125 263 125 264 127 266 127 267 129 269 129 270 132 273 132 274 137 279 137 280 144 287 145 287 150 292 151 292 154 295 155 295 158 298 159 298 160 299 161 299 163 301 164 301 165 302 166 302 168 304 169 304 170 305 171 305 172 306 173 306 174 307 176 307 178 309 180 309 181 310 182 310 183 311 185 311 186 312 188 312 189 313 191 313 192 314 195 314 196 315 199 315 200 316 204 316 205 317 211 317 212 318 245 318 246 317 251 317 252 316 256 316 257 315 260 315 261 314 264 314 265 313 267 313 268 312 270 312 271 311 273 311 274 310 275 310 276 309 278 309 279 308 280 308 281 307 282 307 283 306 284 306 285 305 286 305 287 304 288 304 289 303 290 303 292 301 293 301 295 299 296 299 297 298 298 298 300 296 301 296 305 292 306 292 310 288 311 288 320 279 320 278 324 274 324 273 328 269 328 268 330 266 330 265 331 264 331 263 333 261 333 260 335 258 335 257 336 256 336 255 337 254 337 253 338 252 338 251 339 250 339 248 341 246 341 244 342 243 342 242 343 241 343 239 344 238 344 236 345 235 345 233 346 232 346 229 347 228 347 225 348 224 348 220 349 219 349 213 350 212 350 180 349 179 349 174 348 173 348 168 347 167 347 165 346 164 346 161 345 160 345 157 344 156 344 154 343 153 343 152 342 151 342 149 341 148 341 146 340 145 340 144 338 142 338 141 337 140 337 139 336 138 336 136 334 134 334 133 333 132 333 131 331 129 331 128 329 126 329 125 327 123 327 122 324 119 324 118 318 112 318 111 313 106 312 106 307 101 306 101 302 97 301 97 299 95 298 95 296 93 295 93 294 92 293 92 291 90 290 90 289 89 288 89 287 88 286 88 284 86 283 86 282 85 280 85 279 84 278 84 277 83 276 83 275 82 274 82 273 81 271 81 270 80 268 80 267 79 266 79 265 78 262 78 261 77 258 77 257 76 254 76 253 75 248 75 247 74 242 74 241 73 M214 74 215 73 241 73 242 74 247 74 248 75 253 75 254 76 257 76 258 77 261 77 262 78 265 78 266 79 267 79 268 80 270 80 271 81 273 81 274 82 275 82 276 83 277 83 278 84 279 84 280 85 282 85 284 87 285 87 286 88 287 88 288 89 289 89 291 91 292 91 293 92 294 92 296 94 297 94 299 96 300 96 304 100 305 100 310 105 311 105 319 113 319 114 325 120 325 121 328 124 328 125 330 127 330 128 332 130 332 131 334 133 334 134 335 135 335 136 336 137 336 138 337 139 337 140 338 141 338 142 339 143 339 144 341 146 341 148 342 149 342 151 343 152 343 153 344 154 344 156 345 157 345 160 346 161 346 164 347 165 347 167 348 168 348 173 349 174 349 179 350 180 350 212 349 213 349 219 348 220 348 224 347 225 347 228 346 229 346 232 345 233 345 235 344 236 344 238 343 239 343 241 342 242 342 243 341 244 341 245 340 246 340 247 339 248 339 250 338 251 338 252 337 253 337 254 336 255 336 256 334 258 334 259 332 261 332 262 331 263 331 264 329 266 329 267 325 271 325 272 321 276 321 277 309 289 308 289 304 293 303 293 299 297 298 297 296 299 295 299 294 300 293 300 291 302 290 302 288 304 287 304 286 305 285 305 284 306 283 306 282 307 281 307 280 308 279 308 278 309 276 309 275 310 274 310 273 311 271 311 270 312 268 312 267 313 265 313 264 314 261 314 260 315 257 315 256 316 252 316 251 317 246 317 245 318 212 318 211 317 205 317 204 316 200 316 199 315 196 315 195 314 192 314 191 313 189 313 188 312 186 312 185 311 183 311 182 310 181 310 180 309 179 309 178 308 177 308 176 307 174 307 173 306 172 306 171 305 170 305 168 303 167 303 166 302 165 302 163 300 162 300 161 299 160 299 157 296 156 296 153 293 152 293 147 288 146 288 136 278 136 277 131 272 131 271 128 268 128 267 126 265 126 264 124 262 124 261 122 259 122 258 121 257 121 256 119 254 119 252 118 251 118 250 117 249 117 248 115 246 115 245 114 244 114 242 113 241 113 239 112 238 112 237 111 236 111 234 110 233 110 230 109 229 109 226 108 225 108 223 107 222 107 217 106 216 106 210 105 209 105 183 106 182 106 176 107 175 107 171 108 170 108 167 109 166 109 163 110 162 110 159 111 158 111 157 112 156 112 154 113 153 113 151 114 150 114 149 115 148 115 147 116 146 116 145 117 144 117 143 118 142 118 140 120 138 120 137 121 136 121 135 123 133 123 132 124 131 124 130 126 128 126 127 129 124 129 123 132 120 132 119 138 113 138 112 144 106 145 106 151 100 152 100 155 97 156 97 159 94 160 94 162 92 163 92 164 91 165 91 167 89 168 89 169 88 170 88 171 87 172 87 174 85 176 85 177 84 178 84 179 83 180 83 181 82 182 82 183 81 185 81 186 80 188 80 189 79 191 79 192 78 194 78 195 77 198 77 199 76 202 76 203 75 208 75 209 74 M785 23 756 52 755 52 754 53 754 57 755 58 767 58 768 59 768 75 767 76 751 76 750 75 750 63 749 62 748 62 747 61 746 62 745 62 744 63 744 64 715 93 715 94 714 95 715 96 715 97 745 127 749 127 750 126 750 114 752 112 767 112 768 113 768 129 767 130 757 130 756 131 755 131 754 132 754 133 753 134 754 135 754 136 784 166 789 166 819 136 819 132 818 131 817 131 816 130 805 130 804 129 804 114 806 112 821 112 822 113 822 124 823 125 823 126 824 127 828 127 858 97 858 93 829 64 829 63 828 62 827 62 826 61 825 62 824 62 823 63 823 64 822 65 822 75 821 76 805 76 804 75 804 60 806 58 818 58 819 57 819 53 818 52 817 52 788 23 M786 23 787 23 815 51 816 51 819 54 819 56 817 58 806 58 804 60 804 75 805 76 822 76 822 65 826 61 830 65 830 66 858 94 858 96 827 127 825 127 822 124 822 113 821 112 806 112 804 114 804 129 805 130 816 130 819 133 819 135 788 166 785 166 753 134 757 130 768 130 768 113 767 112 752 112 750 114 750 125 748 127 746 127 714 95 743 66 743 65 747 61 750 64 750 75 751 76 768 76 768 59 767 58 756 58 754 56 754 54 757 51 758 51 M805 107 804 108 803 108 800 111 800 112 799 113 799 131 800 132 800 133 802 135 812 135 803 135 799 131 799 113 805 107 822 107 823 108 824 108 827 111 827 120 827 110 826 109 825 109 824 108 823 108 822 107 M785 29 762 52 762 53 763 52 764 53 769 53 773 57 773 77 769 81 749 81 745 77 745 72 744 71 745 70 744 70 720 94 720 96 744 120 744 119 745 118 745 112 749 108 750 108 751 107 768 107 773 112 773 132 770 135 761 135 761 137 785 161 788 161 812 137 811 137 787 161 786 161 761 136 762 135 771 135 772 134 772 133 773 132 773 111 770 108 769 108 768 107 751 107 750 108 749 108 748 109 747 109 746 110 746 111 745 112 745 118 744 119 720 95 744 71 745 72 745 77 746 78 746 79 747 80 748 80 749 81 770 81 773 78 773 57 772 56 772 55 771 54 770 54 769 53 764 53 763 52 786 29 787 29 810 52 809 53 804 53 803 54 802 54 800 56 800 57 799 58 799 76 800 77 800 78 803 81 824 81 825 80 826 80 827 79 827 71 828 70 853 95 829 119 829 120 853 96 853 94 829 70 827 70 827 78 824 81 804 81 799 76 799 58 804 53 809 53 810 52 811 52 788 29 "/></svg>