<?xml version="1.0" encoding="utf-8"?><svg version="1.0" id="Layer_1" width="1280" height="720" xmlns="http://www.w3.org/2000/svg" xml:space="preserve"><path d="M214 71 213 72 208 72 207 73 202 73 201 74 198 74 197 75 194 75 193 76 191 76 190 77 188 77 187 78 185 78 184 79 182 79 181 80 180 80 179 81 177 81 176 82 175 82 174 83 173 83 172 84 171 84 170 85 169 85 168 86 167 86 166 87 165 87 163 89 162 89 161 90 160 90 158 92 157 92 154 95 153 95 150 98 149 98 142 105 141 105 136 110 136 111 130 117 130 118 127 121 127 122 124 125 124 126 122 128 122 129 121 130 121 131 119 133 119 134 118 135 118 136 117 137 117 138 116 139 116 140 115 141 115 142 114 143 114 145 113 146 113 147 112 148 112 149 111 150 111 152 110 153 110 155 109 156 109 157 108 158 108 161 107 162 107 165 106 166 106 169 105 170 105 174 104 175 104 181 103 182 103 210 104 211 104 217 105 218 105 223 106 224 106 226 107 227 107 230 108 231 108 234 109 235 109 237 110 238 110 239 111 240 111 242 112 243 112 245 113 246 113 247 114 248 114 249 115 250 115 251 116 252 116 253 117 254 117 256 119 258 119 259 120 260 120 261 122 263 122 264 124 266 124 267 126 269 126 270 129 273 129 274 134 279 134 280 144 290 145 290 150 295 151 295 154 298 155 298 158 301 159 301 160 302 161 302 163 304 164 304 165 305 166 305 168 307 170 307 172 309 174 309 175 310 176 310 177 311 178 311 179 312 181 312 182 313 183 313 184 314 186 314 187 315 189 315 190 316 192 316 193 317 196 317 197 318 200 318 201 319 205 319 206 320 212 320 213 321 244 321 245 320 250 320 251 319 255 319 256 318 259 318 260 317 263 317 264 316 266 316 267 315 269 315 270 314 272 314 273 313 274 313 275 312 277 312 278 311 279 311 280 310 282 310 283 309 284 309 286 307 288 307 289 306 290 306 292 304 293 304 295 302 296 302 297 301 298 301 301 298 302 298 305 295 306 295 310 291 311 291 323 279 323 278 327 274 327 273 330 270 330 269 333 266 333 265 334 264 334 263 336 261 336 260 337 259 337 258 339 256 339 254 341 252 341 251 342 250 342 248 343 247 343 246 344 245 344 243 345 242 345 241 346 240 346 238 347 237 347 235 348 234 348 232 349 231 349 228 350 227 350 224 351 223 351 219 352 218 352 212 353 211 353 181 352 180 352 175 351 174 351 169 350 168 350 166 349 165 349 162 348 161 348 158 347 157 347 155 346 154 346 153 345 152 345 150 344 149 344 147 343 146 343 145 342 144 342 143 341 142 341 141 340 140 340 139 339 138 339 136 337 134 337 133 335 131 335 130 334 129 334 128 332 126 332 125 330 123 330 122 326 118 326 117 321 112 321 111 313 103 312 103 307 98 306 98 303 95 302 95 299 92 298 92 296 90 295 90 294 89 293 89 291 87 290 87 289 86 288 86 287 85 286 85 285 84 284 84 283 83 282 83 281 82 280 82 279 81 277 81 276 80 275 80 274 79 272 79 271 78 269 78 268 77 267 77 266 76 263 76 262 75 259 75 258 74 255 74 254 73 249 73 248 72 243 72 242 71 "/></svg>