<?xml version="1.0" encoding="utf-8"?><svg version="1.0" id="Layer_1" width="1280" height="720" xmlns="http://www.w3.org/2000/svg" xml:space="preserve"><path d="M0 0 0 719 1279 719 1279 0 Z M896 383 897 382 922 382 923 383 928 383 929 384 934 384 935 385 938 385 939 386 942 386 943 387 945 387 946 388 948 388 949 389 951 389 952 390 953 390 954 391 956 391 957 392 958 392 959 393 960 393 961 394 962 394 963 395 964 395 965 396 966 396 967 397 968 397 970 399 971 399 972 400 973 400 975 402 976 402 978 404 979 404 982 407 983 407 990 414 991 414 998 421 998 422 1003 427 1003 428 1006 431 1006 432 1009 435 1009 436 1010 437 1010 438 1012 440 1012 441 1013 442 1013 443 1015 445 1015 446 1016 447 1016 448 1017 449 1017 450 1018 451 1018 452 1019 453 1019 455 1020 456 1020 458 1021 459 1021 460 1022 461 1022 463 1023 464 1023 466 1024 467 1024 470 1025 471 1025 474 1026 475 1026 479 1027 480 1027 485 1028 486 1028 514 1027 515 1027 521 1026 522 1026 526 1025 527 1025 529 1024 530 1024 533 1023 534 1023 536 1022 537 1022 539 1021 540 1021 542 1020 543 1020 545 1019 546 1019 547 1018 548 1018 549 1017 550 1017 551 1016 552 1016 553 1015 554 1015 555 1014 556 1014 557 1013 558 1013 559 1011 561 1011 562 1010 563 1010 564 1008 566 1008 567 1005 570 1005 571 1002 574 1002 575 985 592 984 592 981 595 980 595 977 598 976 598 975 599 974 599 972 601 971 601 969 603 968 603 967 604 966 604 965 605 964 605 963 606 962 606 961 607 960 607 959 608 958 608 957 609 955 609 954 610 953 610 952 611 950 611 949 612 947 612 946 613 944 613 943 614 940 614 939 615 936 615 935 616 931 616 930 617 925 617 924 618 895 618 894 617 889 617 888 616 884 616 883 615 880 615 879 614 876 614 875 613 873 613 872 612 870 612 869 611 867 611 866 610 865 610 864 609 862 609 861 608 860 608 859 607 858 607 857 606 856 606 855 605 854 605 853 604 852 604 850 602 849 602 848 601 847 601 845 599 844 599 842 597 841 597 838 594 837 594 834 591 833 591 818 576 818 575 815 572 815 571 812 568 812 567 810 565 810 564 808 562 808 561 807 560 807 559 805 557 805 556 804 555 804 554 803 553 803 552 802 551 802 550 801 549 801 548 800 547 800 545 799 544 799 543 798 542 798 540 797 539 797 537 796 536 796 534 795 533 795 530 794 529 794 526 793 525 793 521 792 520 792 514 791 513 791 487 792 486 792 481 793 480 793 475 794 474 794 472 795 471 795 468 796 467 796 464 797 463 797 462 798 461 798 459 799 458 799 456 800 455 800 454 801 453 801 452 802 451 802 450 803 449 803 448 804 447 804 446 805 445 805 444 806 443 806 442 807 441 807 440 809 438 809 437 811 435 811 434 813 432 813 431 816 428 816 427 824 419 824 418 827 415 828 415 836 407 837 407 839 405 840 405 843 402 844 402 846 400 847 400 848 399 849 399 851 397 852 397 853 396 854 396 855 395 856 395 857 394 858 394 859 393 860 393 861 392 862 392 863 391 865 391 866 390 868 390 869 389 870 389 871 388 873 388 874 387 876 387 877 386 880 386 881 385 884 385 885 384 890 384 891 383 Z M845 467 844 468 844 469 843 470 843 471 842 472 842 474 841 475 841 476 840 477 840 479 839 480 839 483 838 484 838 488 837 489 837 511 838 512 838 516 839 517 839 520 840 521 840 523 841 524 841 526 842 527 842 528 843 529 843 530 844 531 844 533 846 535 846 536 847 537 847 538 849 540 849 541 851 543 851 544 855 548 855 549 859 553 860 553 865 558 866 558 869 561 870 561 871 562 872 562 874 564 875 564 876 565 878 565 879 566 880 566 881 567 882 567 883 568 885 568 886 569 888 569 889 570 891 570 892 571 897 571 898 572 905 572 906 573 913 573 914 572 922 572 923 571 927 571 928 570 930 570 931 569 933 569 934 568 936 568 937 567 938 567 939 566 941 566 942 565 943 565 943 564 889 510 888 510 Z M899 428 898 429 893 429 892 430 890 430 889 431 886 431 885 432 883 432 882 433 881 433 880 434 879 434 878 435 877 435 876 436 952 512 953 512 974 533 975 533 975 532 976 531 976 530 977 529 977 527 978 526 978 524 979 523 979 522 980 521 980 518 981 517 981 513 982 512 982 503 983 502 983 498 982 497 982 488 981 487 981 484 980 483 980 480 979 479 979 477 978 476 978 474 977 473 977 471 976 470 976 469 975 468 975 467 974 466 974 465 972 463 972 462 971 461 971 460 968 457 968 456 964 452 964 451 960 447 959 447 954 442 953 442 951 440 950 440 948 438 947 438 946 437 945 437 944 436 943 436 942 435 941 435 940 434 939 434 938 433 937 433 936 432 934 432 933 431 930 431 929 430 927 430 926 429 921 429 920 428 Z M998 316 999 317 999 318 997 320 997 321 995 323 995 324 992 327 992 328 990 330 990 331 987 334 987 335 985 337 984 337 982 335 982 334 980 332 980 331 977 328 977 327 975 325 975 324 973 322 973 321 974 320 977 323 977 324 979 326 979 327 982 330 982 331 984 333 984 334 985 334 985 333 988 330 988 329 990 327 990 326 993 323 993 322 995 320 995 319 Z M968 314 969 313 972 316 972 317 974 319 974 320 973 321 970 318 970 317 968 315 Z M913 259 914 258 915 258 917 260 917 262 916 263 916 264 915 265 915 266 914 267 914 268 913 269 913 270 912 271 912 272 911 273 911 275 910 276 910 277 909 278 909 279 908 280 908 281 907 282 907 283 906 284 906 285 905 286 905 288 910 288 911 289 921 289 922 290 932 290 933 291 935 291 936 292 936 300 937 301 937 311 938 312 938 322 939 321 941 321 942 320 943 320 944 319 945 319 946 318 947 318 948 317 949 317 950 316 952 316 953 315 954 315 955 314 956 314 957 313 958 313 959 312 960 312 961 311 962 311 963 310 965 310 966 309 969 312 969 313 968 314 966 312 965 312 964 313 962 313 961 314 960 314 959 315 958 315 957 316 956 316 955 317 954 317 953 318 952 318 951 319 949 319 948 320 947 320 946 321 945 321 944 322 943 322 942 323 941 323 940 324 939 324 938 325 937 325 936 324 936 318 935 317 935 307 934 306 934 296 933 295 933 293 926 293 925 292 915 292 914 291 904 291 902 289 902 287 903 286 903 285 904 284 904 283 905 282 905 281 906 280 906 279 907 278 907 277 908 276 908 275 909 274 909 272 910 271 910 270 911 269 911 268 912 267 912 266 913 265 913 264 914 263 914 262 915 261 Z M1057 256 1058 256 1059 257 1056 260 1055 260 1055 262 1056 263 1056 265 1057 266 1057 267 1058 268 1058 269 1059 270 1059 271 1060 272 1060 273 1061 274 1061 275 1062 276 1062 277 1063 278 1063 280 1064 281 1064 282 1065 283 1065 284 1066 285 1066 286 1067 287 1067 288 1068 289 1067 290 1066 290 1065 291 1055 291 1054 292 1044 292 1043 293 1036 293 1036 297 1035 298 1035 308 1034 309 1034 319 1033 320 1033 324 1032 325 1031 324 1029 324 1028 323 1027 323 1026 322 1025 322 1024 321 1023 321 1022 320 1021 320 1020 319 1019 319 1018 318 1016 318 1015 317 1014 317 1013 316 1012 316 1011 315 1010 315 1009 314 1008 314 1007 313 1006 313 1005 312 1003 312 1002 313 1002 314 999 317 998 316 998 315 1000 313 1000 312 1003 309 1004 309 1005 310 1006 310 1007 311 1008 311 1009 312 1010 312 1011 313 1012 313 1013 314 1014 314 1015 315 1017 315 1018 316 1019 316 1020 317 1021 317 1022 318 1023 318 1024 319 1025 319 1026 320 1027 320 1028 321 1030 321 1031 322 1031 313 1032 312 1032 302 1033 301 1033 292 1034 291 1036 291 1037 290 1047 290 1048 289 1058 289 1059 288 1065 288 1064 287 1064 286 1063 285 1063 284 1062 283 1062 282 1061 281 1061 280 1060 279 1060 277 1059 276 1059 275 1058 274 1058 273 1057 272 1057 271 1056 270 1056 269 1055 268 1055 267 1054 266 1054 264 1053 263 1053 262 1052 261 1052 260 1054 258 1055 258 Z M910 257 911 256 912 256 914 258 913 259 912 259 Z M1060 254 1061 254 1062 255 1060 257 1059 257 1058 256 Z M903 252 904 251 905 251 907 253 908 253 911 256 910 257 909 257 907 255 906 255 Z M1067 249 1068 249 1069 250 1066 253 1065 253 1063 255 1062 255 1061 254 1064 251 1065 251 Z M900 250 901 249 902 249 904 251 903 252 902 252 Z M1070 247 1071 247 1072 248 1070 250 1069 250 1068 249 Z M893 245 894 244 895 244 897 246 898 246 901 249 900 250 899 250 897 248 896 248 Z M891 240 892 240 893 241 892 242 894 244 893 245 892 245 889 242 Z M1072 238 1073 237 1074 237 1076 239 1077 239 1080 242 1076 246 1075 246 1073 248 1072 248 1071 247 1074 244 1075 244 1077 242 1076 241 1075 241 Z M1069 236 1070 235 1071 235 1073 237 1072 238 1071 238 Z M898 235 899 235 900 236 897 239 896 239 894 241 893 241 892 240 895 237 896 237 Z M901 233 902 233 903 234 901 236 900 236 899 235 Z M1062 231 1063 230 1064 230 1066 232 1067 232 1070 235 1069 236 1068 236 1066 234 1065 234 Z M1059 229 1060 228 1061 228 1063 230 1062 231 1061 231 Z M908 228 909 228 910 229 907 232 906 232 904 234 903 234 902 233 905 230 906 230 Z M911 226 912 226 913 227 911 229 910 229 909 228 Z M966 173 967 172 968 173 967 174 Z M1005 172 1006 171 1008 171 1009 172 1008 173 1007 173 1006 174 1005 174 1004 175 1003 175 1002 174 1004 172 Z M1000 171 1001 170 1003 172 1003 173 1002 174 1000 172 Z M958 171 959 170 961 170 962 171 963 171 964 172 965 172 967 174 966 175 965 175 964 174 963 174 962 173 961 173 960 172 959 172 Z M969 169 970 170 970 171 968 173 967 172 967 171 Z M997 167 998 166 1001 169 1001 170 1000 171 997 168 Z M971 166 972 167 972 168 970 170 969 169 969 168 Z M1018 166 1019 165 1021 165 1022 166 1021 167 1020 167 1019 168 1018 168 1017 169 1016 169 1015 170 1014 170 1013 171 1012 171 1011 172 1009 172 1008 171 1009 170 1010 170 1011 169 1012 169 1013 168 1014 168 1015 167 1016 167 1017 166 Z M945 165 946 164 948 164 949 165 950 165 951 166 952 166 953 167 954 167 955 168 956 168 957 169 958 169 959 170 958 171 956 171 955 170 954 170 953 169 952 169 951 168 950 168 949 167 948 167 947 166 946 166 Z M995 164 996 163 998 165 998 166 997 167 995 165 Z M974 162 975 163 975 164 972 167 971 166 971 165 Z M1029 161 1030 160 1032 160 1033 161 1033 166 1034 167 1034 177 1035 178 1035 188 1036 189 1036 191 1038 191 1039 192 1049 192 1050 193 1061 193 1062 194 1066 194 1067 195 1067 197 1066 198 1066 199 1065 200 1065 201 1064 202 1064 204 1063 205 1063 206 1062 207 1062 208 1061 209 1061 210 1060 211 1060 212 1059 213 1059 214 1058 215 1058 217 1057 218 1057 219 1056 220 1056 221 1055 222 1055 224 1056 225 1057 225 1060 228 1059 229 1058 229 1056 227 1055 227 1052 224 1052 223 1053 222 1053 221 1054 220 1054 219 1055 218 1055 217 1056 216 1056 214 1057 213 1057 212 1058 211 1058 210 1059 209 1059 208 1060 207 1060 206 1061 205 1061 204 1062 203 1062 201 1063 200 1063 199 1064 198 1064 197 1065 196 1058 196 1057 195 1047 195 1046 194 1036 194 1035 193 1034 193 1033 192 1033 182 1032 181 1032 171 1031 170 1031 162 1030 163 1029 163 1028 164 1027 164 1026 165 1025 165 1024 166 1022 166 1021 165 1022 164 1023 164 1024 163 1025 163 1026 162 1027 162 1028 161 Z M993 161 994 160 996 162 996 163 995 164 993 162 Z M936 161 937 160 939 160 940 161 941 161 942 162 943 162 944 163 945 163 946 164 945 165 943 165 942 164 941 164 940 163 939 163 938 162 938 172 937 173 937 183 936 184 936 192 934 194 923 194 922 195 912 195 911 196 904 196 905 197 905 198 906 199 906 200 907 201 907 202 908 203 908 204 909 205 909 207 910 208 910 209 911 210 911 211 912 212 912 213 913 214 913 215 914 216 914 217 915 218 915 219 916 220 916 222 917 223 917 224 914 227 913 227 912 226 914 224 914 221 913 220 913 219 912 218 912 217 911 216 911 215 910 214 910 213 909 212 909 211 908 210 908 209 907 208 907 206 906 205 906 204 905 203 905 202 904 201 904 200 903 199 903 198 902 197 902 195 903 194 908 194 909 193 919 193 920 192 930 192 931 191 933 191 934 190 934 179 935 178 935 168 936 167 Z M992 160 993 159 994 160 993 161 Z M976 159 977 160 977 161 975 163 974 162 974 161 Z M990 157 991 156 993 158 993 159 992 160 990 158 Z M978 156 979 157 979 158 977 160 976 159 976 158 Z M978 156 979 155 980 156 979 157 Z M988 154 989 153 991 155 991 156 990 157 988 155 Z M987 153 988 152 989 153 988 154 Z M981 152 982 153 982 154 980 156 979 155 979 154 Z M985 150 986 149 988 151 988 152 987 153 985 151 Z M983 149 984 150 984 151 982 153 981 152 981 151 Z M983 148 984 147 985 147 986 148 986 149 985 150 984 150 983 149 Z M217 71 218 70 238 70 239 71 246 71 247 72 253 72 254 73 257 73 258 74 261 74 262 75 265 75 266 76 268 76 269 77 270 77 271 78 273 78 274 79 276 79 277 80 278 80 279 81 280 81 281 82 282 82 283 83 284 83 285 84 286 84 287 85 288 85 289 86 290 86 291 87 292 87 294 89 295 89 297 91 298 91 300 93 301 93 304 96 305 96 309 100 310 100 324 114 324 115 328 119 328 120 331 123 331 124 334 127 334 128 335 129 335 130 337 132 337 133 338 134 338 135 340 137 340 139 341 140 341 141 342 142 342 143 343 144 343 145 344 146 344 147 345 148 345 150 346 151 346 152 347 153 347 155 348 156 348 158 349 159 349 161 350 162 350 165 351 166 351 169 352 170 352 175 353 176 353 181 354 182 354 210 353 211 353 216 352 217 352 222 351 223 351 226 350 227 350 230 349 231 349 234 348 235 348 236 347 237 347 239 346 240 346 242 345 243 345 245 344 246 344 247 343 248 343 249 342 250 342 251 341 252 341 253 340 254 340 255 339 256 339 257 337 259 337 260 336 261 336 262 334 264 334 265 332 267 332 268 329 271 329 272 326 275 326 276 319 283 319 284 316 287 315 287 308 294 307 294 304 297 303 297 299 301 298 301 297 302 296 302 294 304 293 304 292 305 291 305 289 307 288 307 287 308 286 308 285 309 284 309 283 310 282 310 281 311 280 311 279 312 278 312 277 313 275 313 274 314 272 314 271 315 270 315 269 316 267 316 266 317 263 317 262 318 259 318 258 319 256 319 255 320 250 320 249 321 244 321 243 322 213 322 212 321 207 321 206 320 202 320 201 319 198 319 197 318 194 318 193 317 190 317 189 316 188 316 187 315 185 315 184 314 182 314 181 313 179 313 178 312 177 312 176 311 175 311 174 310 173 310 172 309 171 309 170 308 169 308 168 307 167 307 165 305 164 305 163 304 162 304 160 302 159 302 157 300 156 300 153 297 152 297 149 294 148 294 130 276 130 275 127 272 127 271 124 268 124 267 122 265 122 264 121 263 121 262 119 260 119 259 117 257 117 256 116 255 116 254 115 253 115 252 114 251 114 250 113 249 113 247 112 246 112 245 111 244 111 242 110 241 110 240 109 239 109 237 108 236 108 234 107 233 107 230 106 229 106 226 105 225 105 223 104 222 104 217 103 216 103 210 102 209 102 183 103 182 103 177 104 176 104 171 105 170 105 167 106 166 106 163 107 162 107 159 108 158 108 156 109 155 109 154 110 153 110 151 111 150 111 148 112 147 112 146 113 145 113 144 114 143 114 142 115 141 115 140 116 139 116 138 117 137 117 136 118 135 118 134 120 132 120 131 121 130 121 129 123 127 123 126 125 124 125 123 128 120 128 119 133 114 133 113 145 101 146 101 151 96 152 96 155 93 156 93 158 91 159 91 161 89 162 89 163 88 164 88 166 86 167 86 168 85 169 85 170 84 171 84 172 83 173 83 174 82 175 82 176 81 177 81 178 80 179 80 180 79 182 79 183 78 185 78 186 77 188 77 189 76 190 76 191 75 194 75 195 74 198 74 199 73 202 73 203 72 209 72 210 71 Z M786 24 787 24 818 55 818 56 817 57 803 57 803 78 824 78 824 64 825 63 826 63 857 94 857 95 826 126 825 126 824 125 824 111 803 111 803 132 817 132 818 133 818 134 787 165 786 165 755 134 755 133 756 132 770 132 770 111 749 111 749 125 748 126 747 126 716 95 716 94 747 63 748 63 749 64 749 78 770 78 770 57 756 57 755 56 755 55 Z "/></svg>