<?xml version="1.0" encoding="utf-8"?><svg version="1.0" id="Layer_1" width="1280" height="720" xmlns="http://www.w3.org/2000/svg" xml:space="preserve"><path class="st0" d="M905 383 906 382 914 382 915 383 925 383 926 384 932 384 933 385 936 385 937 386 940 386 941 387 944 387 945 388 947 388 948 389 949 389 950 390 952 390 953 391 955 391 956 392 957 392 958 393 959 393 960 394 961 394 962 395 963 395 964 396 965 396 966 397 967 397 968 398 969 398 971 400 972 400 973 401 974 401 976 403 977 403 980 406 981 406 984 409 985 409 1001 425 1001 426 1004 429 1004 430 1007 433 1007 434 1009 436 1009 437 1010 438 1010 439 1012 441 1012 442 1013 443 1013 444 1014 445 1014 446 1015 447 1015 448 1016 449 1016 450 1017 451 1017 452 1018 453 1018 454 1019 455 1019 456 1020 457 1020 459 1021 460 1021 462 1022 463 1022 465 1023 466 1023 468 1024 469 1024 472 1025 473 1025 476 1026 477 1026 483 1027 484 1027 492 1028 493 1028 507 1027 508 1027 517 1026 518 1026 523 1025 524 1025 527 1024 528 1024 531 1023 532 1023 535 1022 536 1022 538 1021 539 1021 540 1020 541 1020 543 1019 544 1019 546 1018 547 1018 548 1017 549 1017 550 1016 551 1016 552 1015 553 1015 554 1014 555 1014 556 1013 557 1013 558 1011 560 1011 561 1009 563 1009 564 1008 565 1008 566 1005 569 1005 570 1002 573 1002 574 994 582 994 583 993 584 992 584 984 592 983 592 980 595 979 595 976 598 975 598 974 599 973 599 971 601 970 601 969 602 968 602 966 604 965 604 964 605 963 605 962 606 961 606 960 607 959 607 958 608 956 608 955 609 954 609 953 610 951 610 950 611 948 611 947 612 946 612 945 613 942 613 941 614 938 614 937 615 934 615 933 616 928 616 927 617 920 617 919 618 901 618 900 617 892 617 891 616 886 616 885 615 882 615 881 614 878 614 877 613 875 613 874 612 872 612 871 611 869 611 868 610 866 610 865 609 864 609 863 608 862 608 861 607 860 607 859 606 857 606 856 605 855 605 854 604 853 604 851 602 850 602 849 601 848 601 846 599 845 599 843 597 842 597 839 594 838 594 836 592 835 592 818 575 818 574 815 571 815 570 812 567 812 566 810 564 810 563 808 561 808 560 807 559 807 558 805 556 805 555 804 554 804 553 803 552 803 551 802 550 802 549 801 548 801 546 800 545 800 544 799 543 799 541 798 540 798 538 797 537 797 535 796 534 796 532 795 531 795 528 794 527 794 524 793 523 793 517 792 516 792 506 791 505 791 496 792 495 792 485 793 484 793 478 794 477 794 474 795 473 795 470 796 469 796 466 797 465 797 463 798 462 798 460 799 459 799 458 800 457 800 455 801 454 801 453 802 452 802 451 803 450 803 449 804 448 804 447 805 446 805 445 806 444 806 443 807 442 807 441 809 439 809 438 810 437 810 436 813 433 813 432 816 429 816 428 819 425 819 424 832 411 833 411 837 407 838 407 841 404 842 404 844 402 845 402 847 400 848 400 849 399 850 399 852 397 853 397 854 396 855 396 856 395 857 395 858 394 859 394 860 393 861 393 862 392 863 392 864 391 866 391 867 390 869 390 870 389 872 389 873 388 875 388 876 387 878 387 879 386 882 386 883 385 886 385 887 384 893 384 894 383 M844 466 844 468 843 469 843 470 842 471 842 472 841 473 841 475 840 476 840 477 839 478 839 481 838 482 838 485 837 486 837 491 836 492 836 508 837 509 837 514 838 515 838 518 839 519 839 522 840 523 840 525 841 526 841 527 842 528 842 530 843 531 843 532 844 533 844 534 845 535 845 536 847 538 847 539 849 541 849 542 851 544 851 545 864 558 865 558 868 561 869 561 870 562 871 562 873 564 874 564 875 565 876 565 877 566 878 566 879 567 881 567 882 568 883 568 884 569 886 569 887 570 889 570 890 571 894 571 895 572 899 572 900 573 919 573 920 572 925 572 926 571 929 571 930 570 932 570 933 569 935 569 936 568 938 568 939 567 940 567 941 566 942 566 943 565 944 565 944 564 934 554 933 554 845 466 M903 427 902 428 896 428 895 429 891 429 890 430 888 430 887 431 885 431 884 432 882 432 881 433 880 433 879 434 878 434 877 435 876 435 875 436 908 469 909 469 974 534 975 534 975 533 976 532 976 531 977 530 977 529 978 528 978 526 979 525 979 523 980 522 980 520 981 519 981 516 982 515 982 510 983 509 983 491 982 490 982 485 981 484 981 481 980 480 980 478 979 477 979 475 978 474 978 472 977 471 977 470 976 469 976 468 975 467 975 466 974 465 974 464 972 462 972 461 970 459 970 458 968 456 968 455 956 443 955 443 952 440 951 440 949 438 948 438 947 437 946 437 945 436 944 436 943 435 942 435 941 434 940 434 939 433 938 433 937 432 935 432 934 431 932 431 931 430 929 430 928 429 924 429 923 428 917 428 916 427 M983 335 984 334 985 334 986 335 985 336 984 336 M985 334 986 333 987 334 986 335 M982 334 983 333 984 334 983 335 M986 333 987 332 988 333 987 334 M981 332 982 331 983 332 983 333 982 334 981 333 M987 331 988 330 989 331 988 332 M980 331 981 330 982 331 981 332 M988 330 989 329 990 330 989 331 M979 330 980 329 981 330 980 331 M989 328 990 327 991 328 991 329 990 330 989 329 M978 328 979 327 980 328 979 329 M990 327 991 326 992 327 991 328 M977 327 978 326 979 327 978 328 M991 326 992 325 993 326 992 327 M976 325 977 324 978 325 978 326 977 327 976 326 M992 324 993 323 994 324 993 325 M975 324 976 323 977 324 976 325 M993 323 994 322 995 323 994 324 M974 323 975 322 976 323 975 324 M1027 322 1028 321 1029 321 1030 322 1029 323 1028 323 M939 322 940 321 941 321 942 322 941 323 940 323 M1025 321 1026 320 1027 320 1028 321 1027 322 1026 322 M994 321 995 320 996 321 995 322 M973 321 974 320 975 321 974 322 M942 321 943 320 944 321 943 322 M1023 320 1024 319 1025 320 1024 321 M995 320 996 319 997 320 996 321 M972 320 973 319 974 320 973 321 M944 320 945 319 946 320 945 321 M1021 319 1022 318 1023 319 1022 320 M996 319 997 318 998 319 997 320 M946 319 947 318 948 318 949 319 948 320 947 320 M1031 318 1032 317 1033 318 1033 323 1032 324 1030 324 1029 323 1030 322 1031 322 M1018 318 1019 317 1020 317 1021 318 1020 319 1019 319 M971 318 972 317 973 318 972 319 M948 318 949 317 950 317 951 318 950 319 949 319 M1016 317 1017 316 1018 316 1019 317 1018 318 1017 318 M997 317 998 316 999 317 998 318 M970 317 971 316 972 317 971 318 M950 317 951 316 952 316 953 317 952 318 951 318 M1014 316 1015 315 1016 315 1017 316 1016 317 1015 317 M998 316 999 315 1000 316 999 317 M952 316 953 315 954 315 955 316 954 317 953 317 M936 316 937 315 938 316 938 322 939 322 940 323 939 324 937 324 936 323 M1012 315 1013 314 1014 314 1015 315 1014 316 1013 316 M969 315 970 314 971 315 971 316 970 317 969 316 M955 315 956 314 957 315 956 316 M1010 314 1011 313 1012 314 1011 315 M999 314 1000 313 1001 314 1000 315 M968 314 969 313 970 314 969 315 M957 314 958 313 959 314 958 315 M1008 313 1009 312 1010 313 1009 314 M1000 313 1001 312 1002 313 1001 314 M967 313 968 312 969 313 968 314 M959 313 960 312 961 312 962 313 961 314 960 314 M1005 312 1006 311 1007 311 1008 312 1007 313 1006 313 M1001 312 1002 311 1003 312 1002 313 M961 312 962 311 963 311 964 312 963 313 962 313 M1003 311 1004 310 1005 310 1006 311 1005 312 1004 312 M966 311 967 310 968 311 967 312 M963 311 964 310 965 310 966 311 965 312 964 312 M1002 310 1003 309 1004 310 1003 311 M1032 307 1033 306 1034 307 1034 314 1033 315 1032 314 M935 305 936 304 937 305 937 313 936 314 935 313 M1033 296 1034 295 1035 296 1035 303 1034 304 1033 303 M934 294 935 293 936 294 936 302 935 303 934 302 M1034 292 1035 291 1038 291 1039 292 1038 293 1035 293 M930 292 931 291 934 291 935 292 934 293 931 293 M1041 291 1042 290 1049 290 1050 291 1049 292 1042 292 M919 291 920 290 927 290 928 291 927 292 920 292 M1052 290 1053 289 1060 289 1061 290 1060 291 1053 291 M908 290 909 289 916 289 917 290 916 291 909 291 M1065 288 1066 287 1067 288 1067 289 1066 290 1064 290 1063 289 1064 288 M902 288 903 287 904 288 905 288 906 289 905 290 903 290 902 289 M1064 286 1065 285 1066 286 1065 287 M903 286 904 285 905 286 905 287 904 288 903 287 M1063 284 1064 283 1065 284 1064 285 M904 284 905 283 906 284 906 285 905 286 904 285 M905 282 906 281 907 282 906 283 M1062 281 1063 280 1064 281 1064 282 1063 283 1062 282 M906 280 907 279 908 280 907 281 M1061 279 1062 278 1063 279 1063 280 1062 281 1061 280 M907 278 908 277 909 278 908 279 M1060 277 1061 276 1062 277 1062 278 1061 279 1060 278 M1059 275 1060 274 1061 275 1061 276 1060 277 1059 276 M908 275 909 274 910 275 910 276 909 277 908 276 M1058 273 1059 272 1060 273 1059 274 M909 273 910 272 911 273 911 274 910 275 909 274 M1057 271 1058 270 1059 271 1058 272 M910 271 911 270 912 271 912 272 911 273 910 272 M1056 269 1057 268 1058 269 1057 270 M911 269 912 268 913 269 913 270 912 271 911 270 M912 267 913 266 914 267 913 268 M1055 266 1056 265 1057 266 1057 267 1056 268 1055 267 M913 265 914 264 915 265 914 266 M1054 264 1055 263 1056 264 1056 265 1055 266 1054 265 M1053 262 1054 261 1055 262 1055 263 1054 264 1053 263 M914 262 915 261 916 262 916 263 915 264 914 263 M1052 261 1053 260 1054 261 1053 262 M1053 260 1054 259 1055 260 1054 261 M915 260 916 259 917 260 917 261 916 262 915 261 M1054 259 1055 258 1056 259 1055 260 M913 259 914 258 915 259 914 260 M1055 258 1056 257 1057 258 1056 259 M912 258 913 257 914 258 913 259 M1057 257 1058 256 1059 257 1058 258 M910 257 911 256 912 257 911 258 M1058 256 1059 255 1060 256 1059 257 M909 256 910 255 911 256 910 257 M1060 255 1061 254 1062 255 1061 256 M907 255 908 254 909 255 908 256 M1061 254 1062 253 1063 254 1062 255 M906 254 907 253 908 254 907 255 M1063 253 1064 252 1065 253 1064 254 M905 253 906 252 907 253 906 254 M1064 252 1065 251 1066 252 1065 253 M903 252 904 251 905 252 904 253 M1065 251 1066 250 1067 251 1066 252 M902 251 903 250 904 251 903 252 M1067 250 1068 249 1069 250 1068 251 M900 250 901 249 902 250 901 251 M1068 249 1069 248 1070 249 1069 250 M899 249 900 248 901 249 900 250 M1070 248 1071 247 1072 248 1071 249 M897 248 898 247 899 248 898 249 M1071 247 1072 246 1073 247 1072 248 M896 247 897 246 898 247 897 248 M1073 246 1074 245 1075 246 1074 247 M895 246 896 245 897 246 896 247 M1074 245 1075 244 1076 245 1075 246 M893 245 894 244 895 245 894 246 M1075 244 1076 243 1077 244 1076 245 M892 244 893 243 894 244 893 245 M1077 243 1078 242 1079 243 1078 244 M890 243 891 242 892 243 891 244 M1078 242 1079 241 1080 242 1079 243 M889 242 890 241 891 242 890 243 M1076 241 1077 240 1078 241 1077 242 M891 241 892 240 893 241 892 242 M1075 240 1076 239 1077 240 1076 241 M892 240 893 239 894 240 893 241 M1074 239 1075 238 1076 239 1075 240 M894 239 895 238 896 239 895 240 M1072 238 1073 237 1074 238 1073 239 M895 238 896 237 897 238 896 239 M1071 237 1072 236 1073 237 1072 238 M896 237 897 236 898 237 897 238 M1069 236 1070 235 1071 236 1070 237 M898 236 899 235 900 236 899 237 M1068 235 1069 234 1070 235 1069 236 M899 235 900 234 901 235 900 236 M1066 234 1067 233 1068 234 1067 235 M901 234 902 233 903 234 902 235 M1065 233 1066 232 1067 233 1066 234 M902 233 903 232 904 233 903 234 M1064 232 1065 231 1066 232 1065 233 M904 232 905 231 906 232 905 233 M1062 231 1063 230 1064 231 1063 232 M905 231 906 230 907 231 906 232 M1061 230 1062 229 1063 230 1062 231 M906 230 907 229 908 230 907 231 M1059 229 1060 228 1061 229 1060 230 M908 229 909 228 910 229 909 230 M1058 228 1059 227 1060 228 1059 229 M909 228 910 227 911 228 910 229 M1056 227 1057 226 1058 227 1057 228 M911 227 912 226 913 227 912 228 M1055 226 1056 225 1057 226 1056 227 M912 226 913 225 914 226 913 227 M1054 225 1055 224 1056 225 1055 226 M914 225 915 224 916 225 915 226 M1052 224 1053 223 1054 224 1053 225 M915 223 916 222 917 223 917 224 916 225 915 224 M1053 222 1054 221 1055 222 1054 223 M914 221 915 220 916 221 916 222 915 223 914 222 M1054 219 1055 218 1056 219 1056 220 1055 221 1054 220 M913 219 914 218 915 219 915 220 914 221 913 220 M1055 217 1056 216 1057 217 1057 218 1056 219 1055 218 M912 217 913 216 914 217 914 218 913 219 912 218 M1056 215 1057 214 1058 215 1058 216 1057 217 1056 216 M911 215 912 214 913 215 912 216 M1057 213 1058 212 1059 213 1059 214 1058 215 1057 214 M910 213 911 212 912 213 911 214 M1058 211 1059 210 1060 211 1059 212 M909 210 910 209 911 210 911 211 910 212 909 211 M1059 209 1060 208 1061 209 1060 210 M908 208 909 207 910 208 910 209 909 210 908 209 M1060 207 1061 206 1062 207 1061 208 M907 206 908 205 909 206 909 207 908 208 907 207 M1061 204 1062 203 1063 204 1063 205 1062 206 1061 205 M906 204 907 203 908 204 908 205 907 206 906 205 M1062 202 1063 201 1064 202 1064 203 1063 204 1062 203 M905 202 906 201 907 202 906 203 M1063 200 1064 199 1065 200 1065 201 1064 202 1063 201 M904 200 905 199 906 200 905 201 M1064 198 1065 197 1066 198 1066 199 1065 200 1064 199 M903 198 904 197 905 198 904 199 M1060 195 1061 194 1066 194 1067 195 1067 196 1066 197 1065 196 1061 196 M902 195 903 194 908 194 909 195 908 196 904 196 903 197 902 196 M1049 194 1050 193 1057 193 1058 194 1057 195 1050 195 M911 194 912 193 919 193 920 194 919 195 912 195 M1038 193 1039 192 1046 192 1047 193 1046 194 1039 194 M922 193 923 192 930 192 931 193 930 194 923 194 M1034 192 1035 191 1036 192 1035 193 M933 192 934 191 935 192 934 193 M934 183 935 182 936 183 936 190 935 191 934 190 M1033 181 1034 180 1035 181 1035 188 1034 189 1033 188 M1002 174 1003 173 1004 174 1003 175 M965 174 966 173 967 174 966 175 M1004 173 1005 172 1006 173 1005 174 M1001 173 1002 172 1003 173 1002 174 M966 173 967 172 968 173 967 174 M963 173 964 172 965 173 964 174 M1006 172 1007 171 1008 171 1009 172 1008 173 1007 173 M967 172 968 171 969 172 968 173 M961 172 962 171 963 172 962 173 M935 172 936 171 937 172 937 179 936 180 935 179 M1008 171 1009 170 1010 170 1011 171 1010 172 1009 172 M1000 171 1001 170 1002 171 1001 172 M958 171 959 170 960 170 961 171 960 172 959 172 M1032 170 1033 169 1034 170 1034 177 1033 178 1032 177 M1010 170 1011 169 1012 169 1013 170 1012 171 1011 171 M999 170 1000 169 1001 170 1000 171 M968 170 969 169 970 170 969 171 M956 170 957 169 958 169 959 170 958 171 957 171 M1013 169 1014 168 1015 169 1014 170 M969 169 970 168 971 169 970 170 M954 169 955 168 956 169 955 170 M1015 168 1016 167 1017 168 1016 169 M952 168 953 167 954 168 953 169 M1017 167 1018 166 1019 166 1020 167 1019 168 1018 168 M997 167 998 166 999 167 998 168 M970 167 971 166 972 167 971 168 M950 167 951 166 952 167 951 168 M1019 166 1020 165 1021 165 1022 166 1021 167 1020 167 M996 166 997 165 998 166 997 167 M971 166 972 165 973 166 972 167 M947 166 948 165 949 165 950 166 949 167 948 167 M1021 165 1022 164 1023 164 1024 165 1023 166 1022 166 M945 165 946 164 947 164 948 165 947 166 946 166 M1024 164 1025 163 1026 164 1025 165 M995 164 996 163 997 164 996 165 M943 164 944 163 945 163 946 164 945 165 944 165 M1026 163 1027 162 1028 163 1027 164 M994 163 995 162 996 163 995 164 M973 163 974 162 975 163 974 164 M941 163 942 162 943 163 942 164 M1028 162 1029 161 1030 162 1029 163 M974 162 975 161 976 162 975 163 M939 162 940 161 941 162 940 163 M1030 161 1031 160 1032 160 1033 161 1033 166 1032 167 1031 166 1031 162 M993 161 994 160 995 161 994 162 M936 161 937 160 938 160 939 161 938 162 938 168 937 169 936 168 M992 160 993 159 994 160 993 161 M975 160 976 159 977 160 976 161 M991 159 992 158 993 159 992 160 M976 159 977 158 978 159 977 160 M990 157 991 156 992 157 991 158 M977 157 978 156 979 157 978 158 M989 156 990 155 991 156 990 157 M978 156 979 155 980 156 979 157 M979 155 980 154 981 155 980 156 M988 154 989 153 990 154 989 155 M987 153 988 152 989 153 988 154 M980 153 981 152 982 153 981 154 M986 152 987 151 988 152 987 153 M981 152 982 151 983 152 982 153 M985 150 986 149 987 150 986 151 M982 150 983 149 984 150 983 151 M983 149 984 148 985 148 986 149 985 150 984 150 M218 71 219 70 237 70 238 71 246 71 247 72 252 72 253 73 256 73 257 74 260 74 261 75 264 75 265 76 267 76 268 77 270 77 271 78 272 78 273 79 275 79 276 80 278 80 279 81 280 81 281 82 282 82 283 83 284 83 285 84 286 84 287 85 288 85 290 87 291 87 292 88 293 88 295 90 296 90 297 91 298 91 301 94 302 94 305 97 306 97 311 102 312 102 322 112 322 113 327 118 327 119 330 122 330 123 333 126 333 127 335 129 335 130 336 131 336 132 338 134 338 135 339 136 339 137 340 138 340 139 341 140 341 141 342 142 342 143 343 144 343 145 344 146 344 147 345 148 345 150 346 151 346 153 347 154 347 156 348 157 348 158 349 159 349 162 350 163 350 166 351 167 351 170 352 171 352 176 353 177 353 183 354 184 354 209 353 210 353 215 352 216 352 221 351 222 351 225 350 226 350 229 349 230 349 233 348 234 348 236 347 237 347 238 346 239 346 241 345 242 345 244 344 245 344 246 343 247 343 248 342 249 342 250 341 251 341 252 340 253 340 255 338 257 338 258 337 259 337 260 335 262 335 263 334 264 334 265 331 268 331 269 328 272 328 273 324 277 324 278 310 292 309 292 305 296 304 296 301 299 300 299 297 302 296 302 295 303 294 303 292 305 291 305 290 306 289 306 287 308 285 308 284 309 283 309 282 310 281 310 280 311 279 311 278 312 277 312 276 313 274 313 273 314 272 314 271 315 269 315 268 316 266 316 265 317 262 317 261 318 258 318 257 319 255 319 254 320 249 320 248 321 242 321 241 322 215 322 214 321 209 321 208 320 203 320 202 319 199 319 198 318 195 318 194 317 191 317 190 316 188 316 187 315 186 315 185 314 183 314 182 313 180 313 179 312 178 312 177 311 176 311 175 310 174 310 173 309 172 309 171 308 170 308 169 307 168 307 167 306 166 306 165 305 164 305 162 303 161 303 159 301 158 301 156 299 155 299 152 296 151 296 146 291 145 291 133 279 133 278 128 273 128 272 125 269 125 268 123 266 123 265 121 263 121 262 120 261 120 260 118 258 118 257 117 256 117 255 116 254 116 253 115 252 115 251 114 250 114 249 113 248 113 247 112 246 112 245 111 244 111 242 110 241 110 239 109 238 109 236 108 235 108 234 107 233 107 230 106 229 106 226 105 225 105 222 104 221 104 215 103 214 103 207 102 206 102 186 103 185 103 178 104 177 104 172 105 171 105 168 106 167 106 164 107 163 107 160 108 159 108 157 109 156 109 154 110 153 110 152 111 151 111 149 112 148 112 147 113 146 113 144 114 143 114 142 115 141 115 140 116 139 116 138 117 137 117 136 119 134 119 133 120 132 120 131 122 129 122 128 123 127 123 126 126 123 126 122 129 119 129 118 135 112 135 111 142 104 143 104 150 97 151 97 154 94 155 94 158 91 159 91 160 90 161 90 163 88 164 88 165 87 166 87 168 85 169 85 170 84 171 84 172 83 173 83 174 82 176 82 177 81 178 81 179 80 180 80 181 79 183 79 184 78 185 78 186 77 188 77 189 76 191 76 192 75 195 75 196 74 199 74 200 73 203 73 204 72 210 72 211 71 M786 25 787 25 817 55 816 56 803 56 803 78 825 78 825 65 826 64 857 95 826 126 825 125 825 111 803 111 803 133 817 133 818 134 787 165 786 165 755 134 756 133 770 133 770 111 748 111 748 125 747 126 716 95 747 64 748 65 748 78 770 78 770 56 757 56 756 55 "/></svg>
