<?xml version="1.0" encoding="utf-8"?><svg version="1.0" id="Layer_1" width="1280" height="720" xmlns="http://www.w3.org/2000/svg" xml:space="preserve"><path d= "M217 407 215 409 215 502 217 504 581 504 582 503 582 497 583 496 583 495 582 494 582 489 583 488 583 487 582 486 582 481 583 480 583 479 582 478 582 472 583 471 583 470 582 469 582 466 583 465 583 464 582 463 582 458 583 457 581 455 264 455 263 454 263 450 264 449 264 448 263 447 263 441 264 440 264 439 263 438 263 433 264 432 264 431 263 430 263 424 264 423 264 422 263 421 263 416 264 415 264 414 263 413 263 408 262 407 " style="fill:none;stroke:black;stroke-width:1"/><path d= "M217 407 262 407 263 408 263 413 264 414 264 415 263 416 263 421 264 422 264 423 263 424 263 430 264 431 264 432 263 433 263 438 264 439 264 440 263 441 263 447 264 448 264 449 263 450 263 454 264 455 581 455 583 457 582 458 582 463 583 464 583 465 582 466 582 469 583 470 583 471 582 472 582 478 583 479 583 480 582 481 582 486 583 487 583 488 582 489 582 494 583 495 583 496 582 497 582 503 581 504 217 504 215 502 215 409 " style="fill:none;stroke:black;stroke-width:1"/><path d= "M896 383 895 384 890 384 889 385 884 385 883 386 881 386 880 387 877 387 876 388 873 388 872 389 871 389 870 390 868 390 867 391 865 391 864 392 863 392 862 393 860 393 859 394 858 394 856 396 854 396 853 397 852 397 850 399 849 399 848 400 847 400 845 402 844 402 842 404 841 404 839 406 838 406 835 409 834 409 818 425 818 426 815 429 815 430 812 433 812 434 810 436 810 437 809 438 809 439 807 441 807 442 806 443 806 444 805 445 805 446 804 447 804 448 803 449 803 450 802 451 802 452 801 453 801 455 800 456 800 457 799 458 799 460 798 461 798 463 797 464 797 466 796 467 796 470 795 471 795 474 794 475 794 479 793 480 793 485 792 486 792 514 793 515 793 520 794 521 794 526 795 527 795 529 796 530 796 533 797 534 797 536 798 537 798 539 799 540 799 542 800 543 800 545 801 546 801 547 802 548 802 549 803 550 803 551 804 552 804 553 805 554 805 555 806 556 806 557 807 558 807 559 809 561 809 562 810 563 810 564 812 566 812 567 815 570 815 571 818 574 818 575 825 582 825 583 826 584 827 584 835 592 836 592 838 594 839 594 842 597 843 597 845 599 846 599 848 601 849 601 850 602 851 602 852 603 853 603 854 604 855 604 856 605 857 605 858 606 859 606 860 607 861 607 862 608 864 608 865 609 866 609 867 610 869 610 870 611 872 611 873 612 875 612 876 613 878 613 879 614 882 614 883 615 887 615 888 616 894 616 895 617 924 617 925 616 931 616 932 615 936 615 937 614 940 614 941 613 944 613 945 612 947 612 948 611 949 611 950 610 952 610 953 609 955 609 956 608 957 608 958 607 959 607 960 606 961 606 962 605 963 605 964 604 966 604 968 602 969 602 970 601 971 601 973 599 974 599 975 598 976 598 979 595 980 595 983 592 984 592 990 586 991 586 995 582 995 581 1002 574 1002 573 1005 570 1005 569 1008 566 1008 565 1009 564 1009 563 1011 561 1011 560 1012 559 1012 558 1014 556 1014 555 1015 554 1015 553 1016 552 1016 551 1017 550 1017 549 1018 548 1018 546 1019 545 1019 543 1020 542 1020 540 1021 539 1021 538 1022 537 1022 535 1023 534 1023 531 1024 530 1024 527 1025 526 1025 522 1026 521 1026 516 1027 515 1027 486 1026 485 1026 479 1025 478 1025 474 1024 473 1024 470 1023 469 1023 467 1022 466 1022 464 1021 463 1021 461 1020 460 1020 458 1019 457 1019 455 1018 454 1018 453 1017 452 1017 451 1016 450 1016 449 1015 448 1015 447 1014 446 1014 445 1013 444 1013 443 1012 442 1012 441 1010 439 1010 438 1009 437 1009 436 1007 434 1007 433 1004 430 1004 429 1001 426 1001 425 985 409 984 409 981 406 980 406 977 403 976 403 974 401 973 401 972 400 971 400 969 398 968 398 967 397 966 397 965 396 964 396 963 395 962 395 961 394 960 394 959 393 957 393 956 392 955 392 954 391 952 391 951 390 950 390 949 389 947 389 946 388 944 388 943 387 940 387 939 386 936 386 935 385 931 385 930 384 924 384 923 383 " style="fill:none;stroke:black;stroke-width:1"/><path d= "M895 384 896 383 923 383 924 384 930 384 931 385 935 385 936 386 939 386 940 387 943 387 944 388 946 388 947 389 949 389 950 390 951 390 952 391 954 391 955 392 956 392 957 393 958 393 959 394 960 394 961 395 963 395 965 397 966 397 967 398 968 398 970 400 971 400 972 401 973 401 975 403 976 403 979 406 980 406 983 409 984 409 1002 427 1002 428 1005 431 1005 432 1007 434 1007 435 1009 437 1009 438 1011 440 1011 441 1012 442 1012 443 1013 444 1013 445 1014 446 1014 447 1015 448 1015 449 1016 450 1016 451 1017 452 1017 453 1019 455 1019 457 1020 458 1020 460 1021 461 1021 463 1022 464 1022 466 1023 467 1023 469 1024 470 1024 473 1025 474 1025 478 1026 479 1026 485 1027 486 1027 515 1026 516 1026 521 1025 522 1025 526 1024 527 1024 530 1023 531 1023 534 1022 535 1022 537 1021 538 1021 539 1020 540 1020 542 1019 543 1019 545 1018 546 1018 547 1017 548 1017 549 1016 550 1016 551 1015 552 1015 553 1014 554 1014 555 1012 557 1012 558 1011 559 1011 560 1009 562 1009 563 1008 564 1008 565 1005 568 1005 569 1002 572 1002 573 996 579 996 580 990 586 989 586 983 592 982 592 979 595 978 595 975 598 974 598 973 599 972 599 970 601 969 601 968 602 967 602 965 604 964 604 963 605 962 605 961 606 959 606 957 608 956 608 955 609 953 609 952 610 950 610 949 611 948 611 947 612 945 612 944 613 941 613 940 614 937 614 936 615 932 615 931 616 925 616 924 617 895 617 894 616 888 616 887 615 883 615 882 614 879 614 878 613 876 613 875 612 873 612 872 611 870 611 869 610 867 610 866 609 865 609 864 608 863 608 862 607 861 607 860 606 859 606 858 605 856 605 855 604 854 604 852 602 851 602 850 601 849 601 847 599 846 599 844 597 843 597 841 595 840 595 837 592 836 592 828 584 827 584 825 582 825 581 817 573 817 572 814 569 814 568 812 566 812 565 810 563 810 562 808 560 808 559 807 558 807 557 806 556 806 555 805 554 805 553 804 552 804 551 803 550 803 549 802 548 802 547 800 545 800 543 799 542 799 540 798 539 798 537 797 536 797 534 796 533 796 530 795 529 795 527 794 526 794 521 793 520 793 515 792 514 792 486 793 485 793 480 794 479 794 475 795 474 795 471 796 470 796 467 797 466 797 464 798 463 798 461 799 460 799 458 800 457 800 456 801 455 801 454 802 453 802 452 803 451 803 450 804 449 804 448 805 447 805 446 806 445 806 444 807 443 807 442 809 440 809 439 810 438 810 437 812 435 812 434 815 431 815 430 818 427 818 426 835 409 836 409 839 406 840 406 842 404 843 404 845 402 846 402 848 400 849 400 850 399 851 399 853 397 854 397 855 396 856 396 857 395 858 395 859 394 860 394 861 393 862 393 863 392 864 392 865 391 867 391 868 390 870 390 871 389 872 389 873 388 876 388 877 387 880 387 881 386 883 386 884 385 889 385 890 384 " style="fill:none;stroke:black;stroke-width:1"/><path d= "M844 466 844 467 843 468 843 469 842 470 842 471 841 472 841 474 840 475 840 477 839 478 839 480 838 481 838 484 837 485 837 489 836 490 836 510 837 511 837 516 838 517 838 520 839 521 839 523 840 524 840 526 841 527 841 528 842 529 842 531 843 532 843 533 844 534 844 535 845 536 845 537 847 539 847 540 849 542 849 543 851 545 851 546 863 558 864 558 867 561 868 561 869 562 870 562 872 564 873 564 874 565 876 565 878 567 880 567 881 568 882 568 883 569 885 569 886 570 888 570 889 571 892 571 893 572 897 572 898 573 921 573 922 572 927 572 928 571 930 571 931 570 933 570 934 569 936 569 937 568 938 568 939 567 941 567 942 566 943 566 944 565 944 564 846 466 " style="fill:none;stroke:black;stroke-width:1"/><path d= "M845 466 943 564 943 565 941 567 939 567 938 568 937 568 936 569 934 569 933 570 931 570 930 571 928 571 927 572 922 572 921 573 898 573 897 572 893 572 892 571 889 571 888 570 886 570 885 569 883 569 882 568 881 568 880 567 879 567 878 566 877 566 876 565 875 565 874 564 873 564 871 562 870 562 869 561 868 561 865 558 864 558 851 545 851 544 849 542 849 541 847 539 847 538 845 536 845 535 843 533 843 531 842 530 842 529 841 528 841 527 840 526 840 524 839 523 839 521 838 520 838 517 837 516 837 511 836 510 836 490 837 489 837 485 838 484 838 481 839 480 839 478 840 477 840 475 841 474 841 472 843 470 843 468 " style="fill:none;stroke:black;stroke-width:1"/><path d= "M900 427 899 428 894 428 893 429 890 429 889 430 887 430 886 431 884 431 883 432 882 432 881 433 879 433 878 434 877 434 876 435 875 435 875 437 876 437 880 441 880 442 884 446 885 446 973 534 975 534 976 533 976 532 977 531 977 530 978 529 978 527 979 526 979 524 980 523 980 521 981 520 981 517 982 516 982 512 983 511 983 489 982 488 982 484 981 483 981 480 980 479 980 477 979 476 979 474 978 473 978 471 976 469 976 467 975 466 975 465 974 464 974 463 972 461 972 460 970 458 970 457 967 454 967 453 957 443 956 443 953 440 952 440 950 438 949 438 948 437 947 437 945 435 943 435 942 434 941 434 940 433 939 433 938 432 936 432 935 431 933 431 932 430 930 430 929 429 926 429 925 428 921 428 920 427 " style="fill:none;stroke:black;stroke-width:1"/><path d= "M899 428 900 427 920 427 921 428 925 428 926 429 929 429 930 430 932 430 933 431 935 431 936 432 938 432 940 434 942 434 943 435 944 435 946 437 947 437 948 438 949 438 951 440 952 440 955 443 956 443 968 455 968 456 970 458 970 459 972 461 972 462 974 464 974 465 975 466 975 467 976 468 976 469 977 470 977 471 978 472 978 473 979 474 979 476 980 477 980 479 981 480 981 483 982 484 982 488 983 489 983 511 982 512 982 516 981 517 981 520 980 521 980 523 979 524 979 526 978 527 978 529 976 531 976 532 974 534 886 446 885 446 875 436 877 434 878 434 879 433 881 433 882 432 883 432 884 431 886 431 887 430 889 430 890 429 893 429 894 428 " style="fill:none;stroke:black;stroke-width:1"/><path d= "M1034 306 1034 315 " style="fill:none;stroke:black;stroke-width:1"/><path d= "M1035 295 1035 304 " style="fill:none;stroke:black;stroke-width:1"/><path d= "M518 167 516 169 516 344 517 345 694 345 694 331 695 330 695 329 694 328 694 298 695 297 695 296 694 295 694 267 695 266 695 265 694 264 694 236 695 235 695 234 694 233 694 205 695 204 695 203 694 202 694 174 695 173 695 172 694 171 694 168 693 167 " style="fill:none;stroke:black;stroke-width:1"/><path d= "M518 167 693 167 694 168 694 171 695 172 695 173 694 174 694 202 695 203 695 204 694 205 694 233 695 234 695 235 694 236 694 264 695 265 695 266 694 267 694 295 695 296 695 297 694 298 694 328 695 329 695 330 694 331 694 344 693 345 517 345 516 344 516 169 " style="fill:none;stroke:black;stroke-width:1"/><path d= "M590 241 589 242 587 242 583 246 583 248 582 249 582 271 583 272 680 272 680 246 676 242 674 242 673 241 " style="fill:none;stroke:black;stroke-width:1"/><path d= "M589 242 590 241 673 241 674 242 675 242 680 247 680 271 679 272 583 272 582 271 582 249 583 248 583 247 588 242 " style="fill:none;stroke:black;stroke-width:1"/><path d= "M983 148 982 149 982 150 980 152 980 153 977 156 977 157 975 159 975 160 973 162 973 163 970 166 970 167 968 169 968 170 966 172 964 172 963 171 962 171 961 170 960 170 959 169 957 169 956 168 955 168 954 167 953 167 952 166 951 166 950 165 949 165 948 164 947 164 946 163 944 163 943 162 942 162 941 161 940 161 939 160 937 160 937 161 936 162 936 169 935 170 935 181 934 182 934 190 932 192 922 192 921 193 910 193 909 194 903 194 909 194 910 195 909 196 902 196 903 197 903 199 904 200 904 201 905 202 905 203 906 204 906 205 907 206 907 208 908 209 908 210 909 211 909 212 910 213 910 214 911 215 911 216 912 217 912 218 913 219 913 221 915 223 913 225 912 225 910 227 909 227 907 229 906 229 903 232 902 232 900 234 899 234 897 236 896 236 893 239 892 239 890 241 890 243 893 246 894 246 896 248 897 248 900 251 901 251 903 253 904 253 906 255 907 255 910 258 911 258 913 260 914 260 915 261 914 262 914 263 913 264 913 265 912 266 912 267 911 268 911 269 910 270 910 271 909 272 909 274 908 275 908 276 907 277 907 278 906 279 906 280 905 281 905 282 904 283 904 284 903 285 903 288 902 289 903 290 906 290 907 291 917 291 918 292 928 292 918 292 917 291 918 290 929 290 930 291 934 291 936 293 936 303 935 304 934 303 934 294 933 293 930 293 933 293 934 294 934 303 935 304 935 314 936 315 936 322 936 315 937 314 938 315 938 322 939 322 940 323 939 324 937 324 940 324 941 323 942 323 943 322 944 322 945 321 946 321 947 320 948 320 949 319 951 319 952 318 953 318 954 317 955 317 956 316 957 316 958 315 959 315 960 314 961 314 962 313 964 313 965 312 966 312 967 313 967 314 970 317 970 318 972 320 972 321 974 323 974 324 977 327 977 328 979 330 979 331 982 334 982 335 983 336 986 336 988 334 988 333 990 331 990 330 993 327 993 326 995 324 995 323 998 320 998 319 1000 317 1000 316 1002 314 1002 313 1003 312 1005 312 1006 313 1007 313 1008 314 1009 314 1010 315 1011 315 1012 316 1013 316 1014 317 1015 317 1016 318 1018 318 1019 319 1020 319 1021 320 1022 320 1023 321 1024 321 1025 322 1026 322 1027 323 1028 323 1029 324 1032 324 1033 323 1033 317 1033 323 1032 324 1030 324 1029 323 1030 322 1031 322 1031 316 1032 315 1032 305 1033 304 1033 294 1034 293 1034 292 1035 291 1040 291 1041 292 1040 293 1036 293 1040 293 1041 292 1051 292 1052 291 1062 291 1063 290 1067 290 1067 287 1066 286 1066 285 1065 284 1065 283 1064 282 1064 281 1063 280 1063 278 1062 277 1062 276 1061 275 1061 274 1060 273 1060 272 1059 271 1059 270 1058 269 1058 268 1057 267 1057 266 1056 265 1056 263 1055 262 1055 263 1054 264 1053 263 1053 259 1054 258 1055 258 1057 256 1058 256 1061 253 1062 253 1064 251 1065 251 1067 249 1068 249 1071 246 1072 246 1074 244 1075 244 1077 242 1076 241 1075 241 1073 239 1072 239 1069 236 1068 236 1066 234 1065 234 1063 232 1062 232 1059 229 1058 229 1056 227 1055 227 1053 225 1053 221 1054 220 1054 219 1055 218 1056 219 1056 221 1055 222 1055 224 1056 225 1057 225 1059 227 1060 227 1063 230 1064 230 1066 232 1067 232 1069 234 1070 234 1073 237 1074 237 1076 239 1077 239 1079 241 1079 243 1076 246 1075 246 1073 248 1072 248 1069 251 1068 251 1066 253 1065 253 1063 255 1062 255 1059 258 1058 258 1056 260 1055 260 1056 260 1058 258 1059 258 1061 256 1062 256 1065 253 1066 253 1068 251 1069 251 1071 249 1072 249 1075 246 1076 246 1078 244 1079 244 1079 241 1076 238 1075 238 1073 236 1072 236 1070 234 1069 234 1066 231 1065 231 1063 229 1062 229 1060 227 1059 227 1055 223 1055 222 1056 221 1056 220 1057 219 1057 218 1058 217 1058 215 1059 214 1059 213 1060 212 1060 211 1061 210 1061 209 1062 208 1062 207 1063 206 1063 205 1064 204 1064 203 1065 202 1065 200 1066 199 1066 198 1067 197 1067 195 1066 194 1060 194 1059 193 1049 193 1048 192 1037 192 1035 190 1035 180 1034 179 1034 169 1033 168 1033 162 1033 168 1032 169 1031 168 1031 160 1031 162 1030 163 1029 163 1028 164 1026 164 1025 163 1026 162 1027 162 1028 161 1029 161 1028 161 1027 162 1026 162 1025 163 1024 163 1023 164 1021 164 1020 165 1019 165 1018 166 1017 166 1016 167 1015 167 1014 168 1013 168 1012 169 1011 169 1010 170 1008 170 1007 171 1006 171 1005 172 1003 172 1002 171 1002 170 999 167 999 166 997 164 997 163 994 160 994 159 992 157 992 156 990 154 990 153 987 150 987 149 986 148 " style="fill:none;stroke:black;stroke-width:1"/><path d= "M1027 322 1028 321 1029 321 1030 322 1029 323 1028 323 " style="fill:none;stroke:black;stroke-width:1"/><path d= "M945 319 946 318 948 318 949 319 948 320 947 320 946 321 945 321 944 322 943 322 942 323 940 323 939 322 940 321 941 321 942 320 943 320 944 319 " style="fill:none;stroke:black;stroke-width:1"/><path d= "M1018 318 1019 317 1021 317 1022 318 1023 318 1024 319 1025 319 1026 320 1027 320 1028 321 1027 322 1025 322 1024 321 1023 321 1022 320 1021 320 1020 319 1019 319 " style="fill:none;stroke:black;stroke-width:1"/><path d= "M948 318 949 317 950 317 951 318 950 319 949 319 " style="fill:none;stroke:black;stroke-width:1"/><path d= "M1016 317 1017 316 1018 316 1019 317 1018 318 1017 318 " style="fill:none;stroke:black;stroke-width:1"/><path d= "M950 317 951 316 952 316 953 317 952 318 951 318 " style="fill:none;stroke:black;stroke-width:1"/><path d= "M1014 316 1015 315 1016 315 1017 316 1016 317 1015 317 " style="fill:none;stroke:black;stroke-width:1"/><path d= "M958 313 959 312 961 312 962 313 961 314 960 314 959 315 958 315 957 316 956 316 955 317 953 317 952 316 953 315 954 315 955 314 956 314 957 313 " style="fill:none;stroke:black;stroke-width:1"/><path d= "M1005 312 1006 311 1008 311 1009 312 1010 312 1011 313 1012 313 1013 314 1014 314 1015 315 1014 316 1012 316 1011 315 1010 315 1009 314 1008 314 1007 313 1006 313 " style="fill:none;stroke:black;stroke-width:1"/><path d= "M961 312 962 311 963 311 964 312 963 313 962 313 " style="fill:none;stroke:black;stroke-width:1"/><path d= "M963 311 964 310 967 310 970 313 970 314 972 316 972 317 975 320 975 321 977 323 977 324 979 326 979 327 982 330 982 331 984 333 984 334 985 334 985 333 988 330 988 329 990 327 990 326 993 323 993 322 995 320 995 319 997 317 997 316 1000 313 1000 312 1002 310 1005 310 1006 311 1005 312 1003 312 1002 313 1002 314 1000 316 1000 317 997 320 997 321 995 323 995 324 992 327 992 328 990 330 990 331 987 334 987 335 986 336 983 336 982 335 982 334 980 332 980 331 977 328 977 327 975 325 975 324 972 321 972 320 970 318 970 317 968 315 968 314 966 312 964 312 " style="fill:none;stroke:black;stroke-width:1"/><path d= "M935 304 936 303 937 304 937 314 936 315 935 314 " style="fill:none;stroke:black;stroke-width:1"/><path d= "M1040 291 1041 290 1051 290 1052 291 1051 292 1041 292 " style="fill:none;stroke:black;stroke-width:1"/><path d= "M1051 290 1052 289 1062 289 1063 290 1062 291 1052 291 " style="fill:none;stroke:black;stroke-width:1"/><path d= "M906 290 907 289 917 289 918 290 917 291 907 291 " style="fill:none;stroke:black;stroke-width:1"/><path d= "M903 286 904 285 905 286 905 288 906 288 907 289 906 290 903 290 902 289 903 288 " style="fill:none;stroke:black;stroke-width:1"/><path d= "M1064 285 1065 284 1066 285 1066 286 1067 287 1067 289 1066 290 1063 290 1062 289 1063 288 1065 288 1064 287 " style="fill:none;stroke:black;stroke-width:1"/><path d= "M906 281 907 282 907 283 906 284 906 285 905 286 904 285 904 283 " style="fill:none;stroke:black;stroke-width:1"/><path d= "M1062 281 1063 280 1064 281 1064 282 1065 283 1065 284 1064 285 1062 283 " style="fill:none;stroke:black;stroke-width:1"/><path d= "M1061 279 1062 278 1063 279 1063 280 1062 281 1061 280 " style="fill:none;stroke:black;stroke-width:1"/><path d= "M1060 277 1061 276 1062 277 1062 278 1061 279 1060 278 " style="fill:none;stroke:black;stroke-width:1"/><path d= "M907 277 908 276 909 277 909 279 908 280 908 281 907 282 906 281 906 279 907 278 " style="fill:none;stroke:black;stroke-width:1"/><path d= "M1058 273 1059 272 1061 274 1061 276 1060 277 1059 276 1059 275 1058 274 " style="fill:none;stroke:black;stroke-width:1"/><path d= "M909 273 910 272 911 273 911 275 909 277 908 276 908 275 909 274 " style="fill:none;stroke:black;stroke-width:1"/><path d= "M910 271 911 270 912 271 912 272 911 273 910 272 " style="fill:none;stroke:black;stroke-width:1"/><path d= "M1056 268 1057 267 1058 268 1058 269 1059 270 1059 272 1058 273 1057 272 1057 271 1056 270 " style="fill:none;stroke:black;stroke-width:1"/><path d= "M1054 264 1055 263 1056 264 1056 265 1057 266 1057 267 1056 268 1054 266 " style="fill:none;stroke:black;stroke-width:1"/><path d= "M914 262 915 261 916 262 916 264 915 265 915 266 914 267 914 268 913 269 913 270 912 271 911 270 911 268 912 267 912 266 913 265 913 264 914 263 " style="fill:none;stroke:black;stroke-width:1"/><path d= "M915 261 916 260 917 261 916 262 " style="fill:none;stroke:black;stroke-width:1"/><path d= "M916 222 917 223 917 224 914 227 913 227 910 230 909 230 907 232 906 232 904 234 903 234 900 237 899 237 897 239 896 239 894 241 893 241 892 242 894 244 895 244 897 246 898 246 900 248 901 248 904 251 905 251 907 253 908 253 910 255 911 255 914 258 915 258 916 259 916 260 915 261 914 260 913 260 910 257 909 257 907 255 906 255 904 253 903 253 900 250 899 250 897 248 896 248 894 246 893 246 890 243 890 241 892 239 893 239 895 237 896 237 898 235 899 235 902 232 903 232 905 230 906 230 908 228 909 228 912 225 913 225 " style="fill:none;stroke:black;stroke-width:1"/><path d= "M914 221 915 220 916 221 916 222 915 223 914 222 " style="fill:none;stroke:black;stroke-width:1"/><path d= "M913 219 914 218 915 219 915 220 914 221 913 220 " style="fill:none;stroke:black;stroke-width:1"/><path d= "M1055 217 1056 216 1057 217 1057 218 1056 219 1055 218 " style="fill:none;stroke:black;stroke-width:1"/><path d= "M911 214 912 213 913 214 913 215 914 216 914 218 913 219 912 218 912 217 911 216 " style="fill:none;stroke:black;stroke-width:1"/><path d= "M1058 212 1059 213 1059 214 1058 215 1058 216 1057 217 1056 216 1056 214 " style="fill:none;stroke:black;stroke-width:1"/><path d= "M1058 211 1059 210 1060 211 1060 212 1059 213 1058 212 " style="fill:none;stroke:black;stroke-width:1"/><path d= "M909 210 910 209 911 210 911 211 912 212 912 213 911 214 909 212 " style="fill:none;stroke:black;stroke-width:1"/><path d= "M1059 208 1060 207 1061 208 1061 210 1060 211 1059 210 " style="fill:none;stroke:black;stroke-width:1"/><path d= "M908 208 909 207 910 208 910 209 909 210 908 209 " style="fill:none;stroke:black;stroke-width:1"/><path d= "M1060 206 1061 205 1062 206 1062 207 1061 208 1060 207 " style="fill:none;stroke:black;stroke-width:1"/><path d= "M907 206 908 205 909 206 909 207 908 208 907 207 " style="fill:none;stroke:black;stroke-width:1"/><path d= "M1061 204 1062 203 1063 204 1063 205 1062 206 1061 205 " style="fill:none;stroke:black;stroke-width:1"/><path d= "M1062 202 1063 201 1064 202 1064 203 1063 204 1062 203 " style="fill:none;stroke:black;stroke-width:1"/><path d= "M905 202 906 201 908 203 908 205 907 206 906 205 906 204 905 203 " style="fill:none;stroke:black;stroke-width:1"/><path d= "M1063 200 1064 199 1065 200 1065 201 1064 202 1063 201 " style="fill:none;stroke:black;stroke-width:1"/><path d= "M903 197 904 196 905 197 905 198 906 199 906 201 905 202 904 201 904 200 903 199 " style="fill:none;stroke:black;stroke-width:1"/><path d= "M1048 194 1049 193 1059 193 1060 194 1059 195 1049 195 " style="fill:none;stroke:black;stroke-width:1"/><path d= "M909 194 910 193 921 193 922 194 921 195 910 195 " style="fill:none;stroke:black;stroke-width:1"/><path d= "M1036 193 1037 192 1048 192 1049 193 1048 194 1037 194 " style="fill:none;stroke:black;stroke-width:1"/><path d= "M921 193 922 192 932 192 933 193 932 194 922 194 " style="fill:none;stroke:black;stroke-width:1"/><path d= "M1034 191 1035 190 1037 192 1036 193 1035 193 1034 192 " style="fill:none;stroke:black;stroke-width:1"/><path d= "M934 182 935 181 936 182 936 191 934 193 933 193 932 192 934 190 " style="fill:none;stroke:black;stroke-width:1"/><path d= "M1033 180 1034 179 1035 180 1035 190 1034 191 1033 190 " style="fill:none;stroke:black;stroke-width:1"/><path d= "M965 174 966 173 967 174 966 175 " style="fill:none;stroke:black;stroke-width:1"/><path d= "M962 173 963 172 965 172 966 173 965 174 963 174 " style="fill:none;stroke:black;stroke-width:1"/><path d= "M1006 172 1007 171 1008 171 1009 172 1008 173 1007 173 " style="fill:none;stroke:black;stroke-width:1"/><path d= "M960 172 961 171 962 171 963 172 962 173 961 173 " style="fill:none;stroke:black;stroke-width:1"/><path d= "M1008 171 1009 170 1010 170 1011 171 1010 172 1009 172 " style="fill:none;stroke:black;stroke-width:1"/><path d= "M958 171 959 170 960 170 961 171 960 172 959 172 " style="fill:none;stroke:black;stroke-width:1"/><path d= "M1010 170 1011 169 1012 169 1013 170 1012 171 1011 171 " style="fill:none;stroke:black;stroke-width:1"/><path d= "M956 170 957 169 958 169 959 170 958 171 957 171 " style="fill:none;stroke:black;stroke-width:1"/><path d= "M935 170 936 169 937 170 937 181 936 182 935 181 " style="fill:none;stroke:black;stroke-width:1"/><path d= "M1032 169 1033 168 1034 169 1034 179 1033 180 1032 179 " style="fill:none;stroke:black;stroke-width:1"/><path d= "M954 169 955 168 956 168 957 169 956 170 955 170 " style="fill:none;stroke:black;stroke-width:1"/><path d= "M1016 167 1017 166 1019 166 1020 167 1019 168 1018 168 1017 169 1016 169 1015 170 1013 170 1012 169 1013 168 1014 168 1015 167 " style="fill:none;stroke:black;stroke-width:1"/><path d= "M1019 166 1020 165 1021 165 1022 166 1021 167 1020 167 " style="fill:none;stroke:black;stroke-width:1"/><path d= "M947 166 948 165 950 165 951 166 952 166 953 167 954 167 955 168 954 169 952 169 951 168 950 168 949 167 948 167 " style="fill:none;stroke:black;stroke-width:1"/><path d= "M1021 165 1022 164 1023 164 1024 165 1023 166 1022 166 " style="fill:none;stroke:black;stroke-width:1"/><path d= "M945 165 946 164 947 164 948 165 947 166 946 166 " style="fill:none;stroke:black;stroke-width:1"/><path d= "M1023 164 1024 163 1025 163 1026 164 1025 165 1024 165 " style="fill:none;stroke:black;stroke-width:1"/><path d= "M943 164 944 163 945 163 946 164 945 165 944 165 " style="fill:none;stroke:black;stroke-width:1"/><path d= "M938 160 939 160 940 161 941 161 942 162 943 162 944 163 943 164 941 164 940 163 938 163 938 169 937 170 936 169 936 162 " style="fill:none;stroke:black;stroke-width:1"/><path d= "M983 152 984 151 985 151 987 153 987 154 989 156 989 157 991 159 991 160 994 163 994 164 996 166 996 167 999 170 999 171 1001 173 1001 174 1002 174 1003 175 1004 174 1006 174 1007 173 1009 173 1010 172 1011 172 1012 171 1013 171 1014 170 1015 170 1016 169 1017 169 1018 168 1019 168 1020 167 1022 167 1023 166 1024 166 1025 165 1026 165 1027 164 1028 164 1029 163 1030 163 1031 164 1031 168 1032 169 1032 179 1033 180 1033 190 1034 191 1034 193 1036 193 1037 194 1048 194 1049 195 1059 195 1060 196 1065 196 1060 196 1059 195 1060 194 1066 194 1067 195 1067 197 1066 198 1066 199 1065 200 1064 199 1064 198 1063 199 1063 200 1062 201 1062 203 1061 204 1061 205 1060 206 1060 207 1059 208 1059 209 1058 210 1058 211 1057 212 1057 213 1056 214 1056 215 1055 216 1055 218 1054 219 1054 220 1053 221 1053 225 1055 227 1056 227 1059 230 1060 230 1062 232 1063 232 1065 234 1066 234 1069 237 1070 237 1072 239 1073 239 1075 241 1076 241 1077 242 1076 243 1075 243 1072 246 1071 246 1069 248 1068 248 1066 250 1065 250 1062 253 1061 253 1059 255 1058 255 1055 258 1054 258 1053 259 1053 264 1054 265 1054 266 1055 267 1055 268 1056 269 1056 270 1057 271 1057 272 1058 273 1058 274 1059 275 1059 276 1060 277 1060 279 1061 280 1061 281 1062 282 1062 283 1063 284 1063 285 1064 286 1064 287 1062 289 1052 289 1051 290 1041 290 1040 291 1034 291 1034 293 1033 294 1033 304 1032 305 1032 315 1031 316 1031 321 1030 322 1029 321 1028 321 1027 320 1026 320 1025 319 1024 319 1023 318 1022 318 1021 317 1020 317 1019 316 1018 316 1017 315 1015 315 1014 314 1013 314 1012 313 1011 313 1010 312 1009 312 1008 311 1007 311 1006 310 1002 310 999 313 999 314 997 316 997 317 995 319 995 320 992 323 992 324 990 326 990 327 987 330 987 331 985 333 984 333 982 331 982 330 980 328 980 327 977 324 977 323 975 321 975 320 973 318 973 317 970 314 970 313 968 311 968 310 963 310 962 311 961 311 960 312 959 312 958 313 957 313 956 314 955 314 954 315 953 315 952 316 950 316 949 317 948 317 947 318 946 318 945 319 944 319 943 320 942 320 941 321 940 321 939 322 938 321 938 315 937 314 937 304 936 303 936 293 935 292 935 291 930 291 929 290 918 290 917 289 907 289 905 287 905 286 906 285 906 284 907 283 907 282 908 281 908 280 909 279 909 278 910 277 910 276 911 275 911 274 912 273 912 271 913 270 913 269 914 268 914 267 915 266 915 265 916 264 916 263 917 262 917 261 916 260 916 259 914 257 913 257 911 255 910 255 907 252 906 252 904 250 903 250 901 248 900 248 897 245 896 245 894 243 893 243 892 242 893 241 894 241 896 239 897 239 899 237 900 237 902 235 903 235 905 233 906 233 909 230 910 230 912 228 913 228 915 226 916 226 916 225 917 224 917 223 916 222 916 220 915 219 915 218 914 217 914 216 913 215 913 214 912 213 912 212 911 211 911 210 910 209 910 207 909 206 909 205 908 204 908 203 907 202 907 201 906 200 906 199 905 198 905 197 906 196 909 196 910 195 921 195 922 194 932 194 933 193 935 193 935 192 936 191 936 182 937 181 937 170 938 169 938 164 939 163 940 163 941 164 942 164 943 165 944 165 945 166 947 166 948 167 949 167 950 168 951 168 952 169 953 169 954 170 955 170 956 171 957 171 958 172 960 172 961 173 962 173 963 174 964 174 965 175 967 175 969 173 969 172 971 170 971 169 973 167 973 166 976 163 976 162 978 160 978 159 981 156 981 155 983 153 " style="fill:none;stroke:black;stroke-width:1"/><path d= "M984 148 985 148 989 152 989 153 992 156 992 157 994 159 994 160 996 162 996 163 999 166 999 167 1001 169 1001 170 1003 172 1006 172 1007 173 1006 174 1004 174 1003 175 999 171 999 170 997 168 997 167 994 164 994 163 992 161 992 160 989 157 989 156 987 154 987 153 985 151 984 151 982 153 982 154 980 156 980 157 978 159 978 160 975 163 975 164 973 166 973 167 970 170 970 171 967 174 966 173 966 172 968 170 968 169 971 166 971 165 973 163 973 162 976 159 976 158 978 156 978 155 980 153 980 152 " style="fill:none;stroke:black;stroke-width:1"/><path d= "M214 71 213 72 208 72 207 73 202 73 201 74 198 74 197 75 194 75 193 76 191 76 190 77 188 77 187 78 185 78 184 79 182 79 181 80 180 80 179 81 177 81 176 82 175 82 174 83 173 83 172 84 171 84 170 85 169 85 168 86 167 86 166 87 165 87 163 89 162 89 161 90 160 90 158 92 157 92 154 95 153 95 150 98 149 98 142 105 141 105 136 110 136 111 130 117 130 118 127 121 127 122 124 125 124 126 122 128 122 129 121 130 121 131 119 133 119 134 118 135 118 136 117 137 117 138 116 139 116 140 115 141 115 142 114 143 114 145 113 146 113 147 112 148 112 149 111 150 111 152 110 153 110 155 109 156 109 157 108 158 108 161 107 162 107 165 106 166 106 169 105 170 105 174 104 175 104 181 103 182 103 210 104 211 104 217 105 218 105 223 106 224 106 226 107 227 107 230 108 231 108 234 109 235 109 237 110 238 110 239 111 240 111 242 112 243 112 245 113 246 113 247 114 248 114 249 115 250 115 251 116 252 116 253 117 254 117 256 119 258 119 259 120 260 120 261 122 263 122 264 124 266 124 267 126 269 126 270 129 273 129 274 134 279 134 280 144 290 145 290 150 295 151 295 154 298 155 298 158 301 159 301 160 302 161 302 163 304 164 304 165 305 166 305 168 307 170 307 172 309 174 309 175 310 176 310 177 311 178 311 179 312 181 312 182 313 183 313 184 314 186 314 187 315 189 315 190 316 192 316 193 317 196 317 197 318 200 318 201 319 205 319 206 320 212 320 213 321 244 321 245 320 250 320 251 319 255 319 256 318 259 318 260 317 263 317 264 316 266 316 267 315 269 315 270 314 272 314 273 313 274 313 275 312 277 312 278 311 279 311 280 310 282 310 283 309 284 309 286 307 288 307 289 306 290 306 292 304 293 304 295 302 296 302 297 301 298 301 301 298 302 298 305 295 306 295 310 291 311 291 323 279 323 278 327 274 327 273 330 270 330 269 333 266 333 265 334 264 334 263 336 261 336 260 337 259 337 258 339 256 339 254 341 252 341 251 342 250 342 248 343 247 343 246 344 245 344 243 345 242 345 241 346 240 346 238 347 237 347 235 348 234 348 232 349 231 349 228 350 227 350 224 351 223 351 219 352 218 352 212 353 211 353 181 352 180 352 175 351 174 351 169 350 168 350 166 349 165 349 162 348 161 348 158 347 157 347 155 346 154 346 153 345 152 345 150 344 149 344 147 343 146 343 145 342 144 342 143 341 142 341 141 340 140 340 139 339 138 339 136 337 134 337 133 335 131 335 130 334 129 334 128 332 126 332 125 330 123 330 122 326 118 326 117 321 112 321 111 313 103 312 103 307 98 306 98 303 95 302 95 299 92 298 92 296 90 295 90 294 89 293 89 291 87 290 87 289 86 288 86 287 85 286 85 285 84 284 84 283 83 282 83 281 82 280 82 279 81 277 81 276 80 275 80 274 79 272 79 271 78 269 78 268 77 267 77 266 76 263 76 262 75 259 75 258 74 255 74 254 73 249 73 248 72 243 72 242 71 " style="fill:none;stroke:black;stroke-width:1"/><path d= "M213 72 214 71 242 71 243 72 248 72 249 73 254 73 255 74 258 74 259 75 262 75 263 76 266 76 267 77 268 77 269 78 271 78 272 79 274 79 275 80 276 80 277 81 278 81 279 82 280 82 281 83 283 83 285 85 286 85 287 86 288 86 289 87 290 87 292 89 293 89 294 90 295 90 297 92 298 92 300 94 301 94 305 98 306 98 311 103 312 103 321 112 321 113 327 119 327 120 330 123 330 124 332 126 332 127 334 129 334 130 336 132 336 133 337 134 337 135 339 137 339 139 340 140 340 141 341 142 341 143 343 145 343 146 344 147 344 149 345 150 345 152 346 153 346 154 347 155 347 157 348 158 348 161 349 162 349 165 350 166 350 168 351 169 351 174 352 175 352 180 353 181 353 211 352 212 352 218 351 219 351 223 350 224 350 227 349 228 349 231 348 232 348 234 347 235 347 237 346 238 346 240 345 241 345 242 344 243 344 245 342 247 342 249 341 250 341 251 340 252 340 253 339 254 339 255 338 256 338 257 336 259 336 260 334 262 334 263 333 264 333 265 331 267 331 268 327 272 327 273 323 277 323 278 310 291 309 291 305 295 304 295 300 299 299 299 297 301 296 301 295 302 294 302 292 304 291 304 289 306 288 306 287 307 286 307 285 308 284 308 283 309 282 309 281 310 280 310 279 311 278 311 277 312 275 312 274 313 273 313 272 314 270 314 269 315 267 315 266 316 264 316 263 317 260 317 259 318 256 318 255 319 251 319 250 320 245 320 244 321 213 321 212 320 206 320 205 319 201 319 200 318 197 318 196 317 193 317 192 316 190 316 189 315 187 315 186 314 184 314 183 313 182 313 181 312 179 312 177 310 175 310 174 309 173 309 172 308 171 308 170 307 169 307 167 305 166 305 165 304 164 304 162 302 161 302 160 301 159 301 156 298 155 298 152 295 151 295 146 290 145 290 134 279 134 278 129 273 129 272 126 269 126 268 124 266 124 265 122 263 122 262 120 260 120 259 119 258 119 257 117 255 117 253 116 252 116 251 115 250 115 249 113 247 113 246 112 245 112 243 111 242 111 240 110 239 110 238 109 237 109 235 108 234 108 231 107 230 107 227 106 226 106 224 105 223 105 218 104 217 104 211 103 210 103 182 104 181 104 175 105 174 105 170 106 169 106 166 107 165 107 162 108 161 108 158 109 157 109 156 110 155 110 153 111 152 111 150 112 149 112 148 113 147 113 146 114 145 114 144 115 143 115 142 116 141 116 139 118 137 118 136 119 135 119 134 121 132 121 131 122 130 122 129 124 127 124 126 127 123 127 122 130 119 130 118 136 112 136 111 143 104 144 104 150 98 151 98 154 95 155 95 158 92 159 92 161 90 162 90 163 89 164 89 166 87 167 87 168 86 169 86 170 85 171 85 173 83 175 83 176 82 177 82 178 81 179 81 180 80 181 80 182 79 184 79 185 78 187 78 188 77 190 77 191 76 193 76 194 75 197 75 198 74 201 74 202 73 207 73 208 72 " style="fill:none;stroke:black;stroke-width:1"/><path d= "M756 56 769 56 771 58 771 77 769 79 750 79 748 77 748 64 746 64 746 65 717 94 717 96 746 125 748 125 748 112 750 110 769 110 771 112 771 131 769 133 756 133 756 135 785 164 788 164 817 135 817 133 804 133 802 131 802 112 804 110 823 110 825 112 825 125 827 125 856 96 856 94 827 65 827 64 825 64 825 77 823 79 804 79 802 77 802 58 804 56 817 56 803 56 802 57 802 77 804 79 823 79 824 78 825 78 825 65 826 64 827 65 827 66 856 95 826 125 825 124 825 111 824 111 823 110 804 110 802 112 802 132 803 133 816 133 817 134 787 164 786 164 756 134 757 133 770 133 770 132 771 131 771 112 769 110 750 110 749 111 748 111 748 124 747 125 717 95 746 66 746 65 747 64 748 65 748 78 749 78 750 79 769 79 771 77 771 58 770 57 770 56 " style="fill:none;stroke:black;stroke-width:1"/><path d= "M786 25 757 54 756 54 758 54 786 26 787 26 815 54 817 54 816 54 787 25 " style="fill:none;stroke:black;stroke-width:1"/></svg>