<?xml version="1.0" encoding="utf-8"?><svg version="1.0" id="Layer_1" width="1280" height="720" xmlns="http://www.w3.org/2000/svg" xml:space="preserve"><path d="M216 406 214 408 214 503 216 505 582 505 583 504 583 498 584 497 584 494 583 493 583 490 584 489 584 486 583 485 583 482 584 481 584 478 583 477 583 473 584 472 584 469 583 468 583 467 584 466 584 463 583 462 583 459 584 458 584 456 582 454 265 454 264 453 264 451 265 450 265 447 264 446 264 442 265 441 265 438 264 437 264 434 265 433 265 430 264 429 264 425 265 424 265 421 264 420 264 417 265 416 265 413 264 412 264 407 263 406 Z M218 408 261 408 262 409 262 455 263 456 580 456 581 457 581 502 580 503 218 503 216 501 216 410 Z M895 382 894 383 889 383 888 384 883 384 882 385 880 385 879 386 876 386 875 387 872 387 871 388 870 388 869 389 867 389 866 390 864 390 863 391 862 391 861 392 859 392 858 393 857 393 855 395 853 395 852 396 851 396 849 398 848 398 847 399 846 399 844 401 843 401 841 403 840 403 838 405 837 405 834 408 833 408 817 424 817 425 814 428 814 429 811 432 811 433 809 435 809 436 808 437 808 438 806 440 806 441 805 442 805 443 804 444 804 445 803 446 803 447 802 448 802 449 801 450 801 451 800 452 800 454 799 455 799 456 798 457 798 459 797 460 797 462 796 463 796 465 795 466 795 469 794 470 794 473 793 474 793 478 792 479 792 484 791 485 791 515 792 516 792 521 793 522 793 527 794 528 794 530 795 531 795 534 796 535 796 537 797 538 797 540 798 541 798 543 799 544 799 546 800 547 800 548 801 549 801 550 802 551 802 552 803 553 803 554 804 555 804 556 805 557 805 558 806 559 806 560 808 562 808 563 809 564 809 565 811 567 811 568 814 571 814 572 817 575 817 576 824 583 824 584 825 585 826 585 834 593 835 593 837 595 838 595 841 598 842 598 844 600 845 600 847 602 848 602 849 603 850 603 851 604 852 604 853 605 854 605 855 606 856 606 857 607 858 607 859 608 860 608 861 609 863 609 864 610 865 610 866 611 868 611 869 612 871 612 872 613 874 613 875 614 877 614 878 615 881 615 882 616 886 616 887 617 893 617 894 618 925 618 926 617 932 617 933 616 937 616 938 615 941 615 942 614 945 614 946 613 948 613 949 612 950 612 951 611 953 611 954 610 956 610 957 609 958 609 959 608 960 608 961 607 962 607 963 606 964 606 965 605 967 605 969 603 970 603 971 602 972 602 974 600 975 600 976 599 977 599 980 596 981 596 984 593 985 593 991 587 992 587 996 583 996 582 1003 575 1003 574 1006 571 1006 570 1009 567 1009 566 1010 565 1010 564 1012 562 1012 561 1013 560 1013 559 1015 557 1015 556 1016 555 1016 554 1017 553 1017 552 1018 551 1018 550 1019 549 1019 547 1020 546 1020 544 1021 543 1021 541 1022 540 1022 539 1023 538 1023 536 1024 535 1024 532 1025 531 1025 528 1026 527 1026 523 1027 522 1027 517 1028 516 1028 485 1027 484 1027 478 1026 477 1026 473 1025 472 1025 469 1024 468 1024 466 1023 465 1023 463 1022 462 1022 460 1021 459 1021 457 1020 456 1020 454 1019 453 1019 452 1018 451 1018 450 1017 449 1017 448 1016 447 1016 446 1015 445 1015 444 1014 443 1014 442 1013 441 1013 440 1011 438 1011 437 1010 436 1010 435 1008 433 1008 432 1005 429 1005 428 1002 425 1002 424 986 408 985 408 982 405 981 405 978 402 977 402 975 400 974 400 973 399 972 399 970 397 969 397 968 396 967 396 966 395 965 395 964 394 963 394 962 393 961 393 960 392 958 392 957 391 956 391 955 390 953 390 952 389 951 389 950 388 948 388 947 387 945 387 944 386 941 386 940 385 937 385 936 384 932 384 931 383 925 383 924 382 Z M896 385 897 384 922 384 923 385 929 385 930 386 934 386 935 387 938 387 939 388 942 388 943 389 945 389 946 390 948 390 949 391 950 391 951 392 953 392 954 393 955 393 956 394 957 394 958 395 959 395 960 396 962 396 964 398 965 398 966 399 967 399 969 401 970 401 971 402 972 402 974 404 975 404 978 407 979 407 982 410 983 410 1001 428 1001 429 1004 432 1004 433 1006 435 1006 436 1008 438 1008 439 1010 441 1010 442 1011 443 1011 444 1012 445 1012 446 1013 447 1013 448 1014 449 1014 450 1015 451 1015 452 1016 453 1016 454 1018 456 1018 458 1019 459 1019 461 1020 462 1020 464 1021 465 1021 467 1022 468 1022 470 1023 471 1023 474 1024 475 1024 479 1025 480 1025 486 1026 487 1026 514 1025 515 1025 520 1024 521 1024 525 1023 526 1023 529 1022 530 1022 533 1021 534 1021 536 1020 537 1020 538 1019 539 1019 541 1018 542 1018 544 1017 545 1017 546 1016 547 1016 548 1015 549 1015 550 1014 551 1014 552 1013 553 1013 554 1011 556 1011 557 1010 558 1010 559 1008 561 1008 562 1007 563 1007 564 1004 567 1004 568 1001 571 1001 572 995 578 995 579 989 585 988 585 982 591 981 591 978 594 977 594 974 597 973 597 972 598 971 598 969 600 968 600 967 601 966 601 964 603 963 603 962 604 961 604 960 605 958 605 956 607 955 607 954 608 952 608 951 609 949 609 948 610 947 610 946 611 944 611 943 612 940 612 939 613 936 613 935 614 931 614 930 615 924 615 923 616 896 616 895 615 889 615 888 614 884 614 883 613 880 613 879 612 877 612 876 611 874 611 873 610 871 610 870 609 868 609 867 608 866 608 865 607 864 607 863 606 862 606 861 605 860 605 859 604 857 604 856 603 855 603 853 601 852 601 851 600 850 600 848 598 847 598 845 596 844 596 842 594 841 594 838 591 837 591 829 583 828 583 826 581 826 580 818 572 818 571 815 568 815 567 813 565 813 564 811 562 811 561 809 559 809 558 808 557 808 556 807 555 807 554 806 553 806 552 805 551 805 550 804 549 804 548 803 547 803 546 801 544 801 542 800 541 800 539 799 538 799 536 798 535 798 533 797 532 797 529 796 528 796 526 795 525 795 520 794 519 794 514 793 513 793 487 794 486 794 481 795 480 795 476 796 475 796 472 797 471 797 468 798 467 798 465 799 464 799 462 800 461 800 459 801 458 801 457 802 456 802 455 803 454 803 453 804 452 804 451 805 450 805 449 806 448 806 447 807 446 807 445 808 444 808 443 810 441 810 440 811 439 811 438 813 436 813 435 816 432 816 431 819 428 819 427 836 410 837 410 840 407 841 407 843 405 844 405 846 403 847 403 849 401 850 401 851 400 852 400 854 398 855 398 856 397 857 397 858 396 859 396 860 395 861 395 862 394 863 394 864 393 865 393 866 392 868 392 869 391 871 391 872 390 873 390 874 389 877 389 878 388 881 388 882 387 884 387 885 386 890 386 891 385 Z M844 465 842 467 842 468 841 469 841 470 840 471 840 473 839 474 839 476 838 477 838 479 837 480 837 483 836 484 836 488 835 489 835 511 836 512 836 517 837 518 837 521 838 522 838 524 839 525 839 527 840 528 840 529 841 530 841 532 842 533 842 534 843 535 843 536 844 537 844 538 846 540 846 541 848 543 848 544 850 546 850 547 862 559 863 559 866 562 867 562 868 563 869 563 871 565 872 565 873 566 875 566 877 568 879 568 880 569 881 569 882 570 884 570 885 571 887 571 888 572 891 572 892 573 896 573 897 574 922 574 923 573 928 573 929 572 931 572 932 571 934 571 935 570 937 570 938 569 939 569 940 568 942 568 943 567 944 567 945 566 945 563 847 465 Z M844 469 845 468 941 564 941 565 940 566 938 566 937 567 936 567 935 568 933 568 932 569 930 569 929 570 927 570 926 571 921 571 920 572 899 572 898 571 894 571 893 570 890 570 889 569 887 569 886 568 884 568 883 567 882 567 881 566 880 566 879 565 878 565 877 564 876 564 875 563 874 563 872 561 871 561 870 560 869 560 866 557 865 557 852 544 852 543 850 541 850 540 848 538 848 537 846 535 846 534 844 532 844 530 843 529 843 528 842 527 842 526 841 525 841 523 840 522 840 520 839 519 839 516 838 515 838 510 837 509 837 491 838 490 838 486 839 485 839 482 840 481 840 479 841 478 841 476 842 475 842 473 844 471 Z M899 426 898 427 893 427 892 428 889 428 888 429 886 429 885 430 883 430 882 431 881 431 880 432 878 432 877 433 876 433 874 435 874 437 879 442 879 443 883 447 884 447 972 535 976 535 977 534 977 533 978 532 978 531 979 530 979 528 980 527 980 525 981 524 981 522 982 521 982 518 983 517 983 513 984 512 984 488 983 487 983 483 982 482 982 479 981 478 981 476 980 475 980 473 979 472 979 470 977 468 977 466 976 465 976 464 975 463 975 462 973 460 973 459 971 457 971 456 968 453 968 452 958 442 957 442 954 439 953 439 951 437 950 437 949 436 948 436 946 434 944 434 943 433 942 433 941 432 940 432 939 431 937 431 936 430 934 430 933 429 931 429 930 428 927 428 926 427 922 427 921 426 Z M900 429 901 428 919 428 920 429 924 429 925 430 928 430 929 431 931 431 932 432 934 432 935 433 937 433 939 435 941 435 942 436 943 436 945 438 946 438 947 439 948 439 950 441 951 441 954 444 955 444 967 456 967 457 969 459 969 460 971 462 971 463 973 465 973 466 974 467 974 468 975 469 975 470 976 471 976 472 977 473 977 474 978 475 978 477 979 478 979 480 980 481 980 484 981 485 981 489 982 490 982 510 981 511 981 515 980 516 980 519 979 520 979 522 978 523 978 525 977 526 977 528 975 530 975 531 974 532 887 445 886 445 877 436 878 435 879 435 880 434 882 434 883 433 884 433 885 432 887 432 888 431 890 431 891 430 894 430 895 429 Z M517 166 515 168 515 345 516 346 694 346 695 345 695 332 696 331 696 328 695 327 695 299 696 298 696 295 695 294 695 268 696 267 696 264 695 263 695 237 696 236 696 233 695 232 695 206 696 205 696 202 695 201 695 175 696 174 696 171 695 170 695 167 694 166 Z M519 168 692 168 693 169 693 343 692 344 518 344 517 343 517 170 Z M589 240 588 241 586 241 582 245 582 247 581 248 581 272 582 273 680 273 681 272 681 245 677 241 675 241 674 240 Z M590 243 591 242 672 242 673 243 674 243 679 248 679 270 678 271 584 271 583 270 583 250 584 249 584 248 589 243 Z M982 147 981 148 981 149 979 151 979 152 976 155 976 156 974 158 974 159 972 161 972 162 969 165 969 166 967 168 967 169 965 171 964 170 963 170 962 169 961 169 960 168 958 168 957 167 956 167 955 166 954 166 953 165 952 165 951 164 950 164 949 163 948 163 947 162 945 162 944 161 943 161 942 160 941 160 940 159 937 159 935 161 935 168 934 169 934 180 933 181 933 189 931 191 921 191 920 192 909 192 908 193 903 193 902 194 902 195 901 196 901 197 902 198 902 200 903 201 903 202 904 203 904 204 905 205 905 206 906 207 906 209 907 210 907 211 908 212 908 213 909 214 909 215 910 216 910 217 911 218 911 219 912 220 912 222 913 223 912 224 911 224 909 226 908 226 906 228 905 228 902 231 901 231 899 233 898 233 896 235 895 235 892 238 891 238 889 240 889 244 892 247 893 247 895 249 896 249 899 252 900 252 902 254 903 254 905 256 906 256 909 259 910 259 913 262 912 263 912 264 911 265 911 266 910 267 910 268 909 269 909 270 908 271 908 273 907 274 907 275 906 276 906 277 905 278 905 279 904 280 904 281 903 282 903 283 902 284 902 287 901 288 901 290 902 291 905 291 906 292 916 292 917 293 929 293 930 294 932 294 933 295 933 304 934 305 934 315 935 316 935 322 936 323 936 324 937 325 941 325 942 324 943 324 944 323 945 323 946 322 947 322 948 321 949 321 950 320 952 320 953 319 954 319 955 318 956 318 957 317 958 317 959 316 960 316 961 315 962 315 963 314 965 314 969 318 969 319 971 321 971 322 973 324 973 325 976 328 976 329 978 331 978 332 981 335 981 336 982 337 987 337 989 335 989 334 991 332 991 331 994 328 994 327 996 325 996 324 999 321 999 320 1001 318 1001 317 1003 315 1003 314 1004 313 1005 314 1006 314 1007 315 1008 315 1009 316 1010 316 1011 317 1012 317 1013 318 1014 318 1015 319 1017 319 1018 320 1019 320 1020 321 1021 321 1022 322 1023 322 1024 323 1025 323 1026 324 1027 324 1028 325 1033 325 1034 324 1034 316 1035 315 1035 305 1036 304 1036 295 1037 294 1041 294 1042 293 1052 293 1053 292 1063 292 1064 291 1067 291 1068 290 1068 286 1067 285 1067 284 1066 283 1066 282 1065 281 1065 280 1064 279 1064 277 1063 276 1063 275 1062 274 1062 273 1061 272 1061 271 1060 270 1060 269 1059 268 1059 267 1058 266 1058 265 1057 264 1057 261 1059 259 1060 259 1062 257 1063 257 1066 254 1067 254 1069 252 1070 252 1072 250 1073 250 1076 247 1077 247 1080 244 1080 240 1077 237 1076 237 1074 235 1073 235 1071 233 1070 233 1067 230 1066 230 1064 228 1063 228 1061 226 1060 226 1057 223 1057 221 1058 220 1058 219 1059 218 1059 216 1060 215 1060 214 1061 213 1061 212 1062 211 1062 210 1063 209 1063 208 1064 207 1064 206 1065 205 1065 204 1066 203 1066 201 1067 200 1067 199 1068 198 1068 194 1067 193 1061 193 1060 192 1050 192 1049 191 1038 191 1036 189 1036 179 1035 178 1035 168 1034 167 1034 162 1031 159 1030 160 1027 160 1026 161 1025 161 1024 162 1023 162 1022 163 1020 163 1019 164 1018 164 1017 165 1016 165 1015 166 1014 166 1013 167 1012 167 1011 168 1010 168 1009 169 1007 169 1006 170 1005 170 1004 171 1003 170 1003 169 1000 166 1000 165 998 163 998 162 995 159 995 158 993 156 993 155 991 153 991 152 988 149 988 148 987 147 Z M985 153 986 154 986 155 988 157 988 158 990 160 990 161 993 164 993 165 995 167 995 168 998 171 998 172 1002 176 1004 176 1005 175 1007 175 1008 174 1010 174 1011 173 1012 173 1013 172 1014 172 1015 171 1016 171 1017 170 1018 170 1019 169 1020 169 1021 168 1023 168 1024 167 1025 167 1026 166 1027 166 1028 165 1029 165 1030 166 1030 169 1031 170 1031 180 1032 181 1032 191 1033 192 1033 193 1034 194 1035 194 1036 195 1047 195 1048 196 1058 196 1059 197 1061 197 1062 198 1062 199 1061 200 1061 202 1060 203 1060 204 1059 205 1059 206 1058 207 1058 208 1057 209 1057 210 1056 211 1056 212 1055 213 1055 214 1054 215 1054 217 1053 218 1053 219 1052 220 1052 226 1054 228 1055 228 1058 231 1059 231 1061 233 1062 233 1064 235 1065 235 1068 238 1069 238 1071 240 1072 240 1074 242 1071 245 1070 245 1068 247 1067 247 1065 249 1064 249 1061 252 1060 252 1058 254 1057 254 1054 257 1053 257 1052 258 1052 265 1053 266 1053 267 1054 268 1054 269 1055 270 1055 271 1056 272 1056 273 1057 274 1057 275 1058 276 1058 277 1059 278 1059 280 1060 281 1060 282 1061 283 1061 284 1062 285 1062 287 1061 288 1051 288 1050 289 1040 289 1039 290 1034 290 1033 291 1033 292 1032 293 1032 303 1031 304 1031 314 1030 315 1030 319 1029 320 1028 319 1027 319 1026 318 1025 318 1024 317 1023 317 1022 316 1021 316 1020 315 1019 315 1018 314 1016 314 1015 313 1014 313 1013 312 1012 312 1011 311 1010 311 1009 310 1008 310 1007 309 1001 309 998 312 998 313 996 315 996 316 994 318 994 319 991 322 991 323 989 325 989 326 986 329 986 330 985 331 984 331 983 330 983 329 981 327 981 326 978 323 978 322 976 320 976 319 974 317 974 316 971 313 971 312 968 309 962 309 961 310 960 310 959 311 958 311 957 312 956 312 955 313 954 313 953 314 952 314 951 315 949 315 948 316 947 316 946 317 945 317 944 318 943 318 942 319 941 319 940 320 939 319 939 314 938 313 938 303 937 302 937 292 935 290 931 290 930 289 919 289 918 288 908 288 907 287 907 285 908 284 908 283 909 282 909 281 910 280 910 279 911 278 911 277 912 276 912 275 913 274 913 272 914 271 914 270 915 269 915 268 916 267 916 266 917 265 917 264 918 263 918 260 917 259 917 258 915 256 914 256 912 254 911 254 908 251 907 251 905 249 904 249 902 247 901 247 898 244 897 244 895 242 897 240 898 240 900 238 901 238 903 236 904 236 906 234 907 234 910 231 911 231 913 229 914 229 918 225 918 222 917 221 917 219 916 218 916 217 915 216 915 215 914 214 914 213 913 212 913 211 912 210 912 209 911 208 911 206 910 205 910 204 909 203 909 202 908 201 908 200 907 199 907 198 908 197 910 197 911 196 922 196 923 195 933 195 934 194 935 194 937 192 937 183 938 182 938 171 939 170 939 166 940 165 941 165 942 166 943 166 944 167 946 167 947 168 948 168 949 169 950 169 951 170 952 170 953 171 954 171 955 172 956 172 957 173 959 173 960 174 961 174 962 175 963 175 964 176 968 176 970 174 970 173 972 171 972 170 974 168 974 167 977 164 977 163 979 161 979 160 982 157 982 156 Z M213 70 212 71 207 71 206 72 201 72 200 73 197 73 196 74 193 74 192 75 190 75 189 76 187 76 186 77 184 77 183 78 181 78 180 79 179 79 178 80 176 80 175 81 174 81 173 82 172 82 171 83 170 83 169 84 168 84 167 85 166 85 165 86 164 86 162 88 161 88 160 89 159 89 157 91 156 91 153 94 152 94 149 97 148 97 141 104 140 104 135 109 135 110 129 116 129 117 126 120 126 121 123 124 123 125 121 127 121 128 120 129 120 130 118 132 118 133 117 134 117 135 116 136 116 137 115 138 115 139 114 140 114 141 113 142 113 144 112 145 112 146 111 147 111 148 110 149 110 151 109 152 109 154 108 155 108 156 107 157 107 160 106 161 106 164 105 165 105 168 104 169 104 173 103 174 103 180 102 181 102 211 103 212 103 218 104 219 104 224 105 225 105 227 106 228 106 231 107 232 107 235 108 236 108 238 109 239 109 240 110 241 110 243 111 244 111 246 112 247 112 248 113 249 113 250 114 251 114 252 115 253 115 254 116 255 116 257 118 259 118 260 119 261 119 262 121 264 121 265 123 267 123 268 125 270 125 271 128 274 128 275 133 280 133 281 143 291 144 291 149 296 150 296 153 299 154 299 157 302 158 302 159 303 160 303 162 305 163 305 164 306 165 306 167 308 169 308 171 310 173 310 174 311 175 311 176 312 177 312 178 313 180 313 181 314 182 314 183 315 185 315 186 316 188 316 189 317 191 317 192 318 195 318 196 319 199 319 200 320 204 320 205 321 211 321 212 322 245 322 246 321 251 321 252 320 256 320 257 319 260 319 261 318 264 318 265 317 267 317 268 316 270 316 271 315 273 315 274 314 275 314 276 313 278 313 279 312 280 312 281 311 283 311 284 310 285 310 287 308 289 308 290 307 291 307 293 305 294 305 296 303 297 303 298 302 299 302 302 299 303 299 306 296 307 296 311 292 312 292 324 280 324 279 328 275 328 274 331 271 331 270 334 267 334 266 335 265 335 264 337 262 337 261 338 260 338 259 340 257 340 255 342 253 342 252 343 251 343 249 344 248 344 247 345 246 345 244 346 243 346 242 347 241 347 239 348 238 348 236 349 235 349 233 350 232 350 229 351 228 351 225 352 224 352 220 353 219 353 213 354 212 354 180 353 179 353 174 352 173 352 168 351 167 351 165 350 164 350 161 349 160 349 157 348 156 348 154 347 153 347 152 346 151 346 149 345 148 345 146 344 145 344 144 343 143 343 142 342 141 342 140 341 139 341 138 340 137 340 135 338 133 338 132 336 130 336 129 335 128 335 127 333 125 333 124 331 122 331 121 327 117 327 116 322 111 322 110 314 102 313 102 308 97 307 97 304 94 303 94 300 91 299 91 297 89 296 89 295 88 294 88 292 86 291 86 290 85 289 85 288 84 287 84 286 83 285 83 284 82 283 82 282 81 281 81 280 80 278 80 277 79 276 79 275 78 273 78 272 77 270 77 269 76 268 76 267 75 264 75 263 74 260 74 259 73 256 73 255 72 250 72 249 71 244 71 243 70 Z M214 73 215 72 241 72 242 73 247 73 248 74 253 74 254 75 257 75 258 76 261 76 262 77 265 77 266 78 267 78 268 79 270 79 271 80 273 80 274 81 275 81 276 82 277 82 278 83 279 83 280 84 282 84 284 86 285 86 286 87 287 87 288 88 289 88 291 90 292 90 293 91 294 91 296 93 297 93 299 95 300 95 304 99 305 99 310 104 311 104 320 113 320 114 326 120 326 121 329 124 329 125 331 127 331 128 333 130 333 131 335 133 335 134 336 135 336 136 338 138 338 140 339 141 339 142 340 143 340 144 342 146 342 147 343 148 343 150 344 151 344 153 345 154 345 155 346 156 346 158 347 159 347 162 348 163 348 166 349 167 349 169 350 170 350 175 351 176 351 181 352 182 352 210 351 211 351 217 350 218 350 222 349 223 349 226 348 227 348 230 347 231 347 233 346 234 346 236 345 237 345 239 344 240 344 241 343 242 343 244 341 246 341 248 340 249 340 250 339 251 339 252 338 253 338 254 337 255 337 256 335 258 335 259 333 261 333 262 332 263 332 264 330 266 330 267 326 271 326 272 322 276 322 277 309 290 308 290 304 294 303 294 299 298 298 298 296 300 295 300 294 301 293 301 291 303 290 303 288 305 287 305 286 306 285 306 284 307 283 307 282 308 281 308 280 309 279 309 278 310 277 310 276 311 274 311 273 312 272 312 271 313 269 313 268 314 266 314 265 315 263 315 262 316 259 316 258 317 255 317 254 318 250 318 249 319 244 319 243 320 214 320 213 319 207 319 206 318 202 318 201 317 198 317 197 316 194 316 193 315 191 315 190 314 188 314 187 313 185 313 184 312 183 312 182 311 180 311 178 309 176 309 175 308 174 308 173 307 172 307 171 306 170 306 168 304 167 304 166 303 165 303 163 301 162 301 161 300 160 300 157 297 156 297 153 294 152 294 147 289 146 289 135 278 135 277 130 272 130 271 127 268 127 267 125 265 125 264 123 262 123 261 121 259 121 258 120 257 120 256 118 254 118 252 117 251 117 250 116 249 116 248 114 246 114 245 113 244 113 242 112 241 112 239 111 238 111 237 110 236 110 234 109 233 109 230 108 229 108 226 107 225 107 223 106 222 106 217 105 216 105 210 104 209 104 183 105 182 105 176 106 175 106 171 107 170 107 167 108 166 108 163 109 162 109 159 110 158 110 157 111 156 111 154 112 153 112 151 113 150 113 149 114 148 114 147 115 146 115 145 116 144 116 143 117 142 117 140 119 138 119 137 120 136 120 135 122 133 122 132 123 131 123 130 125 128 125 127 128 124 128 123 131 120 131 119 137 113 137 112 144 105 145 105 151 99 152 99 155 96 156 96 159 93 160 93 162 91 163 91 164 90 165 90 167 88 168 88 169 87 170 87 171 86 172 86 174 84 176 84 177 83 178 83 179 82 180 82 181 81 182 81 183 80 185 80 186 79 188 79 189 78 191 78 192 77 194 77 195 76 198 76 199 75 202 75 203 74 208 74 209 73 Z M785 24 755 54 756 55 755 56 756 57 768 57 770 59 770 76 768 78 751 78 749 76 749 64 748 63 746 63 716 93 716 97 745 126 748 126 749 125 749 113 751 111 768 111 770 113 770 130 768 132 756 132 755 133 755 136 784 165 789 165 818 136 818 133 817 132 805 132 803 130 803 113 805 111 822 111 824 113 824 125 825 126 828 126 857 97 857 93 827 63 825 63 824 64 824 76 822 78 805 78 803 76 803 59 805 57 817 57 818 56 817 55 818 54 788 24 Z M786 28 787 28 813 54 812 55 802 55 801 56 801 78 803 80 824 80 826 78 826 69 827 68 854 95 827 122 826 121 826 111 824 109 803 109 801 111 801 133 802 134 813 134 814 135 787 162 786 162 759 135 760 134 770 134 772 132 772 111 770 109 749 109 747 111 747 121 746 122 719 95 746 68 747 69 747 78 749 80 770 80 772 78 772 57 770 55 761 55 760 54 Z "/></svg>