<?xml version="1.0" encoding="utf-8"?>
<!-- Generator: Adobe Illustrator 14.0.0, SVG Export Plug-In . SVG Version: 6.00 Build 43363)  -->
<!DOCTYPE svg PUBLIC "-//W3C//DTD SVG 1.1//EN" "http://www.w3.org/Graphics/SVG/1.1/DTD/svg11.dtd">
<svg version="1.1" id="Layer_1" xmlns="http://www.w3.org/2000/svg" xmlns:xlink="http://www.w3.org/1999/xlink" x="0px" y="0px"
	 width="2904.428px" height="1950.332px" viewBox="0 0 2904.428 1950.332" enable-background="new 0 0 2904.428 1950.332"
	 xml:space="preserve">
<path fill="#3C2415" d="M2117.028,790.476c0-25.211-6.216-43.515-25.211-51.458c16.923-7.943,24.866-24.175,24.866-49.042V670.98
	c0-37.299-16.923-55.603-56.293-55.603h-57.331V857.13h37.99v-98.428h13.124c17.268,0,24.866,8.289,24.866,30.737v37.99
	c0,19.685,1.381,23.484,3.454,29.701h38.68c-3.799-8.979-4.145-17.613-4.145-29.355V790.476z M2078.693,698.609
	c0,19.341-8.634,25.557-22.793,25.557h-14.851v-74.252h18.305c13.469,0,19.34,7.598,19.34,24.866V698.609z M2389.864,799.109
	c0,38.681-19.34,60.784-56.639,60.784c-37.299,0-56.639-22.103-56.639-60.784v-14.85h35.917v17.268
	c0,17.268,7.598,23.484,19.685,23.484c12.088,0,19.686-6.216,19.686-23.484c0-49.732-74.252-59.057-74.252-128.129
	c0-38.681,18.995-60.784,55.948-60.784c36.954,0,55.949,22.103,55.949,60.784v7.598h-35.918V670.98 					  



c0-17.268-6.907-23.829-18.995-23.829c-12.088,0-18.995,6.562-18.995,23.829C2315.612,720.713,2389.864,730.038,2389.864,799.109z
	 M1869.061,615.378h117.423v34.536h-39.717V857.13h-37.989V649.914h-39.717V615.378z M2531.461,615.378V857.13h-38.68V753.522
	h-43.17V857.13h-37.989V615.378h37.989v103.608h43.17V615.378H2531.461z M2170.559,615.378l-38.68,241.752h34.881l6.562-43.861
	h46.624l6.562,43.861h38.335l-38.68-241.752H2170.559
 M2178.157,780.46l15.481-103.406c1.717-3.104,3.794-2.978,5.704,0.395
	l15.423,103.011H2178.157z"/>
</svg>
